{
.appVersion = "1271";
copyright = "\\251 2009 Robert E. Leuschke -- This font is not Shareware and may not be copied, sold, distributed or shared without permission from Gideon, Inc.  114 Long and Winding Road, St. Peters, MO 63376  USA Distributed by MyFONTS.com";
customParameters = (
{
name = panose;
value = (
2,
0,
5,
4,
6,
0,
0,
2,
0,
3
);
},
{
name = unicodeRanges;
value = (
0
);
},
{
name = fsType;
value = (
2
);
},
{
name = blueScale;
value = 0.26186;
},
{
name = glyphOrder;
value = (
.notdef,
exclam,
quotedbl,
numbersign,
dollar,
percent,
ampersand,
quotesingle,
parenleft,
parenright,
asterisk,
plus,
comma,
hyphen,
period,
slash,
zero,
one,
two,
three,
four,
five,
six,
seven,
eight,
nine,
colon,
semicolon,
less,
equal,
greater,
question,
at,
A,
B,
C,
D,
E,
F,
G,
H,
I,
J,
K,
L,
M,
N,
O,
P,
Q,
R,
S,
T,
U,
V,
W,
X,
Y,
Z,
bracketleft,
backslash,
bracketright,
asciicircum,
underscore,
grave,
a,
b,
c,
d,
e,
f,
g,
h,
i,
j,
k,
l,
m,
n,
o,
p,
q,
r,
s,
t,
u,
v,
w,
x,
y,
z,
braceleft,
bar,
braceright,
asciitilde,
DEL,
Ccedilla,
dagger,
degree,
cent,
sterling,
section,
bullet,
paragraph,
germandbls,
registered,
copyright,
trademark,
acute,
dieresis,
notequal,
infinity,
plusminus,
lessequal,
greaterequal,
yen,
mu,
partialdiff,
summation,
product,
pi,
integral,
ordfeminine,
ordmasculine,
Omega,
questiondown,
exclamdown,
logicalnot,
radical,
florin,
approxequal,
Delta,
guillemotleft,
guillemotright,
ellipsis,
nbspace,
endash,
emdash,
quotedblleft,
quotedblright,
quoteleft,
quoteright,
Euro,
fi,
fl,
daggerdbl,
periodcentered,
perthousand,
apple,
dotlessi,
circumflex,
tilde,
macron,
breve,
dotaccent,
ring,
cedilla,
hungarumlaut,
ogonek,
caron,
uni00AD,
A.sm,
B.sm,
C.sm,
D.sm,
E.sm,
F.sm,
G.sm,
H.sm,
I.sm,
J.sm,
K.sm,
L.sm,
M.sm,
N.sm,
O.sm,
P.sm,
Q.sm,
R.sm,
S.sm,
T.sm,
U.sm,
V.sm,
W.sm,
X.sm,
Y.sm,
Z.sm,
A.sm_E.sm,
O.sm_E.sm,
A.roman,
B.roman,
C.roman,
D.roman,
E.roman,
F.roman,
G.roman,
H.roman,
I.roman,
J.roman,
K.roman,
L.roman,
M.roman,
N.roman,
O.roman,
P.roman,

glyphs = (
{
glyphname = exclam;
layers = (
{
hints = (
{
horizontal = 1;
place = "{-6, 20}";
type = Stem;
}
);
layerId = "A626400C-4409-4FF6-B7A4-72C4E5A5721C";
paths = (
{
closed = 1;
nodes = (
"136 44 OFFCURVE",
"98 19 OFFCURVE",
"101 16 CURVE SMOOTH",
"109 6 OFFCURVE",
"122 -5 OFFCURVE",
"137 -6 CURVE SMOOTH",
"148 -7 OFFCURVE",
"162 7 OFFCURVE",
"174 17 CURVE SMOOTH",
"185 27 OFFCURVE",
"182 32 OFFCURVE",
"172 30 CURVE SMOOTH",
"160 28 OFFCURVE",
"149 36 OFFCURVE",
"139 42 CURVE SMOOTH"
);
},
{
closed = 1;
nodes = (
"417 559 OFFCURVE",
"409 577 OFFCURVE",
"405 574 CURVE SMOOTH",
"378 552 OFFCURVE",
"343 544 OFFCURVE",
"326 540 CURVE",
"322 531 OFFCURVE",
"313 504 OFFCURVE",
"307 487 CURVE SMOOTH",
"265 380 OFFCURVE",
"178 152 OFFCURVE",
"168 127 CURVE",
"167 119 OFFCURVE",
"191 130 OFFCURVE",
"195 138 CURVE SMOOTH",
"205 160 OFFCURVE",
"294 338 OFFCURVE",
"373 492 CURVE SMOOTH",
"377 499 OFFCURVE",
"405 550 OFFCURVE",
"413 556 CURVE SMOOTH"
);
}
);
width = 295;
}
);
note = exclam;
unicode = 0021;
},
{
glyphname = quotedbl;
layers = (
{
hints = (
{
horizontal = 1;
place = "{611, -20}";
target = down;
type = TopGhost;
}
);
layerId = "A626400C-4409-4FF6-B7A4-72C4E5A5721C";
paths = (
{
closed = 1;
nodes = (
"215 622 OFFCURVE",
"143 588 OFFCURVE",
"144 573 CURVE",
"135 533 OFFCURVE",
"124 483 OFFCURVE",
"107 439 CURVE SMOOTH",
"101 423 OFFCURVE",
"120 425 OFFCURVE",
"131 445 CURVE SMOOTH",
"157 494 OFFCURVE",
"195 560 OFFCURVE",
"211 608 CURVE SMOOTH"
);
},
{
closed = 1;
nodes = (
"321 622 OFFCURVE",
"248 588 OFFCURVE",
"249 573 CURVE",
"240 533 OFFCURVE",
"229 483 OFFCURVE",
"212 439 CURVE SMOOTH",
"206 423 OFFCURVE",
"226 425 OFFCURVE",
"236 445 CURVE SMOOTH",
"263 494 OFFCURVE",
"301 560 OFFCURVE",
"316 608 CURVE SMOOTH"
);
}
);
width = 168;
}
);
note = quotedbl;
unicode = 0022;
},
{
glyphname = numbersign;
layers = (
{
hints = (
{
horizontal = 1;
place = "{193, 29}";
type = Stem;
},
{
horizontal = 1;
place = "{314, 29}";
type = Stem;
}
);
layerId = "A626400C-4409-4FF6-B7A4-72C4E5A5721C";
paths = (
{
closed = 1;
nodes = (
"376 283 OFFCURVE",
"357 252 OFFCURVE",
"339 222 CURVE",
"305 222 OFFCURVE",
"274 222 OFFCURVE",
"256 222 CURVE SMOOTH",
"244 222 OFFCURVE",
"222 222 OFFCURVE",
"197 222 CURVE",
"217 253 OFFCURVE",
"237 284 OFFCURVE",
"258 315 CURVE",
"283 315 OFFCURVE",
"304 315 OFFCURVE",
"318 315 CURVE SMOOTH",
"332 315 OFFCURVE",
"362 314 OFFCURVE",
"396 314 CURVE"
);
},
{
closed = 1;
nodes = (
"560 345 OFFCURVE",
"512 344 OFFCURVE",
"459 343 CURVE",
"503 407 OFFCURVE",
"545 462 OFFCURVE",
"575 490 CURVE",
"577 491 OFFCURVE",
"539 503 OFFCURVE",
"535 500 CURVE SMOOTH",
"505 471 OFFCURVE",
"460 411 OFFCURVE",
"415 343 CURVE",
"376 342 OFFCURVE",
"341 342 OFFCURVE",
"320 342 CURVE SMOOTH",
"277 342 LINE",
"321 406 OFFCURVE",
"363 462 OFFCURVE",
"393 490 CURVE",
"395 491 OFFCURVE",
"357 503 OFFCURVE",
"354 500 CURVE SMOOTH",
"324 472 OFFCURVE",
"279 411 OFFCURVE",
"234 343 CURVE",
"182 343 OFFCURVE",
"126 345 OFFCURVE",
"112 347 CURVE SMOOTH",
"101 348 OFFCURVE",
"71 310 OFFCURVE",
"78 311 CURVE SMOOTH",
"104 313 OFFCURVE",
"161 314 OFFCURVE",
"215 314 CURVE",
"195 284 OFFCURVE",
"175 253 OFFCURVE",
"157 222 CURVE",
"109 223 OFFCURVE",
"60 224 OFFCURVE",
"48 226 CURVE SMOOTH",
"37 228 OFFCURVE",
"7 190 OFFCURVE",
"13 190 CURVE SMOOTH",
"37 192 OFFCURVE",
"89 193 OFFCURVE",
"140 194 CURVE",
"102 129 OFFCURVE",
"72 73 OFFCURVE",
"62 46 CURVE SMOOTH",
"60 39 OFFCURVE",
"83 38 OFFCURVE",
"87 45 CURVE SMOOTH",
"106 76 OFFCURVE",
"140 132 OFFCURVE",
"179 194 CURVE",
"210 194 OFFCURVE",
"237 194 OFFCURVE",
"253 194 CURVE SMOOTH",
"266 194 OFFCURVE",
"292 194 OFFCURVE",
"321 193 CURVE",
"285 131 OFFCURVE",
"255 76 OFFCURVE",
"244 46 CURVE SMOOTH",
"241 39 OFFCURVE",
"265 38 OFFCURVE",
"269 45 CURVE SMOOTH",
"287 76 OFFCURVE",
"321 131 OFFCURVE",
"360 192 CURVE",
"410 191 OFFCURVE",
"462 190 OFFCURVE",
"475 189 CURVE SMOOTH",
"486 188 OFFCURVE",
"516 225 OFFCURVE",
"510 225 CURVE SMOOTH",
"494 224 OFFCURVE",
"437 223 OFFCURVE",
"379 223 CURVE",
"398 252 OFFCURVE",
"418 283 OFFCURVE",
"438 313 CURVE",
"484 312 OFFCURVE",
"528 310 OFFCURVE",
"540 309 CURVE SMOOTH",
"551 308 OFFCURVE",
"581 345 OFFCURVE",
"575 345 CURVE SMOOTH"
);
}
);
width = 579;
}
);
note = numbersign;
unicode = 0023;
},
{
glyphname = dollar;
layers = (
{
hints = (
{
place = "{164, 41}";
type = Stem;
},
{
place = "{259, 48}";
type = Stem;
}
);
layerId = "A626400C-4409-4FF6-B7A4-72C4E5A5721C";
paths = (
{
closed = 1;
nodes = (
"218 336 OFFCURVE",
"209 349 OFFCURVE",
"206 361 CURVE SMOOTH",
"197 406 OFFCURVE",
"238 439 OFFCURVE",
"275 436 CURVE",
"262 403 OFFCURVE",
"246 364 OFFCURVE",
"230 322 CURVE"
);
},
{
closed = 1;
nodes = (
"248 211 OFFCURVE",
"259 186 OFFCURVE",
"259 164 CURVE SMOOTH",
"259 121 OFFCURVE",
"227 89 OFFCURVE",
"195 83 CURVE SMOOTH",
"186 81 OFFCURVE",
"177 81 OFFCURVE",
"168 81 CURVE",
"185 128 OFFCURVE",
"204 182 OFFCURVE",
"223 236 CURVE"
);
},
{
closed = 1;
nodes = (
"301 498 OFFCURVE",
"294 481 OFFCURVE",
"285 461 CURVE",
"283 461 LINE SMOOTH",
"252 461 OFFCURVE",
"221 446 OFFCURVE",
"198 423 CURVE SMOOTH",
"140 365 OFFCURVE",
"165 300 OFFCURVE",
"204 256 CURVE",
"181 199 OFFCURVE",
"158 140 OFFCURVE",
"139 88 CURVE",
"119 96 OFFCURVE",
"102 111 OFFCURVE",
"91 133 CURVE SMOOTH",
"81 152 OFFCURVE",
"79 175 OFFCURVE",
"86 197 CURVE SMOOTH",
"89 205 OFFCURVE",
"94 214 OFFCURVE",
"98 219 CURVE SMOOTH",
"101 222 OFFCURVE",
"96 229 OFFCURVE",
"89 225 CURVE SMOOTH",
"60 207 OFFCURVE",
"50 177 OFFCURVE",
"50 147 CURVE SMOOTH",
"50 97 OFFCURVE",
"85 71 OFFCURVE",
"130 64 CURVE",
"113 17 OFFCURVE",
"99 -23 OFFCURVE",
"91 -49 CURVE SMOOTH",
"90 -53 OFFCURVE",
"129 -36 OFFCURVE",
"130 -34 CURVE SMOOTH",
"137 -10 OFFCURVE",
"148 23 OFFCURVE",
"162 62 CURVE",
"234 63 OFFCURVE",
"307 118 OFFCURVE",
"307 192 CURVE SMOOTH",
"307 216 OFFCURVE",
"298 241 OFFCURVE",
"280 265 CURVE SMOOTH",
"272 276 OFFCURVE",
"260 288 OFFCURVE",
"248 302 CURVE",
"265 350 OFFCURVE",
"282 395 OFFCURVE",
"295 431 CURVE",
"307 426 OFFCURVE",
"316 416 OFFCURVE",
"322 402 CURVE SMOOTH",
"329 382 OFFCURVE",
"325 355 OFFCURVE",
"321 337 CURVE SMOOTH",
"318 324 OFFCURVE",
"335 332 OFFCURVE",
"341 343 CURVE SMOOTH",
"350 362 OFFCURVE",
"359 387 OFFCURVE",
"359 409 CURVE SMOOTH",
"359 446 OFFCURVE",
"335 457 OFFCURVE",
"306 460 CURVE",
"318 490 OFFCURVE",
"326 511 OFFCURVE",
"329 518 CURVE SMOOTH",
"331 525 OFFCURVE",
"309 518 OFFCURVE",
"306 511 CURVE SMOOTH"
);
}
);
width = 313;
}
);
note = dollar;
unicode = 0024;
},
{
glyphname = percent;
layers = (
{
hints = (
{
horizontal = 1;
place = "{-10, 11}";
type = Stem;
},
{
horizontal = 1;
place = "{291, 11}";
type = Stem;
},
{
horizontal = 1;
place = "{539, 25}";
type = Stem;
},
{
place = "{138, 23}";
type = Stem;
},
{
place = "{376, 23}";
type = Stem;
}
);
layerId = "A626400C-4409-4FF6-B7A4-72C4E5A5721C";
paths = (
{
closed = 1;
nodes = (
"64 -35 OFFCURVE",
"96 -37 OFFCURVE",
"104 -28 CURVE SMOOTH",
"211 93 OFFCURVE",
"519 421 OFFCURVE",
"690 538 CURVE",
"715 542 OFFCURVE",
"751 592 OFFCURVE",
"722 595 CURVE",
"675 582 OFFCURVE",
"598 567 OFFCURVE",
"542 564 CURVE SMOOTH",
"473 560 OFFCURVE",
"399 559 OFFCURVE",
"337 577 CURVE SMOOTH",
"326 580 OFFCURVE",
"317 574 OFFCURVE",
"310 567 CURVE",
"338 557 OFFCURVE",
"345 532 OFFCURVE",
"342 506 CURVE SMOOTH",
"335 447 OFFCURVE",
"277 361 OFFCURVE",
"224 321 CURVE SMOOTH",
"214 313 OFFCURVE",
"197 302 OFFCURVE",
"184 302 CURVE SMOOTH",
"128 302 OFFCURVE",
"191 403 OFFCURVE",
"198 415 CURVE SMOOTH",
"236 470 OFFCURVE",
"287 528 OFFCURVE",
"288 538 CURVE SMOOTH",
"289 546 OFFCURVE",
"278 549 OFFCURVE",
"272 549 CURVE SMOOTH",
"250 549 OFFCURVE",
"188 464 OFFCURVE",
"179 449 CURVE SMOOTH",
"170 435 OFFCURVE",
"161 420 OFFCURVE",
"154 405 CURVE SMOOTH",
"138 372 OFFCURVE",
"117 291 OFFCURVE",
"182 291 CURVE SMOOTH",
"200 291 OFFCURVE",
"223 300 OFFCURVE",
"243 314 CURVE SMOOTH",
"294 349 OFFCURVE",
"344 412 OFFCURVE",
"363 444 CURVE SMOOTH",
"377 467 OFFCURVE",
"414 535 OFFCURVE",
"369 550 CURVE",
"434 536 OFFCURVE",
"522 534 OFFCURVE",
"628 550 CURVE",
"460 433 OFFCURVE",
"195 130 OFFCURVE",
"72 -25 CURVE SMOOTH"
);
},
{
closed = 1;
nodes = (
"634 254 OFFCURVE",
"583 276 OFFCURVE",
"549 276 CURVE SMOOTH",
"545 276 OFFCURVE",
"538 268 OFFCURVE",
"549 266 CURVE",
"576 256 OFFCURVE",
"583 231 OFFCURVE",
"580 205 CURVE SMOOTH",
"573 146 OFFCURVE",
"515 59 OFFCURVE",
"462 20 CURVE SMOOTH",
"452 12 OFFCURVE",
"435 1 OFFCURVE",
"422 1 CURVE SMOOTH",
"367 1 OFFCURVE",
"429 102 OFFCURVE",
"437 114 CURVE SMOOTH",
"474 168 OFFCURVE",
"526 227 OFFCURVE",
"527 237 CURVE SMOOTH",
"528 245 OFFCURVE",
"516 248 OFFCURVE",
"510 248 CURVE SMOOTH",
"488 248 OFFCURVE",
"426 163 OFFCURVE",
"417 148 CURVE SMOOTH",
"408 134 OFFCURVE",
"399 119 OFFCURVE",
"392 104 CURVE SMOOTH",
"376 71 OFFCURVE",
"356 -10 OFFCURVE",
"420 -10 CURVE SMOOTH",
"438 -10 OFFCURVE",
"461 -1 OFFCURVE",
"482 13 CURVE SMOOTH",
"532 48 OFFCURVE",
"582 111 OFFCURVE",
"601 142 CURVE SMOOTH",
"614 164 OFFCURVE",
"626 189 OFFCURVE",
"629 212 CURVE SMOOTH"
);
}
);
width = 632;
}
);
note = percent;
unicode = 0025;
},
{
glyphname = ampersand;
layers = (
{
hints = (
{
horizontal = 1;
place = "{-111, 38}";
type = Stem;
},
{
horizontal = 1;
place = "{-41, 49}";
type = Stem;
},
{
horizontal = 1;
place = "{183, 23}";
type = Stem;
},
{
horizontal = 1;
place = "{471, 12}";
type = Stem;
},
{
place = "{111, 60}";
type = Stem;
},
{
place = "{273, 31}";
type = Stem;
},
{
place = "{476, 14}";
type = Stem;
}
);
layerId = "A626400C-4409-4FF6-B7A4-72C4E5A5721C";
paths = (
{
closed = 1;
nodes = (
"803 6 OFFCURVE",
"796 18 OFFCURVE",
"788 7 CURVE SMOOTH",
"737 -59 OFFCURVE",
"671 -130 OFFCURVE",
"573 -3 CURVE SMOOTH",
"553 24 OFFCURVE",
"528 64 OFFCURVE",
"504 105 CURVE",
"519 127 OFFCURVE",
"532 158 OFFCURVE",
"537 182 CURVE",
"556 180 OFFCURVE",
"574 178 OFFCURVE",
"590 176 CURVE SMOOTH",
"611 174 OFFCURVE",
"614 173 OFFCURVE",
"619 182 CURVE SMOOTH",
"637 209 LINE SMOOTH",
"640 214 OFFCURVE",
"635 215 OFFCURVE",
"633 213 CURVE SMOOTH",
"623 205 OFFCURVE",
"602 206 OFFCURVE",
"583 206 CURVE SMOOTH",
"449 206 LINE",
"428 248 OFFCURVE",
"406 293 OFFCURVE",
"396 318 CURVE",
"429 341 OFFCURVE",
"478 381 OFFCURVE",
"488 420 CURVE SMOOTH",
"506 498 OFFCURVE",
"377 512 OFFCURVE",
"355 414 CURVE SMOOTH",
"348 378 OFFCURVE",
"352 343 OFFCURVE",
"362 310 CURVE",
"361 309 LINE",
"299 273 OFFCURVE",
"231 243 OFFCURVE",
"176 195 CURVE SMOOTH",
"145 168 OFFCURVE",
"118 132 OFFCURVE",
"112 90 CURVE SMOOTH",
"107 57 OFFCURVE",
"117 26 OFFCURVE",
"138 3 CURVE SMOOTH",
"184 -49 OFFCURVE",
"285 -64 OFFCURVE",
"399 8 CURVE SMOOTH",
"431 28 OFFCURVE",
"452 46 OFFCURVE",
"473 68 CURVE",
"492 34 OFFCURVE",
"511 1 OFFCURVE",
"529 -24 CURVE SMOOTH",
"628 -163 OFFCURVE",
"711 -121 OFFCURVE",
"795 -5 CURVE SMOOTH"
);
},
{
closed = 1;
nodes = (
"466 391 OFFCURVE",
"430 356 OFFCURVE",
"392 329 CURVE",
"387 346 OFFCURVE",
"377 386 OFFCURVE",
"384 417 CURVE SMOOTH",
"401 493 OFFCURVE",
"488 482 OFFCURVE",
"475 426 CURVE SMOOTH"
);
},
{
closed = 1;
nodes = (
"516 166 OFFCURVE",
"505 142 OFFCURVE",
"493 124 CURVE",
"484 140 OFFCURVE",
"472 164 OFFCURVE",
"458 189 CURVE",
"480 188 OFFCURVE",
"502 186 OFFCURVE",
"523 184 CURVE"
);
},
{
closed = 1;
nodes = (
"442 59 OFFCURVE",
"416 37 OFFCURVE",
"388 26 CURVE SMOOTH",
"330 4 OFFCURVE",
"232 -4 OFFCURVE",
"190 38 CURVE SMOOTH",
"154 76 OFFCURVE",
"174 138 OFFCURVE",
"203 174 CURVE SMOOTH",
"241 222 OFFCURVE",
"304 260 OFFCURVE",
"356 292 CURVE SMOOTH",
"365 298 LINE",
"377 267 OFFCURVE",
"390 236 OFFCURVE",
"402 207 CURVE",
"362 209 OFFCURVE",
"309 209 OFFCURVE",
"287 190 CURVE SMOOTH",
"271 177 OFFCURVE",
"272 157 OFFCURVE",
"273 145 CURVE SMOOTH",
"274 133 OFFCURVE",
"294 102 OFFCURVE",
"304 85 CURVE",
"312 91 LINE",
"310 95 OFFCURVE",
"304 113 OFFCURVE",
"304 122 CURVE SMOOTH",
"300 173 OFFCURVE",
"370 187 OFFCURVE",
"411 189 CURVE",
"432 145 OFFCURVE",
"452 108 OFFCURVE",
"464 85 CURVE"
);
}
);
width = 608;
}
);
note = ampersand;
unicode = 0026;
},
{
glyphname = quotesingle;
layers = (
{
hints = (
{
horizontal = 1;
place = "{611, -20}";
target = down;
type = TopGhost;
}
);
layerId = "A626400C-4409-4FF6-B7A4-72C4E5A5721C";
paths = (
{
closed = 1;
nodes = (
"215 622 OFFCURVE",
"143 588 OFFCURVE",
"144 573 CURVE",
"135 533 OFFCURVE",
"124 483 OFFCURVE",
"107 439 CURVE SMOOTH",
"101 423 OFFCURVE",
"120 425 OFFCURVE",
"131 445 CURVE SMOOTH",
"157 494 OFFCURVE",
"195 560 OFFCURVE",
"211 608 CURVE SMOOTH"
);
}
);
width = 106;
}
);
note = quotesingle;
unicode = 0027;
},
{
glyphname = parenleft;
layers = (
{
hints = (
{
place = "{49, 62}";
type = Stem;
}
);
layerId = "A626400C-4409-4FF6-B7A4-72C4E5A5721C";
paths = (
{
closed = 1;
nodes = (
"609 634 OFFCURVE",
"602 650 OFFCURVE",
"595 649 CURVE SMOOTH",
"558 646 OFFCURVE",
"521 637 OFFCURVE",
"484 624 CURVE SMOOTH",
"341 574 OFFCURVE",
"189 457 OFFCURVE",
"118 332 CURVE SMOOTH",
"76 257 OFFCURVE",
"48 167 OFFCURVE",
"49 78 CURVE SMOOTH",
"51 -29 OFFCURVE",
"122 -76 OFFCURVE",
"218 -45 CURVE SMOOTH",
"234 -40 OFFCURVE",
"240 -24 OFFCURVE",
"228 -25 CURVE SMOOTH",
"222 -26 OFFCURVE",
"216 -28 OFFCURVE",
"210 -29 CURVE SMOOTH",
"138 -36 OFFCURVE",
"113 39 OFFCURVE",
"112 92 CURVE SMOOTH",
"107 353 OFFCURVE",
"369 594 OFFCURVE",
"602 633 CURVE SMOOTH"
);
}
);
width = 268;
}
);
note = parenleft;
unicode = 0028;
},
{
glyphname = parenright;
layers = (
{
hints = (
{
place = "{449, 62}";
type = Stem;
}
);
layerId = "A626400C-4409-4FF6-B7A4-72C4E5A5721C";
paths = (
{
closed = 1;
nodes = (
"-48 -30 OFFCURVE",
"-41 -46 OFFCURVE",
"-35 -45 CURVE SMOOTH",
"2 -42 OFFCURVE",
"40 -33 OFFCURVE",
"76 -20 CURVE SMOOTH",
"220 30 OFFCURVE",
"371 146 OFFCURVE",
"442 272 CURVE SMOOTH",
"485 347 OFFCURVE",
"513 437 OFFCURVE",
"511 526 CURVE SMOOTH",
"509 632 OFFCURVE",
"438 679 OFFCURVE",
"343 649 CURVE SMOOTH",
"326 644 OFFCURVE",
"320 628 OFFCURVE",
"332 629 CURVE SMOOTH",
"338 630 OFFCURVE",
"344 632 OFFCURVE",
"351 633 CURVE SMOOTH",
"423 639 OFFCURVE",
"448 565 OFFCURVE",
"449 512 CURVE SMOOTH",
"454 250 OFFCURVE",
"191 9 OFFCURVE",
"-42 -29 CURVE SMOOTH"
);
}
);
width = 507;
}
);
note = parenright;
unicode = 0029;
},
{
glyphname = asterisk;
layers = (
{
hints = (
{
horizontal = 1;
place = "{609, -20}";
target = down;
type = TopGhost;
},
{
place = "{70, 420}";
type = Stem;
}
);
layerId = "A626400C-4409-4FF6-B7A4-72C4E5A5721C";
paths = (
{
closed = 1;
nodes = (
"449 354 LINE",
"305 420 LINE",
"306 422 LINE",
"490 490 LINE",
"474 541 LINE",
"300 441 LINE",
"297 443 LINE",
"368 609 LINE",
"306 609 LINE",
"275 443 LINE",
"271 441 LINE",
"158 540 LINE",
"111 489 LINE",
"254 422 LINE",
"254 420 LINE",
"70 354 LINE",
"86 303 LINE",
"259 401 LINE",
"262 399 LINE",
"192 234 LINE",
"254 234 LINE",
"284 399 LINE",
"288 401 LINE",
"401 303 LINE"
);
}
);
width = 507;
}
);
note = asterisk;
unicode = 002A;
},
{
glyphname = plus;
layers = (
{
hints = (
{
horizontal = 1;
place = "{192, 36}";
type = Stem;
}
);
layerId = "A626400C-4409-4FF6-B7A4-72C4E5A5721C";
paths = (
{
closed = 1;
nodes = (
"352 365 OFFCURVE",
"298 349 OFFCURVE",
"294 339 CURVE SMOOTH",
"288 318 OFFCURVE",
"268 265 OFFCURVE",
"252 225 CURVE",
"213 225 OFFCURVE",
"144 225 OFFCURVE",
"121 229 CURVE SMOOTH",
"110 231 OFFCURVE",
"80 193 OFFCURVE",
"86 193 CURVE SMOOTH",
"130 197 OFFCURVE",
"194 197 OFFCURVE",
"241 197 CURVE",
"221 151 OFFCURVE",
"193 84 OFFCURVE",
"170 41 CURVE SMOOTH",
"166 35 OFFCURVE",
"222 51 OFFCURVE",
"225 62 CURVE SMOOTH",
"230 86 OFFCURVE",
"259 155 OFFCURVE",
"275 193 CURVE",
"276 197 LINE",
"322 196 OFFCURVE",
"392 193 OFFCURVE",
"413 192 CURVE SMOOTH",
"424 191 OFFCURVE",
"454 228 OFFCURVE",
"448 228 CURVE SMOOTH",
"424 227 OFFCURVE",
"346 225 OFFCURVE",
"288 225 CURVE",
"310 275 OFFCURVE",
"339 336 OFFCURVE",
"350 359 CURVE"
);
}
);
width = 326;
}
);
note = plus;
unicode = 002B;
},
{
glyphname = comma;
layers = (
{
hints = (
{
horizontal = 1;
place = "{-85, 148}";
type = Stem;
},
{
place = "{80, 40}";
type = Stem;
}
);
layerId = "A626400C-4409-4FF6-B7A4-72C4E5A5721C";
paths = (
{
closed = 1;
nodes = (
"125 42 OFFCURVE",
"122 60 OFFCURVE",
"101 63 CURVE SMOOTH",
"98 63 OFFCURVE",
"92 55 OFFCURVE",
"86 51 CURVE SMOOTH",
"81 47 OFFCURVE",
"66 39 OFFCURVE",
"59 38 CURVE",
"55 27 LINE",
"72 23 OFFCURVE",
"81 8 OFFCURVE",
"80 -8 CURVE SMOOTH",
"79 -23 OFFCURVE",
"66 -50 OFFCURVE",
"44 -69 CURVE SMOOTH",
"36 -76 OFFCURVE",
"37 -77 OFFCURVE",
"36 -80 CURVE SMOOTH",
"34 -88 OFFCURVE",
"41 -85 OFFCURVE",
"49 -80 CURVE SMOOTH",
"86 -54 OFFCURVE",
"110 -28 OFFCURVE",
"120 21 CURVE SMOOTH"
);
}
);
width = 129;
}
);
note = comma;
unicode = 002C;
},
{
glyphname = hyphen;
layers = (
{
hints = (
{
horizontal = 1;
place = "{147, 21}";
target = up;
type = BottomGhost;
}
);
layerId = "A626400C-4409-4FF6-B7A4-72C4E5A5721C";
paths = (
{
closed = 1;
nodes = (
"224 170 OFFCURVE",
"198 168 OFFCURVE",
"163 168 CURVE SMOOTH",
"138 169 OFFCURVE",
"113 169 OFFCURVE",
"98 172 CURVE SMOOTH",
"91 173 OFFCURVE",
"72 144 OFFCURVE",
"76 145 CURVE",
"106 148 OFFCURVE",
"130 148 OFFCURVE",
"161 148 CURVE SMOOTH",
"187 148 OFFCURVE",
"204 145 OFFCURVE",
"220 144 CURVE SMOOTH",
"227 143 OFFCURVE",
"246 171 OFFCURVE",
"242 171 CURVE SMOOTH"
);
}
);
width = 249;
}
);
note = hyphen;
unicode = 002D;
},
{
glyphname = period;
layers = (
{
hints = (
{
horizontal = 1;
place = "{-6, 20}";
type = Stem;
}
);
layerId = "A626400C-4409-4FF6-B7A4-72C4E5A5721C";
paths = (
{
closed = 1;
nodes = (
"69 44 OFFCURVE",
"31 19 OFFCURVE",
"33 16 CURVE SMOOTH",
"41 6 OFFCURVE",
"55 -5 OFFCURVE",
"69 -6 CURVE SMOOTH",
"81 -7 OFFCURVE",
"95 7 OFFCURVE",
"107 17 CURVE SMOOTH",
"117 27 OFFCURVE",
"114 32 OFFCURVE",
"105 30 CURVE SMOOTH",
"93 28 OFFCURVE",
"82 36 OFFCURVE",
"72 42 CURVE SMOOTH"
);
}
);
width = 149;
}
);
note = period;
unicode = 002E;
},
{
glyphname = slash;
layers = (
{
hints = (
{
horizontal = 1;
place = "{613, -20}";
target = down;
type = TopGhost;
},
{
place = "{0, 571}";
type = Stem;
}
);
layerId = "A626400C-4409-4FF6-B7A4-72C4E5A5721C";
paths = (
{
closed = 1;
nodes = (
"-6 -34 OFFCURVE",
"37 -35 OFFCURVE",
"43 -26 CURVE SMOOTH",
"130 93 OFFCURVE",
"482 516 OFFCURVE",
"571 610 CURVE SMOOTH",
"574 613 OFFCURVE",
"506 615 OFFCURVE",
"502 610 CURVE SMOOTH",
"404 505 OFFCURVE",
"148 181 OFFCURVE",
"0 -25 CURVE SMOOTH"
);
}
);
width = 377;
}
);
note = slash;
unicode = 002F;
},
{
glyphname = zero;
layers = (
{
hints = (
{
horizontal = 1;
place = "{-8, 20}";
type = Stem;
},
{
place = "{64, 51}";
type = Stem;
},
{
place = "{354, 49}";
type = Stem;
}
);
layerId = "A626400C-4409-4FF6-B7A4-72C4E5A5721C";
paths = (
{
closed = 1;
nodes = (
"298 442 OFFCURVE",
"263 436 OFFCURVE",
"245 421 CURVE SMOOTH",
"223 402 OFFCURVE",
"195 381 OFFCURVE",
"173 361 CURVE SMOOTH",
"76 272 OFFCURVE",
"-5 -8 OFFCURVE",
"153 -8 CURVE SMOOTH",
"174 -8 OFFCURVE",
"212 0 OFFCURVE",
"233 20 CURVE SMOOTH",
"256 42 OFFCURVE",
"278 55 OFFCURVE",
"300 75 CURVE SMOOTH",
"401 169 OFFCURVE",
"461 442 OFFCURVE",
"319 442 CURVE SMOOTH"
);
},
{
closed = 1;
nodes = (
"274 50 OFFCURVE",
"216 6 OFFCURVE",
"160 34 CURVE SMOOTH",
"95 66 OFFCURVE",
"107 179 OFFCURVE",
"152 282 CURVE SMOOTH",
"187 365 OFFCURVE",
"241 424 OFFCURVE",
"304 398 CURVE SMOOTH",
"374 369 OFFCURVE",
"363 252 OFFCURVE",
"316 146 CURVE SMOOTH"
);
}
);
width = 368;
}
);
note = zero;
unicode = 0030;
},
{
glyphname = one;
layers = (
{
hints = (
{
horizontal = 1;
place = "{148, 23}";
type = Stem;
}
);
layerId = "A626400C-4409-4FF6-B7A4-72C4E5A5721C";
paths = (
{
closed = 1;
nodes = (
"298 450 OFFCURVE",
"297 458 OFFCURVE",
"283 449 CURVE SMOOTH",
"260 435 OFFCURVE",
"224 413 OFFCURVE",
"208 402 CURVE SMOOTH",
"176 382 OFFCURVE",
"150 368 OFFCURVE",
"131 356 CURVE",
"128 347 OFFCURVE",
"127 343 OFFCURVE",
"123 329 CURVE",
"129 332 OFFCURVE",
"142 344 OFFCURVE",
"156 354 CURVE SMOOTH",
"175 369 OFFCURVE",
"194 382 OFFCURVE",
"201 378 CURVE SMOOTH",
"211 373 OFFCURVE",
"217 370 OFFCURVE",
"196 303 CURVE SMOOTH",
"162 198 LINE SMOOTH",
"151 164 OFFCURVE",
"120 69 OFFCURVE",
"107 44 CURVE SMOOTH",
"89 12 OFFCURVE",
"33 7 OFFCURVE",
"17 11 CURVE",
"8 -2 LINE",
"99 5 OFFCURVE",
"125 6 OFFCURVE",
"125 6 CURVE",
"155 5 OFFCURVE",
"208 1 OFFCURVE",
"219 -2 CURVE",
"230 10 LINE",
"217 9 OFFCURVE",
"158 12 OFFCURVE",
"163 44 CURVE SMOOTH",
"167 71 OFFCURVE",
"189 146 OFFCURVE",
"206 197 CURVE SMOOTH",
"221 246 LINE SMOOTH",
"248 333 OFFCURVE",
"267 388 OFFCURVE",
"292 438 CURVE SMOOTH"
);
}
);
width = 243;
}
);
note = one;
unicode = 0031;
},
{
glyphname = two;
layers = (
{
hints = (
{
horizontal = 1;
place = "{2, 35}";
type = Stem;
},
{
horizontal = 1;
place = "{420, 19}";
type = Stem;
},
{
place = "{356, 50}";
type = Stem;
}
);
layerId = "A626400C-4409-4FF6-B7A4-72C4E5A5721C";
paths = (
{
closed = 1;
nodes = (
"413 371 OFFCURVE",
"408 412 OFFCURVE",
"369 429 CURVE SMOOTH",
"351 437 OFFCURVE",
"326 440 OFFCURVE",
"296 439 CURVE SMOOTH",
"274 438 LINE SMOOTH",
"248 437 OFFCURVE",
"211 431 OFFCURVE",
"198 426 CURVE SMOOTH",
"191 423 OFFCURVE",
"180 416 OFFCURVE",
"180 406 CURVE SMOOTH",
"179 393 OFFCURVE",
"164 324 OFFCURVE",
"157 301 CURVE",
"178 312 LINE",
"177 316 OFFCURVE",
"183 342 OFFCURVE",
"186 352 CURVE SMOOTH",
"191 370 OFFCURVE",
"209 395 OFFCURVE",
"223 404 CURVE SMOOTH",
"239 414 OFFCURVE",
"264 420 OFFCURVE",
"285 420 CURVE SMOOTH",
"341 421 OFFCURVE",
"366 387 OFFCURVE",
"352 343 CURVE SMOOTH",
"332 279 OFFCURVE",
"232 189 OFFCURVE",
"181 141 CURVE SMOOTH",
"113 76 OFFCURVE",
"51 21 OFFCURVE",
"21 -5 CURVE",
"93 0 OFFCURVE",
"127 2 OFFCURVE",
"127 2 CURVE",
"155 4 OFFCURVE",
"212 2 OFFCURVE",
"245 0 CURVE SMOOTH",
"277 -2 OFFCURVE",
"292 14 OFFCURVE",
"305 42 CURVE SMOOTH",
"316 66 OFFCURVE",
"342 105 OFFCURVE",
"345 109 CURVE",
"336 112 LINE",
"329 97 OFFCURVE",
"296 59 OFFCURVE",
"276 48 CURVE SMOOTH",
"245 30 OFFCURVE",
"158 32 OFFCURVE",
"104 36 CURVE SMOOTH",
"95 37 OFFCURVE",
"82 37 OFFCURVE",
"111 59 CURVE SMOOTH",
"178 111 OFFCURVE",
"296 197 OFFCURVE",
"354 259 CURVE SMOOTH",
"374 281 OFFCURVE",
"392 305 OFFCURVE",
"400 332 CURVE SMOOTH"
);
}
);
width = 331;
}
);
note = two;
unicode = 0032;
},
{
glyphname = three;
layers = (
{
hints = (
{
horizontal = 1;
place = "{-8, 18}";
type = Stem;
},
{
horizontal = 1;
place = "{420, 19}";
type = Stem;
},
{
place = "{339, 48}";
type = Stem;
}
);
layerId = "A626400C-4409-4FF6-B7A4-72C4E5A5721C";
paths = (
{
closed = 1;
nodes = (
"392 379 OFFCURVE",
"387 413 OFFCURVE",
"352 429 CURVE SMOOTH",
"334 437 OFFCURVE",
"309 440 OFFCURVE",
"279 439 CURVE SMOOTH",
"257 438 LINE SMOOTH",
"231 437 OFFCURVE",
"194 431 OFFCURVE",
"181 426 CURVE SMOOTH",
"174 423 OFFCURVE",
"163 416 OFFCURVE",
"163 406 CURVE SMOOTH",
"162 393 OFFCURVE",
"147 324 OFFCURVE",
"140 301 CURVE",
"161 312 LINE",
"160 316 OFFCURVE",
"166 342 OFFCURVE",
"169 352 CURVE SMOOTH",
"174 370 OFFCURVE",
"192 395 OFFCURVE",
"207 404 CURVE SMOOTH",
"222 414 OFFCURVE",
"247 420 OFFCURVE",
"268 420 CURVE SMOOTH",
"325 421 OFFCURVE",
"349 387 OFFCURVE",
"335 343 CURVE SMOOTH",
"315 279 OFFCURVE",
"237 259 OFFCURVE",
"193 250 CURVE SMOOTH",
"186 249 OFFCURVE",
"184 249 OFFCURVE",
"175 247 CURVE",
"175 247 OFFCURVE",
"169 239 OFFCURVE",
"162 231 CURVE",
"233 231 OFFCURVE",
"318 224 OFFCURVE",
"288 133 CURVE SMOOTH",
"270 74 OFFCURVE",
"224 13 OFFCURVE",
"142 10 CURVE SMOOTH",
"119 9 OFFCURVE",
"94 14 OFFCURVE",
"82 26 CURVE SMOOTH",
"72 35 OFFCURVE",
"66 59 OFFCURVE",
"70 77 CURVE SMOOTH",
"73 87 OFFCURVE",
"80 112 OFFCURVE",
"83 116 CURVE",
"61 107 LINE",
"55 84 OFFCURVE",
"41 38 OFFCURVE",
"35 26 CURVE SMOOTH",
"30 16 OFFCURVE",
"38 9 OFFCURVE",
"43 6 CURVE SMOOTH",
"67 -8 OFFCURVE",
"127 -10 OFFCURVE",
"156 -8 CURVE SMOOTH",
"225 -3 OFFCURVE",
"269 24 OFFCURVE",
"299 61 CURVE SMOOTH",
"320 87 OFFCURVE",
"355 162 OFFCURVE",
"339 199 CURVE SMOOTH",
"328 226 OFFCURVE",
"302 236 OFFCURVE",
"271 239 CURVE SMOOTH",
"258 241 OFFCURVE",
"240 242 OFFCURVE",
"267 251 CURVE SMOOTH",
"327 271 OFFCURVE",
"369 306 OFFCURVE",
"383 350 CURVE SMOOTH"
);
}
);
width = 314;
}
);
note = three;
unicode = 0033;
},
{
glyphname = four;
layers = (
{
hints = (
{
horizontal = 1;
place = "{123, 41}";
type = Stem;
}
);
layerId = "A626400C-4409-4FF6-B7A4-72C4E5A5721C";
paths = (
{
closed = 1;
nodes = (
"423 238 LINE",
"416 224 OFFCURVE",
"380 186 OFFCURVE",
"358 175 CURVE",
"349 169 OFFCURVE",
"330 166 OFFCURVE",
"307 164 CURVE",
"311 175 OFFCURVE",
"315 187 OFFCURVE",
"318 197 CURVE SMOOTH",
"333 246 LINE SMOOTH",
"361 333 OFFCURVE",
"379 388 OFFCURVE",
"405 438 CURVE SMOOTH",
"416 462 OFFCURVE",
"364 430 OFFCURVE",
"333 420 CURVE SMOOTH",
"318 415 OFFCURVE",
"299 384 OFFCURVE",
"260 343 CURVE SMOOTH",
"143 220 LINE SMOOTH",
"115 191 OFFCURVE",
"79 149 OFFCURVE",
"57 135 CURVE SMOOTH",
"47 128 OFFCURVE",
"36 121 OFFCURVE",
"61 123 CURVE SMOOTH",
"133 127 OFFCURVE",
"195 129 OFFCURVE",
"195 129 CURVE",
"209 129 OFFCURVE",
"230 129 OFFCURVE",
"252 129 CURVE",
"240 94 OFFCURVE",
"227 58 OFFCURVE",
"219 44 CURVE SMOOTH",
"201 12 OFFCURVE",
"145 7 OFFCURVE",
"130 11 CURVE",
"121 -2 LINE",
"211 5 OFFCURVE",
"237 6 OFFCURVE",
"237 6 CURVE",
"267 5 OFFCURVE",
"321 1 OFFCURVE",
"331 -2 CURVE",
"343 10 LINE",
"329 9 OFFCURVE",
"271 12 OFFCURVE",
"275 44 CURVE SMOOTH",
"278 60 OFFCURVE",
"287 93 OFFCURVE",
"297 128 CURVE",
"307 128 OFFCURVE",
"317 127 OFFCURVE",
"326 127 CURVE SMOOTH",
"361 124 OFFCURVE",
"377 141 OFFCURVE",
"391 169 CURVE SMOOTH",
"402 193 OFFCURVE",
"430 231 OFFCURVE",
"433 235 CURVE"
);
},
{
closed = 1;
nodes = (
"331 376 OFFCURVE",
"321 343 OFFCURVE",
"308 303 CURVE SMOOTH",
"274 198 LINE",
"272 189 OFFCURVE",
"267 176 OFFCURVE",
"262 161 CURVE",
"216 159 OFFCURVE",
"164 161 OFFCURVE",
"133 163 CURVE SMOOTH",
"120 164 OFFCURVE",
"117 169 OFFCURVE",
"128 181 CURVE SMOOTH",
"165 221 OFFCURVE",
"295 365 OFFCURVE",
"322 383 CURVE"
);
}
);
width = 403;
}
);
note = four;
unicode = 0034;
},
{
glyphname = five;
layers = (
{
hints = (
{
horizontal = 1;
place = "{-8, 18}";
type = Stem;
},
{
horizontal = 1;
place = "{239, 27}";
type = Stem;
},
{
horizontal = 1;
place = "{397, 38}";
type = Stem;
},
{
place = "{294, 56}";
type = Stem;
}
);
layerId = "A626400C-4409-4FF6-B7A4-72C4E5A5721C";
paths = (
{
closed = 1;
nodes = (
"411 435 OFFCURVE",
"299 434 OFFCURVE",
"231 433 CURVE SMOOTH",
"216 433 OFFCURVE",
"208 442 OFFCURVE",
"201 425 CURVE SMOOTH",
"198 416 OFFCURVE",
"181 374 OFFCURVE",
"176 361 CURVE SMOOTH",
"169 344 OFFCURVE",
"146 286 OFFCURVE",
"125 243 CURVE SMOOTH",
"114 222 OFFCURVE",
"111 220 OFFCURVE",
"126 225 CURVE SMOOTH",
"155 235 OFFCURVE",
"190 240 OFFCURVE",
"220 240 CURVE SMOOTH",
"246 240 OFFCURVE",
"269 232 OFFCURVE",
"282 216 CURVE SMOOTH",
"299 196 OFFCURVE",
"297 162 OFFCURVE",
"287 130 CURVE SMOOTH",
"269 71 OFFCURVE",
"216 13 OFFCURVE",
"142 10 CURVE SMOOTH",
"119 9 OFFCURVE",
"94 14 OFFCURVE",
"82 26 CURVE SMOOTH",
"72 35 OFFCURVE",
"66 59 OFFCURVE",
"70 77 CURVE SMOOTH",
"73 87 OFFCURVE",
"80 112 OFFCURVE",
"83 116 CURVE",
"61 107 LINE",
"55 84 OFFCURVE",
"41 38 OFFCURVE",
"35 26 CURVE SMOOTH",
"30 16 OFFCURVE",
"38 9 OFFCURVE",
"43 6 CURVE SMOOTH",
"68 -8 OFFCURVE",
"127 -10 OFFCURVE",
"156 -8 CURVE SMOOTH",
"243 -2 OFFCURVE",
"313 48 OFFCURVE",
"341 138 CURVE SMOOTH",
"368 222 OFFCURVE",
"337 266 OFFCURVE",
"239 266 CURVE SMOOTH",
"215 266 OFFCURVE",
"171 259 OFFCURVE",
"148 247 CURVE",
"158 269 OFFCURVE",
"196 348 OFFCURVE",
"214 383 CURVE SMOOTH",
"219 392 OFFCURVE",
"228 396 OFFCURVE",
"240 397 CURVE SMOOTH",
"261 399 OFFCURVE",
"337 399 OFFCURVE",
"355 399 CURVE SMOOTH",
"392 399 OFFCURVE",
"391 384 OFFCURVE",
"383 370 CURVE",
"383 370 OFFCURVE",
"372 343 OFFCURVE",
"360 325 CURVE",
"374 322 LINE",
"383 339 OFFCURVE",
"397 375 OFFCURVE",
"397 375 CURVE",
"406 395 OFFCURVE",
"435 434 OFFCURVE",
"419 435 CURVE SMOOTH"
);
}
);
width = 331;
}
);
note = five;
unicode = 0035;
},
{
glyphname = six;
layers = (
{
hints = (
{
horizontal = 1;
place = "{-4, 20}";
type = Stem;
},
{
horizontal = 1;
place = "{244, 28}";
type = Stem;
},
{
horizontal = 1;
place = "{428, 18}";
type = Stem;
},
{
place = "{62, 50}";
type = Stem;
},
{
place = "{306, 53}";
type = Stem;
}
);
layerId = "A626400C-4409-4FF6-B7A4-72C4E5A5721C";
paths = (
{
closed = 1;
nodes = (
"420 426 OFFCURVE",
"413 432 OFFCURVE",
"408 434 CURVE SMOOTH",
"391 443 OFFCURVE",
"368 446 OFFCURVE",
"344 446 CURVE SMOOTH",
"214 446 OFFCURVE",
"127 326 OFFCURVE",
"86 213 CURVE SMOOTH",
"52 117 OFFCURVE",
"38 -4 OFFCURVE",
"159 -4 CURVE SMOOTH",
"178 -4 OFFCURVE",
"213 1 OFFCURVE",
"230 13 CURVE SMOOTH",
"251 27 OFFCURVE",
"269 35 OFFCURVE",
"288 47 CURVE SMOOTH",
"373 104 OFFCURVE",
"400 272 OFFCURVE",
"268 272 CURVE SMOOTH",
"248 272 OFFCURVE",
"216 268 OFFCURVE",
"201 259 CURVE SMOOTH",
"185 248 OFFCURVE",
"161 239 OFFCURVE",
"140 223 CURVE",
"145 244 OFFCURVE",
"156 270 OFFCURVE",
"167 292 CURVE SMOOTH",
"197 354 OFFCURVE",
"265 428 OFFCURVE",
"336 428 CURVE SMOOTH",
"352 428 OFFCURVE",
"366 425 OFFCURVE",
"376 416 CURVE SMOOTH",
"384 408 OFFCURVE",
"389 388 OFFCURVE",
"385 372 CURVE SMOOTH",
"382 363 OFFCURVE",
"375 342 OFFCURVE",
"373 338 CURVE",
"391 346 LINE",
"396 366 OFFCURVE",
"409 407 OFFCURVE",
"415 418 CURVE SMOOTH"
);
},
{
closed = 1;
nodes = (
"314 140 OFFCURVE",
"299 66 OFFCURVE",
"239 33 CURVE SMOOTH",
"216 21 OFFCURVE",
"191 18 OFFCURVE",
"164 26 CURVE SMOOTH",
"102 45 OFFCURVE",
"102 112 OFFCURVE",
"132 172 CURVE SMOOTH",
"145 200 OFFCURVE",
"168 223 OFFCURVE",
"195 235 CURVE SMOOTH",
"251 259 OFFCURVE",
"295 231 OFFCURVE",
"304 186 CURVE SMOOTH"
);
}
);
width = 336;
}
);
note = six;
unicode = 0036;
},
{
glyphname = seven;
layers = (
{
hints = (
{
horizontal = 1;
place = "{399, 36}";
type = Stem;
}
);
layerId = "A626400C-4409-4FF6-B7A4-72C4E5A5721C";
paths = (
{
closed = 1;
nodes = (
"449 446 OFFCURVE",
"416 433 OFFCURVE",
"401 433 CURVE SMOOTH",
"333 434 OFFCURVE",
"202 435 OFFCURVE",
"193 435 CURVE SMOOTH",
"176 434 OFFCURVE",
"165 395 OFFCURVE",
"154 375 CURVE",
"154 375 OFFCURVE",
"136 343 OFFCURVE",
"127 326 CURVE",
"145 329 LINE",
"150 347 OFFCURVE",
"167 374 OFFCURVE",
"167 374 CURVE",
"175 389 OFFCURVE",
"186 399 OFFCURVE",
"223 399 CURVE SMOOTH",
"241 399 OFFCURVE",
"319 399 OFFCURVE",
"339 397 CURVE SMOOTH",
"350 396 OFFCURVE",
"357 392 OFFCURVE",
"356 383 CURVE SMOOTH",
"352 348 OFFCURVE",
"53 24 OFFCURVE",
"50 2 CURVE",
"52 -3 OFFCURVE",
"80 6 OFFCURVE",
"109 0 CURVE",
"117 59 OFFCURVE",
"378 366 OFFCURVE",
"436 431 CURVE SMOOTH"
);
}
);
width = 310;
}
);
note = seven;
unicode = 0037;
},
{
glyphname = eight;
layers = (
{
hints = (
{
horizontal = 1;
place = "{-9, 19}";
type = Stem;
},
{
horizontal = 1;
place = "{434, 15}";
type = Stem;
},
{
place = "{40, 42}";
type = Stem;
},
{
place = "{134, 56}";
type = Stem;
},
{
place = "{253, 62}";
type = Stem;
},
{
place = "{350, 31}";
type = Stem;
}
);
layerId = "A626400C-4409-4FF6-B7A4-72C4E5A5721C";
paths = (
{
closed = 1;
nodes = (
"396 420 OFFCURVE",
"358 449 OFFCURVE",
"302 449 CURVE SMOOTH",
"238 449 OFFCURVE",
"162 396 OFFCURVE",
"141 327 CURVE SMOOTH",
"123 270 OFFCURVE",
"144 242 OFFCURVE",
"182 216 CURVE",
"128 186 OFFCURVE",
"64 143 OFFCURVE",
"44 80 CURVE SMOOTH",
"25 18 OFFCURVE",
"76 -9 OFFCURVE",
"130 -9 CURVE SMOOTH",
"204 -9 OFFCURVE",
"284 39 OFFCURVE",
"309 117 CURVE SMOOTH",
"329 180 OFFCURVE",
"296 209 OFFCURVE",
"256 239 CURVE",
"301 266 OFFCURVE",
"360 308 OFFCURVE",
"376 357 CURVE SMOOTH"
);
},
{
closed = 1;
nodes = (
"333 320 OFFCURVE",
"280 273 OFFCURVE",
"242 249 CURVE",
"211 272 OFFCURVE",
"178 300 OFFCURVE",
"194 352 CURVE SMOOTH",
"209 400 OFFCURVE",
"249 433 OFFCURVE",
"296 433 CURVE SMOOTH",
"336 433 OFFCURVE",
"360 404 OFFCURVE",
"346 361 CURVE SMOOTH"
);
},
{
closed = 1;
nodes = (
"231 41 OFFCURVE",
"184 10 OFFCURVE",
"133 10 CURVE SMOOTH",
"86 10 OFFCURVE",
"73 43 OFFCURVE",
"87 88 CURVE SMOOTH",
"103 139 OFFCURVE",
"150 176 OFFCURVE",
"197 206 CURVE",
"235 179 OFFCURVE",
"266 152 OFFCURVE",
"248 93 CURVE SMOOTH"
);
}
);
width = 351;
}
);
note = eight;
unicode = 0038;
},
{
glyphname = nine;
layers = (
{
hints = (
{
horizontal = 1;
place = "{-4, 18}";
type = Stem;
},
{
place = "{101, 47}";
type = Stem;
},
{
place = "{348, 50}";
type = Stem;
}
);
layerId = "A626400C-4409-4FF6-B7A4-72C4E5A5721C";
paths = (
{
closed = 1;
nodes = (
"408 326 OFFCURVE",
"422 446 OFFCURVE",
"301 446 CURVE SMOOTH",
"281 446 OFFCURVE",
"247 441 OFFCURVE",
"229 429 CURVE SMOOTH",
"209 416 OFFCURVE",
"190 408 OFFCURVE",
"172 395 CURVE SMOOTH",
"87 338 OFFCURVE",
"59 171 OFFCURVE",
"191 171 CURVE SMOOTH",
"211 171 OFFCURVE",
"244 175 OFFCURVE",
"259 184 CURVE SMOOTH",
"275 194 OFFCURVE",
"299 204 OFFCURVE",
"320 219 CURVE",
"315 198 OFFCURVE",
"303 173 OFFCURVE",
"293 151 CURVE SMOOTH",
"262 89 OFFCURVE",
"195 15 OFFCURVE",
"124 15 CURVE SMOOTH",
"108 15 OFFCURVE",
"94 18 OFFCURVE",
"84 27 CURVE SMOOTH",
"76 35 OFFCURVE",
"71 55 OFFCURVE",
"75 70 CURVE SMOOTH",
"78 80 OFFCURVE",
"84 101 OFFCURVE",
"87 104 CURVE",
"69 96 LINE",
"64 76 OFFCURVE",
"50 36 OFFCURVE",
"45 25 CURVE SMOOTH",
"40 16 OFFCURVE",
"47 11 OFFCURVE",
"51 8 CURVE",
"69 -1 OFFCURVE",
"91 -4 OFFCURVE",
"115 -4 CURVE SMOOTH",
"246 -4 OFFCURVE",
"333 117 OFFCURVE",
"373 230 CURVE SMOOTH"
);
},
{
closed = 1;
nodes = (
"304 222 OFFCURVE",
"254 189 OFFCURVE",
"203 203 CURVE SMOOTH",
"137 220 OFFCURVE",
"136 288 OFFCURVE",
"167 350 CURVE SMOOTH",
"196 407 OFFCURVE",
"244 432 OFFCURVE",
"296 416 CURVE SMOOTH",
"358 397 OFFCURVE",
"358 331 OFFCURVE",
"328 270 CURVE SMOOTH"
);
}
);
width = 336;
}
);
note = nine;
unicode = 0039;
},
{
glyphname = colon;
layers = (
{
hints = (
{
horizontal = 1;
place = "{-5, 20}";
type = Stem;
},
{
horizontal = 1;
place = "{294, -20}";
target = down;
type = TopGhost;
}
);
layerId = "A626400C-4409-4FF6-B7A4-72C4E5A5721C";
paths = (
{
closed = 1;
nodes = (
"166 295 OFFCURVE",
"128 270 OFFCURVE",
"131 267 CURVE SMOOTH",
"139 258 OFFCURVE",
"152 246 OFFCURVE",
"166 246 CURVE SMOOTH",
"178 245 OFFCURVE",
"192 259 OFFCURVE",
"204 269 CURVE SMOOTH",
"215 279 OFFCURVE",
"212 284 OFFCURVE",
"202 282 CURVE SMOOTH",
"190 280 OFFCURVE",
"179 288 OFFCURVE",
"169 294 CURVE"
);
},
{
closed = 1;
nodes = (
"94 45 OFFCURVE",
"56 20 OFFCURVE",
"59 17 CURVE SMOOTH",
"67 8 OFFCURVE",
"80 -4 OFFCURVE",
"95 -5 CURVE SMOOTH",
"106 -5 OFFCURVE",
"120 8 OFFCURVE",
"132 19 CURVE SMOOTH",
"143 29 OFFCURVE",
"140 33 OFFCURVE",
"130 32 CURVE SMOOTH",
"118 30 OFFCURVE",
"107 38 OFFCURVE",
"97 44 CURVE"
);
}
);
width = 154;
}
);
note = colon;
unicode = 003A;
},
{
glyphname = semicolon;
layers = (
{
hints = (
{
horizontal = 1;
place = "{294, -20}";
target = down;
type = TopGhost;
}
);
layerId = "A626400C-4409-4FF6-B7A4-72C4E5A5721C";
paths = (
{
closed = 1;
nodes = (
"138 26 OFFCURVE",
"134 44 OFFCURVE",
"114 47 CURVE SMOOTH",
"110 47 OFFCURVE",
"104 39 OFFCURVE",
"99 35 CURVE SMOOTH",
"93 31 OFFCURVE",
"79 23 OFFCURVE",
"72 22 CURVE",
"68 11 LINE",
"85 7 OFFCURVE",
"96 -8 OFFCURVE",
"93 -24 CURVE SMOOTH",
"87 -53 OFFCURVE",
"69 -78 OFFCURVE",
"47 -97 CURVE SMOOTH",
"39 -104 OFFCURVE",
"40 -105 OFFCURVE",
"39 -108 CURVE SMOOTH",
"37 -116 LINE",
"37 -116 OFFCURVE",
"44 -113 OFFCURVE",
"51 -108 CURVE SMOOTH",
"89 -82 OFFCURVE",
"122 -44 OFFCURVE",
"133 5 CURVE SMOOTH"
);
},
{
closed = 1;
nodes = (
"179 295 OFFCURVE",
"142 270 OFFCURVE",
"144 267 CURVE SMOOTH",
"152 258 OFFCURVE",
"165 246 OFFCURVE",
"180 246 CURVE SMOOTH",
"191 245 OFFCURVE",
"206 259 OFFCURVE",
"218 269 CURVE SMOOTH",
"228 279 OFFCURVE",
"225 284 OFFCURVE",
"216 282 CURVE SMOOTH",
"204 280 OFFCURVE",
"193 288 OFFCURVE",
"183 294 CURVE"
);
}
);
width = 154;
}
);
note = semicolon;
unicode = 003B;
},
{
glyphname = less;
layers = (
{
hints = (
{
horizontal = 1;
place = "{65, 304}";
type = Stem;
},
{
place = "{38, 213}";
type = Stem;
}
);
layerId = "A626400C-4409-4FF6-B7A4-72C4E5A5721C";
paths = (
{
closed = 1;
nodes = (
"251 313 OFFCURVE",
"174 261 OFFCURVE",
"93 217 CURVE",
"88 200 LINE",
"134 176 OFFCURVE",
"191 128 OFFCURVE",
"224 82 CURVE SMOOTH",
"230 74 OFFCURVE",
"238 65 OFFCURVE",
"237 52 CURVE",
"243 52 LINE",
"246 59 OFFCURVE",
"270 79 OFFCURVE",
"272 82 CURVE",
"289 100 OFFCURVE",
"245 140 OFFCURVE",
"235 150 CURVE SMOOTH",
"211 175 OFFCURVE",
"178 200 OFFCURVE",
"153 217 CURVE",
"151 219 OFFCURVE",
"151 222 OFFCURVE",
"155 225 CURVE SMOOTH",
"186 243 OFFCURVE",
"297 317 OFFCURVE",
"320 346 CURVE",
"324 353 OFFCURVE",
"326 362 OFFCURVE",
"326 369 CURVE"
);
}
);
width = 293;
}
);
note = less;
unicode = 003C;
},
{
glyphname = equal;
layers = (
{
hints = (
{
horizontal = 1;
place = "{129, 31}";
type = Stem;
},
{
horizontal = 1;
place = "{250, 31}";
type = Stem;
}
);
layerId = "A626400C-4409-4FF6-B7A4-72C4E5A5721C";
paths = (
{
closed = 1;
nodes = (
"328 159 OFFCURVE",
"263 157 OFFCURVE",
"208 157 CURVE SMOOTH",
"169 157 OFFCURVE",
"119 158 OFFCURVE",
"96 161 CURVE SMOOTH",
"85 163 OFFCURVE",
"55 125 OFFCURVE",
"61 125 CURVE SMOOTH",
"108 129 OFFCURVE",
"158 129 OFFCURVE",
"206 129 CURVE SMOOTH",
"246 129 OFFCURVE",
"297 126 OFFCURVE",
"322 124 CURVE SMOOTH",
"333 123 OFFCURVE",
"363 160 OFFCURVE",
"357 160 CURVE SMOOTH"
);
},
{
closed = 1;
nodes = (
"353 280 OFFCURVE",
"288 277 OFFCURVE",
"233 277 CURVE SMOOTH",
"194 278 OFFCURVE",
"144 278 OFFCURVE",
"121 282 CURVE SMOOTH",
"110 284 OFFCURVE",
"80 245 OFFCURVE",
"86 246 CURVE SMOOTH",
"133 250 OFFCURVE",
"183 250 OFFCURVE",
"231 250 CURVE SMOOTH",
"271 250 OFFCURVE",
"322 247 OFFCURVE",
"347 245 CURVE SMOOTH",
"358 244 OFFCURVE",
"388 281 OFFCURVE",
"382 281 CURVE SMOOTH"
);
}
);
width = 344;
}
);
note = equal;
unicode = 003D;
},
{
glyphname = greater;
layers = (
{
hints = (
{
horizontal = 1;
place = "{65, 304}";
type = Stem;
},
{
place = "{39, 213}";
type = Stem;
}
);
layerId = "A626400C-4409-4FF6-B7A4-72C4E5A5721C";
paths = (
{
closed = 1;
nodes = (
"300 217 LINE",
"238 261 OFFCURVE",
"182 313 OFFCURVE",
"132 369 CURVE",
"129 362 OFFCURVE",
"127 353 OFFCURVE",
"128 346 CURVE",
"139 317 OFFCURVE",
"218 243 OFFCURVE",
"241 225 CURVE SMOOTH",
"245 222 OFFCURVE",
"243 219 OFFCURVE",
"240 217 CURVE SMOOTH",
"208 200 OFFCURVE",
"164 175 OFFCURVE",
"130 150 CURVE SMOOTH",
"116 140 OFFCURVE",
"55 100 OFFCURVE",
"63 82 CURVE",
"65 79 OFFCURVE",
"80 59 OFFCURVE",
"80 52 CURVE",
"86 52 LINE",
"90 65 OFFCURVE",
"102 74 OFFCURVE",
"112 82 CURVE SMOOTH",
"164 128 OFFCURVE",
"242 176 OFFCURVE",
"298 200 CURVE"
);
}
);
width = 293;
}
);
note = greater;
unicode = 003E;
},
{
glyphname = question;
layers = (
{
hints = (
{
horizontal = 1;
place = "{-6, 20}";
type = Stem;
},
{
horizontal = 1;
place = "{546, 24}";
type = Stem;
},
{
place = "{156, 25}";
type = Stem;
},
{
place = "{416, 65}";
type = Stem;
}
);
layerId = "A626400C-4409-4FF6-B7A4-72C4E5A5721C";
paths = (
{
closed = 1;
nodes = (
"493 548 OFFCURVE",
"440 578 OFFCURVE",
"345 570 CURVE SMOOTH",
"317 568 LINE SMOOTH",
"286 566 OFFCURVE",
"240 558 OFFCURVE",
"224 550 CURVE SMOOTH",
"216 546 OFFCURVE",
"202 537 OFFCURVE",
"202 524 CURVE SMOOTH",
"203 508 OFFCURVE",
"191 450 OFFCURVE",
"184 420 CURVE SMOOTH",
"182 407 OFFCURVE",
"204 417 OFFCURVE",
"204 429 CURVE",
"212 462 OFFCURVE",
"240 510 OFFCURVE",
"259 523 CURVE SMOOTH",
"291 546 OFFCURVE",
"347 553 OFFCURVE",
"378 539 CURVE SMOOTH",
"429 517 OFFCURVE",
"429 447 OFFCURVE",
"376 404 CURVE SMOOTH",
"210 272 LINE SMOOTH",
"182 250 OFFCURVE",
"153 213 OFFCURVE",
"155 176 CURVE SMOOTH",
"157 151 OFFCURVE",
"165 131 OFFCURVE",
"180 115 CURVE",
"191 130 LINE",
"171 153 OFFCURVE",
"182 193 OFFCURVE",
"210 236 CURVE SMOOTH",
"275 337 OFFCURVE",
"454 331 OFFCURVE",
"478 465 CURVE SMOOTH"
);
},
{
closed = 1;
nodes = (
"136 44 OFFCURVE",
"98 19 OFFCURVE",
"101 16 CURVE SMOOTH",
"109 6 OFFCURVE",
"122 -5 OFFCURVE",
"137 -6 CURVE SMOOTH",
"148 -7 OFFCURVE",
"162 7 OFFCURVE",
"174 17 CURVE SMOOTH",
"185 27 OFFCURVE",
"182 32 OFFCURVE",
"172 30 CURVE SMOOTH",
"160 28 OFFCURVE",
"149 36 OFFCURVE",
"139 42 CURVE SMOOTH"
);
}
);
width = 434;
}
);
note = question;
unicode = 003F;
},
{
glyphname = at;
layers = (
{
hints = (
{
horizontal = 1;
place = "{-10, 18}";
type = Stem;
},
{
horizontal = 1;
place = "{119, 29}";
type = Stem;
},
{
horizontal = 1;
place = "{383, 12}";
type = Stem;
},
{
place = "{20, 53}";
type = Stem;
},
{
place = "{328, 52}";
type = Stem;
},
{
place = "{621, 58}";
type = Stem;
}
);
layerId = "A626400C-4409-4FF6-B7A4-72C4E5A5721C";
paths = (
{
closed = 1;
nodes = (
"422 322 OFFCURVE",
"284 154 OFFCURVE",
"244 154 CURVE SMOOTH",
"237 154 OFFCURVE",
"235 160 OFFCURVE",
"235 166 CURVE SMOOTH",
"235 208 OFFCURVE",
"304 319 OFFCURVE",
"335 348 CURVE SMOOTH",
"350 362 OFFCURVE",
"377 383 OFFCURVE",
"398 383 CURVE SMOOTH",
"411 383 OFFCURVE",
"422 378 OFFCURVE",
"422 364 CURVE SMOOTH"
);
},
{
closed = 1;
nodes = (
"382 202 OFFCURVE",
"450 320 OFFCURVE",
"469 351 CURVE SMOOTH",
"476 361 OFFCURVE",
"490 383 OFFCURVE",
"505 383 CURVE SMOOTH",
"509 383 OFFCURVE",
"514 387 OFFCURVE",
"514 391 CURVE SMOOTH",
"514 394 OFFCURVE",
"511 395 OFFCURVE",
"509 395 CURVE SMOOTH",
"394 396 LINE SMOOTH",
"367 396 OFFCURVE",
"341 386 OFFCURVE",
"319 370 CURVE SMOOTH",
"258 322 OFFCURVE",
"195 227 OFFCURVE",
"185 150 CURVE",
"185 142 LINE SMOOTH",
"185 130 OFFCURVE",
"189 121 OFFCURVE",
"203 121 CURVE SMOOTH",
"238 121 OFFCURVE",
"268 143 OFFCURVE",
"293 165 CURVE SMOOTH",
"319 186 OFFCURVE",
"344 210 OFFCURVE",
"367 235 CURVE",
"353 212 OFFCURVE",
"328 165 OFFCURVE",
"328 139 CURVE SMOOTH",
"328 124 OFFCURVE",
"338 119 OFFCURVE",
"352 119 CURVE SMOOTH",
"522 119 OFFCURVE",
"670 184 OFFCURVE",
"681 343 CURVE SMOOTH",
"690 474 OFFCURVE",
"554 528 OFFCURVE",
"417 530 CURVE SMOOTH",
"216 533 OFFCURVE",
"20 401 OFFCURVE",
"18 186 CURVE SMOOTH",
"18 40 OFFCURVE",
"143 -13 OFFCURVE",
"267 -13 CURVE SMOOTH",
"380 -13 OFFCURVE",
"462 2 OFFCURVE",
"544 76 CURVE SMOOTH",
"573 101 OFFCURVE",
"561 138 OFFCURVE",
"532 108 CURVE SMOOTH",
"462 33 OFFCURVE",
"369 2 OFFCURVE",
"267 2 CURVE SMOOTH",
"157 2 OFFCURVE",
"71 77 OFFCURVE",
"71 186 CURVE SMOOTH",
"73 371 OFFCURVE",
"243 507 OFFCURVE",
"415 507 CURVE SMOOTH",
"521 508 OFFCURVE",
"624 465 OFFCURVE",
"624 351 CURVE SMOOTH",
"624 163 OFFCURVE",
"377 108 OFFCURVE",
"380 162 CURVE SMOOTH"
);
}
);
width = 694;
}
);
note = at;
unicode = 0040;
},
{
glyphname = A;
layers = (
{
hints = (
{
horizontal = 1;
place = "{-136, 22}";
type = Stem;
},
{
horizontal = 1;
place = "{180, 32}";
type = Stem;
},
{
horizontal = 1;
place = "{583, 18}";
type = Stem;
}
);
layerId = "A626400C-4409-4FF6-B7A4-72C4E5A5721C";
paths = (
{
closed = 1;
nodes = (
"656 265 OFFCURVE",
"628 261 OFFCURVE",
"607 261 CURVE SMOOTH",
"576 261 OFFCURVE",
"545 262 OFFCURVE",
"515 263 CURVE",
"577 330 OFFCURVE",
"632 394 OFFCURVE",
"674 437 CURVE SMOOTH",
"726 490 OFFCURVE",
"799 529 OFFCURVE",
"831 530 CURVE",
"789 473 OFFCURVE",
"685 282 OFFCURVE",
"631 168 CURVE SMOOTH",
"616 136 OFFCURVE",
"592 74 OFFCURVE",
"600 33 CURVE SMOOTH",
"609 -14 OFFCURVE",
"656 -15 OFFCURVE",
"690 0 CURVE SMOOTH",
"747 25 OFFCURVE",
"800 102 OFFCURVE",
"815 122 CURVE SMOOTH",
"823 133 OFFCURVE",
"814 140 OFFCURVE",
"807 130 CURVE SMOOTH",
"802 123 OFFCURVE",
"776 86 OFFCURVE",
"741 53 CURVE SMOOTH",
"723 36 OFFCURVE",
"704 22 OFFCURVE",
"687 15 CURVE SMOOTH",
"609 -16 OFFCURVE",
"678 139 OFFCURVE",
"686 158 CURVE SMOOTH",
"742 283 OFFCURVE",
"859 492 OFFCURVE",
"905 538 CURVE SMOOTH",
"937 571 OFFCURVE",
"947 561 OFFCURVE",
"968 564 CURVE SMOOTH",
"981 567 OFFCURVE",
"967 577 OFFCURVE",
"957 577 CURVE SMOOTH",
"930 577 OFFCURVE",
"890 559 OFFCURVE",
"857 544 CURVE",
"858 545 OFFCURVE",
"857 545 OFFCURVE",
"856 545 CURVE SMOOTH",
"807 545 OFFCURVE",
"763 545 OFFCURVE",
"747 545 CURVE SMOOTH",
"667 545 OFFCURVE",
"477 547 OFFCURVE",
"462 443 CURVE SMOOTH",
"459 425 OFFCURVE",
"472 389 OFFCURVE",
"485 380 CURVE SMOOTH",
"490 377 OFFCURVE",
"506 386 OFFCURVE",
"501 389 CURVE SMOOTH",
"481 402 OFFCURVE",
"487 446 OFFCURVE",
"520 475 CURVE SMOOTH",
"567 515 OFFCURVE",
"662 521 OFFCURVE",
"733 521 CURVE SMOOTH",
"788 521 LINE",
"733 506 OFFCURVE",
"680 469 OFFCURVE",
"633 420 CURVE SMOOTH",
"599 384 OFFCURVE",
"544 326 OFFCURVE",
"481 265 CURVE",
"440 267 OFFCURVE",
"404 268 OFFCURVE",
"379 268 CURVE SMOOTH",
"331 268 OFFCURVE",
"284 255 OFFCURVE",
"240 236 CURVE SMOOTH",
"208 222 OFFCURVE",
"160 207 OFFCURVE",
"169 167 CURVE SMOOTH",
"173 152 OFFCURVE",
"192 153 OFFCURVE",
"197 151 CURVE",
"190 172 OFFCURVE",
"201 202 OFFCURVE",
"213 214 CURVE SMOOTH",
"235 236 OFFCURVE",
"284 239 OFFCURVE",
"314 239 CURVE SMOOTH",
"348 239 OFFCURVE",
"395 235 OFFCURVE",
"447 233 CURVE",
"330 124 OFFCURVE",
"193 17 OFFCURVE",
"96 17 CURVE SMOOTH",
"48 17 OFFCURVE",
"22 46 OFFCURVE",
"53 109 CURVE SMOOTH",
"57 117 OFFCURVE",
"51 125 OFFCURVE",
"40 103 CURVE SMOOTH",
"31 84 OFFCURVE",
"22 64 OFFCURVE",
"21 47 CURVE SMOOTH",
"16 -1 OFFCURVE",
"46 -25 OFFCURVE",
"87 -25 CURVE SMOOTH",
"214 -25 OFFCURVE",
"360 103 OFFCURVE",
"484 231 CURVE",
"529 229 OFFCURVE",
"576 229 OFFCURVE",
"622 232 CURVE SMOOTH",
"663 235 OFFCURVE",
"679 276 OFFCURVE",
"679 276 CURVE"
);
}
);
width = 768;
}
);
note = A;
unicode = 0041;
},
{
glyphname = B;
layers = (
{
hints = (
{
horizontal = 1;
place = "{565, 16}";
type = Stem;
},
{
place = "{36, 35}";
type = Stem;
}
);
layerId = "A626400C-4409-4FF6-B7A4-72C4E5A5721C";
paths = (
{
closed = 1;
nodes = (
"538 552 OFFCURVE",
"438 546 OFFCURVE",
"383 545 CURVE SMOOTH",
"336 545 OFFCURVE",
"276 544 OFFCURVE",
"234 544 CURVE SMOOTH",
"178 544 OFFCURVE",
"41 546 OFFCURVE",
"67 451 CURVE SMOOTH",
"71 434 OFFCURVE",
"93 401 OFFCURVE",
"105 394 CURVE SMOOTH",
"110 391 OFFCURVE",
"119 399 OFFCURVE",
"114 401 CURVE",
"95 413 OFFCURVE",
"94 444 OFFCURVE",
"108 470 CURVE SMOOTH",
"135 520 OFFCURVE",
"290 535 OFFCURVE",
"367 531 CURVE",
"344 523 OFFCURVE",
"317 508 OFFCURVE",
"308 491 CURVE SMOOTH",
"295 468 OFFCURVE",
"271 412 OFFCURVE",
"240 357 CURVE SMOOTH",
"208 298 OFFCURVE",
"176 239 OFFCURVE",
"144 180 CURVE SMOOTH",
"119 132 OFFCURVE",
"92 85 OFFCURVE",
"64 38 CURVE SMOOTH",
"50 13 OFFCURVE",
"29 -5 OFFCURVE",
"0 -10 CURVE",
"-6 -14 OFFCURVE",
"4 -21 OFFCURVE",
"17 -18 CURVE",
"43 -9 OFFCURVE",
"65 9 OFFCURVE",
"79 15 CURVE SMOOTH",
"107 29 OFFCURVE",
"121 23 OFFCURVE",
"138 14 CURVE SMOOTH",
"182 -9 OFFCURVE",
"239 -17 OFFCURVE",
"288 -17 CURVE SMOOTH",
"329 -17 OFFCURVE",
"366 -11 OFFCURVE",
"398 1 CURVE SMOOTH",
"474 29 OFFCURVE",
"551 94 OFFCURVE",
"551 181 CURVE SMOOTH",
"551 231 OFFCURVE",
"515 261 OFFCURVE",
"469 271 CURVE SMOOTH",
"455 274 OFFCURVE",
"435 276 OFFCURVE",
"429 277 CURVE SMOOTH",
"426 277 OFFCURVE",
"427 283 OFFCURVE",
"429 283 CURVE",
"461 290 OFFCURVE",
"483 301 OFFCURVE",
"503 315 CURVE SMOOTH",
"523 328 OFFCURVE",
"539 343 OFFCURVE",
"551 358 CURVE SMOOTH",
"579 394 OFFCURVE",
"600 455 OFFCURVE",
"572 499 CURVE SMOOTH"
);
},
{
closed = 1;
nodes = (
"486 300 OFFCURVE",
"420 292 OFFCURVE",
"322 292 CURVE SMOOTH",
"317 292 OFFCURVE",
"306 284 OFFCURVE",
"303 281 CURVE SMOOTH",
"292 272 OFFCURVE",
"266 253 OFFCURVE",
"275 250 CURVE",
"289 254 OFFCURVE",
"307 258 OFFCURVE",
"325 261 CURVE SMOOTH",
"381 272 OFFCURVE",
"493 281 OFFCURVE",
"493 196 CURVE SMOOTH",
"493 108 OFFCURVE",
"428 44 OFFCURVE",
"355 16 CURVE SMOOTH",
"302 -4 OFFCURVE",
"220 -15 OFFCURVE",
"171 21 CURVE SMOOTH",
"148 38 OFFCURVE",
"139 56 OFFCURVE",
"152 83 CURVE SMOOTH",
"183 145 OFFCURVE",
"215 207 OFFCURVE",
"246 267 CURVE SMOOTH",
"284 341 OFFCURVE",
"327 439 OFFCURVE",
"378 505 CURVE SMOOTH",
"397 529 OFFCURVE",
"448 531 OFFCURVE",
"472 528 CURVE SMOOTH",
"530 520 OFFCURVE",
"543 459 OFFCURVE",
"522 401 CURVE SMOOTH"
);
}
);
width = 562;
}
);
note = B;
unicode = 0042;
},
{
glyphname = C;
layers = (
{
hints = (
{
horizontal = 1;
place = "{568, 18}";
type = Stem;
}
);
layerId = "A626400C-4409-4FF6-B7A4-72C4E5A5721C";
paths = (
{
closed = 1;
nodes = (
"592 496 OFFCURVE",
"573 517 OFFCURVE",
"543 531 CURVE SMOOTH",
"512 546 OFFCURVE",
"484 549 OFFCURVE",
"451 549 CURVE SMOOTH",
"371 549 OFFCURVE",
"285 516 OFFCURVE",
"224 470 CURVE SMOOTH",
"120 391 OFFCURVE",
"38 265 OFFCURVE",
"38 135 CURVE SMOOTH",
"38 -56 OFFCURVE",
"288 -49 OFFCURVE",
"412 2 CURVE SMOOTH",
"477 29 OFFCURVE",
"535 69 OFFCURVE",
"581 130 CURVE SMOOTH",
"595 149 OFFCURVE",
"589 160 OFFCURVE",
"579 148 CURVE SMOOTH",
"530 87 OFFCURVE",
"474 51 OFFCURVE",
"404 24 CURVE SMOOTH",
"292 -19 OFFCURVE",
"97 -32 OFFCURVE",
"97 137 CURVE SMOOTH",
"97 240 OFFCURVE",
"165 369 OFFCURVE",
"259 452 CURVE SMOOTH",
"293 481 OFFCURVE",
"331 504 OFFCURVE",
"370 518 CURVE SMOOTH",
"415 535 OFFCURVE",
"504 549 OFFCURVE",
"532 502 CURVE SMOOTH",
"551 472 OFFCURVE",
"544 413 OFFCURVE",
"526 384 CURVE SMOOTH",
"523 378 OFFCURVE",
"543 383 OFFCURVE",
"545 389 CURVE SMOOTH",
"555 418 OFFCURVE",
"581 447 OFFCURVE",
"586 468 CURVE SMOOTH"
);
}
);
width = 527;
}
);
note = C;
unicode = 0043;
},
{
glyphname = D;
layers = (
{
hints = (
{
horizontal = 1;
place = "{-2, 18}";
type = Stem;
},
{
horizontal = 1;
place = "{514, 18}";
type = Stem;
}
);
layerId = "A626400C-4409-4FF6-B7A4-72C4E5A5721C";
paths = (
{
closed = 1;
nodes = (
"684 523 OFFCURVE",
"551 549 OFFCURVE",
"427 549 CURVE SMOOTH",
"361 549 OFFCURVE",
"295 544 OFFCURVE",
"228 544 CURVE SMOOTH",
"179 544 OFFCURVE",
"64 544 OFFCURVE",
"64 473 CURVE SMOOTH",
"64 465 OFFCURVE",
"65 458 OFFCURVE",
"67 451 CURVE SMOOTH",
"70 440 OFFCURVE",
"96 393 OFFCURVE",
"108 393 CURVE SMOOTH",
"111 393 OFFCURVE",
"116 396 OFFCURVE",
"116 399 CURVE SMOOTH",
"116 402 OFFCURVE",
"98 408 OFFCURVE",
"98 435 CURVE SMOOTH",
"98 447 OFFCURVE",
"102 459 OFFCURVE",
"108 470 CURVE SMOOTH",
"136 522 OFFCURVE",
"290 531 OFFCURVE",
"343 531 CURVE SMOOTH",
"351 531 OFFCURVE",
"359 531 OFFCURVE",
"367 531 CURVE",
"346 524 OFFCURVE",
"319 510 OFFCURVE",
"308 491 CURVE SMOOTH",
"299 476 OFFCURVE",
"292 460 OFFCURVE",
"285 444 CURVE SMOOTH",
"270 415 OFFCURVE",
"256 385 OFFCURVE",
"240 357 CURVE SMOOTH",
"182 250 OFFCURVE",
"127 142 OFFCURVE",
"64 38 CURVE SMOOTH",
"52 17 OFFCURVE",
"36 1 OFFCURVE",
"13 -7 CURVE SMOOTH",
"0 -11 OFFCURVE",
"13 -6 OFFCURVE",
"0 -10 CURVE",
"0 -10 OFFCURVE",
"-2 -12 OFFCURVE",
"-2 -13 CURVE SMOOTH",
"-2 -17 OFFCURVE",
"7 -19 OFFCURVE",
"10 -19 CURVE SMOOTH",
"39 -19 OFFCURVE",
"73 23 OFFCURVE",
"108 23 CURVE SMOOTH",
"119 23 OFFCURVE",
"128 19 OFFCURVE",
"138 14 CURVE SMOOTH",
"179 -7 OFFCURVE",
"228 -16 OFFCURVE",
"274 -16 CURVE SMOOTH",
"422 -16 OFFCURVE",
"534 44 OFFCURVE",
"616 167 CURVE SMOOTH",
"654 224 OFFCURVE",
"684 302 OFFCURVE",
"684 371 CURVE SMOOTH"
);
},
{
closed = 1;
nodes = (
"623 319 OFFCURVE",
"610 272 OFFCURVE",
"593 229 CURVE SMOOTH",
"537 92 OFFCURVE",
"412 -2 OFFCURVE",
"262 -2 CURVE SMOOTH",
"232 -2 OFFCURVE",
"196 2 OFFCURVE",
"171 21 CURVE SMOOTH",
"159 31 OFFCURVE",
"146 43 OFFCURVE",
"146 60 CURVE SMOOTH",
"146 69 OFFCURVE",
"149 76 OFFCURVE",
"152 83 CURVE SMOOTH",
"161 102 OFFCURVE",
"171 121 OFFCURVE",
"181 140 CURVE SMOOTH",
"202 182 OFFCURVE",
"224 225 OFFCURVE",
"246 267 CURVE SMOOTH",
"274 322 OFFCURVE",
"300 379 OFFCURVE",
"331 433 CURVE SMOOTH",
"345 457 OFFCURVE",
"360 484 OFFCURVE",
"378 505 CURVE SMOOTH",
"395 525 OFFCURVE",
"426 528 OFFCURVE",
"451 528 CURVE SMOOTH",
"553 528 OFFCURVE",
"623 469 OFFCURVE",
"623 365 CURVE SMOOTH"
);
}
);
width = 626;
}
);
note = D;
unicode = 0044;
},
{
glyphname = E;
layers = (
{
hints = (
{
horizontal = 1;
place = "{272, 21}";
target = up;
type = BottomGhost;
},
{
horizontal = 1;
place = "{471, 27}";
type = Stem;
},
{
horizontal = 1;
place = "{573, 18}";
type = Stem;
}
);
layerId = "A626400C-4409-4FF6-B7A4-72C4E5A5721C";
paths = (
{
closed = 1;
nodes = (
"572 478 OFFCURVE",
"614 541 OFFCURVE",
"537 545 CURVE SMOOTH",
"440 551 OFFCURVE",
"342 544 OFFCURVE",
"245 544 CURVE SMOOTH",
"188 544 OFFCURVE",
"52 546 OFFCURVE",
"78 451 CURVE SMOOTH",
"82 434 OFFCURVE",
"104 401 OFFCURVE",
"116 394 CURVE SMOOTH",
"121 391 OFFCURVE",
"129 399 OFFCURVE",
"125 401 CURVE SMOOTH",
"106 413 OFFCURVE",
"105 444 OFFCURVE",
"119 470 CURVE SMOOTH",
"147 523 OFFCURVE",
"279 526 OFFCURVE",
"336 529 CURVE",
"312 523 OFFCURVE",
"287 501 OFFCURVE",
"275 482 CURVE SMOOTH",
"249 442 OFFCURVE",
"222 393 OFFCURVE",
"206 364 CURVE SMOOTH",
"154 272 OFFCURVE",
"100 181 OFFCURVE",
"49 89 CURVE SMOOTH",
"15 27 OFFCURVE",
"38 1 OFFCURVE",
"104 -5 CURVE SMOOTH",
"221 -18 OFFCURVE",
"362 -10 OFFCURVE",
"406 3 CURVE SMOOTH",
"445 15 OFFCURVE",
"483 70 OFFCURVE",
"524 121 CURVE SMOOTH",
"528 126 OFFCURVE",
"523 140 OFFCURVE",
"518 133 CURVE SMOOTH",
"444 39 OFFCURVE",
"326 8 OFFCURVE",
"211 8 CURVE SMOOTH",
"155 9 OFFCURVE",
"111 22 OFFCURVE",
"111 63 CURVE SMOOTH",
"111 99 OFFCURVE",
"144 161 OFFCURVE",
"160 192 CURVE SMOOTH",
"175 219 OFFCURVE",
"183 236 OFFCURVE",
"196 260 CURVE SMOOTH",
"199 265 OFFCURVE",
"203 267 OFFCURVE",
"210 268 CURVE",
"293 271 OFFCURVE",
"329 265 OFFCURVE",
"412 265 CURVE SMOOTH",
"448 265 OFFCURVE",
"475 322 OFFCURVE",
"452 308 CURVE SMOOTH",
"435 299 OFFCURVE",
"390 296 OFFCURVE",
"377 295 CURVE SMOOTH",
"336 294 OFFCURVE",
"276 296 OFFCURVE",
"230 296 CURVE SMOOTH",
"222 296 OFFCURVE",
"219 299 OFFCURVE",
"222 307 CURVE",
"259 371 OFFCURVE",
"300 446 OFFCURVE",
"344 508 CURVE SMOOTH",
"354 521 OFFCURVE",
"369 527 OFFCURVE",
"398 529 CURVE SMOOTH",
"439 531 OFFCURVE",
"487 532 OFFCURVE",
"505 526 CURVE SMOOTH",
"543 514 OFFCURVE",
"539 467 OFFCURVE",
"531 433 CURVE SMOOTH",
"528 421 OFFCURVE",
"545 428 OFFCURVE",
"551 439 CURVE SMOOTH"
);
}
);
width = 478;
}
);
note = E;
unicode = 0045;
},
{
glyphname = F;
layers = (
{
hints = (
{
horizontal = 1;
place = "{205, 29}";
type = Stem;
},
{
horizontal = 1;
place = "{537, 15}";
type = Stem;
}
);
layerId = "A626400C-4409-4FF6-B7A4-72C4E5A5721C";
paths = (
{
closed = 1;
nodes = (
"775 478 OFFCURVE",
"816 541 OFFCURVE",
"739 545 CURVE SMOOTH",
"643 551 OFFCURVE",
"573 548 OFFCURVE",
"437 548 CURVE SMOOTH",
"358 548 OFFCURVE",
"161 547 OFFCURVE",
"198 443 CURVE SMOOTH",
"204 425 OFFCURVE",
"234 389 OFFCURVE",
"251 380 CURVE SMOOTH",
"258 377 OFFCURVE",
"270 386 OFFCURVE",
"264 389 CURVE SMOOTH",
"237 402 OFFCURVE",
"224 439 OFFCURVE",
"243 468 CURVE SMOOTH",
"269 506 OFFCURVE",
"355 522 OFFCURVE",
"432 527 CURVE SMOOTH",
"462 529 OFFCURVE",
"535 532 OFFCURVE",
"549 532 CURVE",
"524 522 OFFCURVE",
"481 499 OFFCURVE",
"460 458 CURVE SMOOTH",
"404 348 OFFCURVE",
"306 130 OFFCURVE",
"253 72 CURVE SMOOTH",
"215 31 OFFCURVE",
"171 0 OFFCURVE",
"124 0 CURVE SMOOTH",
"77 0 OFFCURVE",
"42 33 OFFCURVE",
"42 96 CURVE SMOOTH",
"42 104 OFFCURVE",
"43 112 OFFCURVE",
"43 120 CURVE SMOOTH",
"43 122 OFFCURVE",
"42 122 OFFCURVE",
"41 122 CURVE SMOOTH",
"29 122 OFFCURVE",
"32 100 OFFCURVE",
"32 90 CURVE SMOOTH",
"32 71 OFFCURVE",
"33 50 OFFCURVE",
"40 33 CURVE SMOOTH",
"58 -15 OFFCURVE",
"100 -38 OFFCURVE",
"141 -38 CURVE SMOOTH",
"187 -38 OFFCURVE",
"233 -13 OFFCURVE",
"267 23 CURVE SMOOTH",
"326 86 OFFCURVE",
"368 182 OFFCURVE",
"407 260 CURVE SMOOTH",
"410 265 OFFCURVE",
"414 268 OFFCURVE",
"421 268 CURVE SMOOTH",
"577 268 LINE SMOOTH",
"602 268 OFFCURVE",
"587 227 OFFCURVE",
"578 206 CURVE SMOOTH",
"575 200 OFFCURVE",
"591 206 OFFCURVE",
"593 212 CURVE SMOOTH",
"599 228 OFFCURVE",
"612 242 OFFCURVE",
"622 263 CURVE SMOOTH",
"637 292 OFFCURVE",
"617 295 OFFCURVE",
"579 295 CURVE SMOOTH",
"539 295 OFFCURVE",
"465 296 OFFCURVE",
"438 296 CURVE SMOOTH",
"429 296 OFFCURVE",
"427 299 OFFCURVE",
"430 307 CURVE SMOOTH",
"459 369 OFFCURVE",
"505 476 OFFCURVE",
"547 508 CURVE SMOOTH",
"582 534 OFFCURVE",
"669 539 OFFCURVE",
"708 526 CURVE SMOOTH",
"745 514 OFFCURVE",
"742 467 OFFCURVE",
"733 433 CURVE SMOOTH",
"730 421 OFFCURVE",
"748 428 OFFCURVE",
"753 439 CURVE SMOOTH"
);
}
);
width = 582;
}
);
note = F;
unicode = 0046;
},
{
glyphname = G;
layers = (
{
hints = (
{
horizontal = 1;
place = "{208, 15}";
type = Stem;
},
{
horizontal = 1;
place = "{467, 16}";
type = Stem;
}
);
layerId = "A626400C-4409-4FF6-B7A4-72C4E5A5721C";
paths = (
{
closed = 1;
nodes = (
"655 273 LINE",
"465 273 LINE SMOOTH",
"430 273 OFFCURVE",
"341 285 OFFCURVE",
"310 258 CURVE SMOOTH",
"295 245 OFFCURVE",
"295 225 OFFCURVE",
"296 214 CURVE SMOOTH",
"297 202 OFFCURVE",
"313 180 OFFCURVE",
"323 163 CURVE",
"332 169 LINE",
"330 173 OFFCURVE",
"327 182 OFFCURVE",
"327 191 CURVE SMOOTH",
"322 251 OFFCURVE",
"423 254 OFFCURVE",
"455 254 CURVE SMOOTH",
"558 254 LINE",
"511 113 OFFCURVE",
"406 -14 OFFCURVE",
"243 -13 CURVE SMOOTH",
"165 -13 OFFCURVE",
"97 32 OFFCURVE",
"97 137 CURVE SMOOTH",
"97 240 OFFCURVE",
"165 369 OFFCURVE",
"259 452 CURVE SMOOTH",
"293 481 OFFCURVE",
"331 504 OFFCURVE",
"370 518 CURVE SMOOTH",
"415 535 OFFCURVE",
"504 549 OFFCURVE",
"532 502 CURVE SMOOTH",
"551 472 OFFCURVE",
"544 413 OFFCURVE",
"526 384 CURVE SMOOTH",
"523 378 OFFCURVE",
"543 383 OFFCURVE",
"545 389 CURVE SMOOTH",
"555 418 OFFCURVE",
"581 447 OFFCURVE",
"586 468 CURVE SMOOTH",
"592 496 OFFCURVE",
"573 517 OFFCURVE",
"543 531 CURVE SMOOTH",
"512 546 OFFCURVE",
"484 549 OFFCURVE",
"451 549 CURVE SMOOTH",
"371 549 OFFCURVE",
"285 516 OFFCURVE",
"224 470 CURVE SMOOTH",
"120 391 OFFCURVE",
"38 265 OFFCURVE",
"38 135 CURVE SMOOTH",
"38 22 OFFCURVE",
"135 -33 OFFCURVE",
"243 -32 CURVE SMOOTH",
"342 -32 OFFCURVE",
"462 33 OFFCURVE",
"515 111 CURVE",
"472 2 OFFCURVE",
"443 -93 OFFCURVE",
"359 -196 CURVE SMOOTH",
"302 -268 OFFCURVE",
"231 -312 OFFCURVE",
"147 -312 CURVE SMOOTH",
"88 -312 OFFCURVE",
"44 -280 OFFCURVE",
"44 -218 CURVE SMOOTH",
"44 -209 OFFCURVE",
"46 -201 OFFCURVE",
"46 -193 CURVE SMOOTH",
"46 -191 OFFCURVE",
"45 -191 OFFCURVE",
"44 -191 CURVE SMOOTH",
"29 -191 OFFCURVE",
"32 -213 OFFCURVE",
"32 -223 CURVE SMOOTH",
"32 -242 OFFCURVE",
"33 -262 OFFCURVE",
"42 -279 CURVE SMOOTH",
"65 -327 OFFCURVE",
"127 -348 OFFCURVE",
"178 -348 CURVE SMOOTH",
"232 -348 OFFCURVE",
"304 -318 OFFCURVE",
"347 -282 CURVE SMOOTH",
"466 -179 OFFCURVE",
"487 -41 OFFCURVE",
"528 101 CURVE SMOOTH",
"544 153 OFFCURVE",
"556 200 OFFCURVE",
"585 238 CURVE SMOOTH",
"600 257 OFFCURVE",
"625 261 OFFCURVE",
"644 261 CURVE"
);
}
);
width = 576;
}
);
note = G;
unicode = 0047;
},
{
glyphname = H;
layers = (
{
hints = (
{
horizontal = 1;
place = "{203, 18}";
type = Stem;
},
{
horizontal = 1;
place = "{254, 27}";
type = Stem;
},
{
horizontal = 1;
place = "{526, 33}";
type = Stem;
},
{
place = "{303, 38}";
type = Stem;
}
);
layerId = "A626400C-4409-4FF6-B7A4-72C4E5A5721C";
paths = (
{
closed = 1;
nodes = (
"933 567 OFFCURVE",
"919 577 OFFCURVE",
"909 577 CURVE SMOOTH",
"874 577 OFFCURVE",
"823 548 OFFCURVE",
"789 534 CURVE",
"760 497 OFFCURVE",
"697 384 OFFCURVE",
"643 281 CURVE",
"625 273 OFFCURVE",
"584 269 OFFCURVE",
"572 269 CURVE SMOOTH",
"531 268 OFFCURVE",
"471 269 OFFCURVE",
"425 269 CURVE SMOOTH",
"422 269 OFFCURVE",
"404 270 OFFCURVE",
"379 271 CURVE",
"410 332 OFFCURVE",
"458 422 OFFCURVE",
"471 445 CURVE SMOOTH",
"500 496 OFFCURVE",
"537 530 OFFCURVE",
"578 534 CURVE SMOOTH",
"584 534 OFFCURVE",
"595 552 OFFCURVE",
"576 548 CURVE SMOOTH",
"539 542 OFFCURVE",
"460 544 OFFCURVE",
"363 544 CURVE SMOOTH",
"306 544 OFFCURVE",
"170 546 OFFCURVE",
"196 451 CURVE SMOOTH",
"200 434 OFFCURVE",
"222 401 OFFCURVE",
"234 394 CURVE SMOOTH",
"239 391 OFFCURVE",
"247 398 OFFCURVE",
"243 401 CURVE SMOOTH",
"228 412 OFFCURVE",
"223 444 OFFCURVE",
"237 470 CURVE SMOOTH",
"247 490 OFFCURVE",
"273 503 OFFCURVE",
"304 511 CURVE SMOOTH",
"372 530 OFFCURVE",
"450 526 OFFCURVE",
"521 529 CURVE",
"477 520 OFFCURVE",
"434 471 OFFCURVE",
"415 432 CURVE SMOOTH",
"391 384 OFFCURVE",
"363 326 OFFCURVE",
"334 273 CURVE",
"300 274 OFFCURVE",
"264 275 OFFCURVE",
"241 276 CURVE",
"220 274 OFFCURVE",
"163 228 OFFCURVE",
"187 232 CURVE SMOOTH",
"225 238 OFFCURVE",
"275 240 OFFCURVE",
"318 241 CURVE",
"286 179 OFFCURVE",
"256 123 OFFCURVE",
"226 90 CURVE SMOOTH",
"188 49 OFFCURVE",
"144 19 OFFCURVE",
"97 19 CURVE SMOOTH",
"50 19 OFFCURVE",
"15 51 OFFCURVE",
"15 114 CURVE SMOOTH",
"15 122 OFFCURVE",
"16 130 OFFCURVE",
"16 138 CURVE SMOOTH",
"16 140 OFFCURVE",
"15 140 OFFCURVE",
"14 140 CURVE SMOOTH",
"2 140 OFFCURVE",
"5 118 OFFCURVE",
"5 108 CURVE SMOOTH",
"5 89 OFFCURVE",
"6 68 OFFCURVE",
"13 51 CURVE SMOOTH",
"31 4 OFFCURVE",
"73 -20 OFFCURVE",
"114 -20 CURVE SMOOTH",
"160 -20 OFFCURVE",
"210 5 OFFCURVE",
"244 41 CURVE SMOOTH",
"287 87 OFFCURVE",
"326 166 OFFCURVE",
"364 242 CURVE",
"388 242 OFFCURVE",
"405 242 OFFCURVE",
"412 242 CURVE SMOOTH",
"495 242 OFFCURVE",
"543 242 OFFCURVE",
"584 238 CURVE SMOOTH",
"600 237 OFFCURVE",
"619 248 OFFCURVE",
"632 260 CURVE",
"597 191 OFFCURVE",
"568 130 OFFCURVE",
"556 99 CURVE SMOOTH",
"535 40 OFFCURVE",
"575 -12 OFFCURVE",
"629 -10 CURVE SMOOTH",
"654 -9 OFFCURVE",
"679 -4 OFFCURVE",
"699 7 CURVE SMOOTH",
"754 37 OFFCURVE",
"796 92 OFFCURVE",
"821 128 CURVE SMOOTH",
"826 136 OFFCURVE",
"825 153 OFFCURVE",
"817 142 CURVE SMOOTH",
"793 110 OFFCURVE",
"753 56 OFFCURVE",
"705 29 CURVE SMOOTH",
"688 20 OFFCURVE",
"664 10 OFFCURVE",
"643 10 CURVE SMOOTH",
"598 10 OFFCURVE",
"602 51 OFFCURVE",
"609 82 CURVE SMOOTH",
"629 163 OFFCURVE",
"798 480 OFFCURVE",
"856 538 CURVE SMOOTH",
"888 571 OFFCURVE",
"899 561 OFFCURVE",
"920 564 CURVE SMOOTH"
);
}
);
width = 770;
}
);
note = H;
unicode = 0048;
},
{
glyphname = I;
layers = (
{
hints = (
{
horizontal = 1;
place = "{-10, 38}";
type = Stem;
},
{
horizontal = 1;
place = "{519, 26}";
type = Stem;
},
{
place = "{10, 11}";
type = Stem;
},
{
place = "{277, 38}";
type = Stem;
},
{
horizontal = 1;
place = "{519, 23}";
type = Stem;
}
);
layerId = "A626400C-4409-4FF6-B7A4-72C4E5A5721C";
paths = (
{
closed = 1;
nodes = (
"643 543 LINE",
"483 542 LINE SMOOTH",
"440 542 OFFCURVE",
"332 557 OFFCURVE",
"294 525 CURVE SMOOTH",
"276 509 OFFCURVE",
"276 484 OFFCURVE",
"277 471 CURVE SMOOTH",
"279 456 OFFCURVE",
"305 417 OFFCURVE",
"317 396 CURVE",
"327 404 LINE",
"325 408 OFFCURVE",
"316 431 OFFCURVE",
"315 442 CURVE SMOOTH",
"309 515 OFFCURVE",
"432 519 OFFCURVE",
"471 519 CURVE SMOOTH",
"501 519 LINE",
"468 497 OFFCURVE",
"440 460 OFFCURVE",
"421 420 CURVE SMOOTH",
"366 302 OFFCURVE",
"322 198 OFFCURVE",
"232 99 CURVE SMOOTH",
"194 58 OFFCURVE",
"150 28 OFFCURVE",
"103 28 CURVE SMOOTH",
"56 28 OFFCURVE",
"21 60 OFFCURVE",
"21 123 CURVE SMOOTH",
"21 131 OFFCURVE",
"10 139 OFFCURVE",
"10 117 CURVE SMOOTH",
"10 98 OFFCURVE",
"12 78 OFFCURVE",
"19 61 CURVE SMOOTH",
"37 13 OFFCURVE",
"79 -10 OFFCURVE",
"120 -10 CURVE SMOOTH",
"166 -10 OFFCURVE",
"223 19 OFFCURVE",
"256 55 CURVE SMOOTH",
"346 151 OFFCURVE",
"406 330 OFFCURVE",
"446 420 CURVE",
"449 425 OFFCURVE",
"452 430 OFFCURVE",
"455 435 CURVE SMOOTH",
"484 484 OFFCURVE",
"531 516 OFFCURVE",
"563 521 CURVE SMOOTH",
"589 526 OFFCURVE",
"617 528 OFFCURVE",
"630 528 CURVE"
);
}
);
width = 365;
}
);
note = I;
unicode = 0049;
},
{
glyphname = J;
layers = (
{
hints = (
{
horizontal = 1;
place = "{475, 25}";
type = Stem;
}
);
layerId = "A626400C-4409-4FF6-B7A4-72C4E5A5721C";
paths = (
{
closed = 1;
nodes = (
"366 545 OFFCURVE",
"322 545 OFFCURVE",
"306 545 CURVE SMOOTH",
"226 545 OFFCURVE",
"35 547 OFFCURVE",
"71 443 CURVE SMOOTH",
"77 425 OFFCURVE",
"108 389 OFFCURVE",
"125 380 CURVE SMOOTH",
"132 377 OFFCURVE",
"144 386 OFFCURVE",
"137 389 CURVE SMOOTH",
"110 402 OFFCURVE",
"94 446 OFFCURVE",
"114 475 CURVE SMOOTH",
"140 513 OFFCURVE",
"225 522 OFFCURVE",
"301 524 CURVE SMOOTH",
"312 524 OFFCURVE",
"331 527 OFFCURVE",
"353 528 CURVE",
"280 499 OFFCURVE",
"275 479 OFFCURVE",
"245 412 CURVE SMOOTH",
"211 339 OFFCURVE",
"169 228 OFFCURVE",
"154 195 CURVE SMOOTH",
"113 102 OFFCURVE",
"61 11 OFFCURVE",
"-1 -57 CURVE SMOOTH",
"-39 -98 OFFCURVE",
"-83 -128 OFFCURVE",
"-129 -128 CURVE SMOOTH",
"-177 -128 OFFCURVE",
"-212 -96 OFFCURVE",
"-212 -33 CURVE SMOOTH",
"-212 -25 OFFCURVE",
"-222 -17 OFFCURVE",
"-222 -39 CURVE SMOOTH",
"-222 -58 OFFCURVE",
"-221 -78 OFFCURVE",
"-214 -95 CURVE SMOOTH",
"-195 -143 OFFCURVE",
"-154 -167 OFFCURVE",
"-113 -167 CURVE SMOOTH",
"-67 -167 OFFCURVE",
"-10 -137 OFFCURVE",
"24 -101 CURVE SMOOTH",
"104 -15 OFFCURVE",
"137 74 OFFCURVE",
"189 195 CURVE SMOOTH",
"217 260 OFFCURVE",
"273 386 OFFCURVE",
"289 417 CURVE SMOOTH",
"309 458 OFFCURVE",
"345 527 OFFCURVE",
"401 530 CURVE SMOOTH",
"405 530 OFFCURVE",
"423 546 OFFCURVE",
"414 545 CURVE"
);
}
);
width = 203;
}
);
note = J;
unicode = 004A;
},
{
glyphname = K;
layers = (
{
hints = (
{
horizontal = 1;
place = "{253, 27}";
type = Stem;
},
{
horizontal = 1;
place = "{507, 15}";
type = Stem;
}
);
layerId = "A626400C-4409-4FF6-B7A4-72C4E5A5721C";
paths = (
{
closed = 1;
nodes = (
"796 514 OFFCURVE",
"773 528 OFFCURVE",
"760 532 CURVE SMOOTH",
"743 539 OFFCURVE",
"723 542 OFFCURVE",
"705 542 CURVE SMOOTH",
"683 542 OFFCURVE",
"662 537 OFFCURVE",
"641 528 CURVE SMOOTH",
"578 501 OFFCURVE",
"515 457 OFFCURVE",
"462 425 CURVE SMOOTH",
"383 376 OFFCURVE",
"303 323 OFFCURVE",
"228 254 CURVE",
"242 228 OFFCURVE",
"273 143 OFFCURVE",
"338 57 CURVE SMOOTH",
"431 -65 OFFCURVE",
"512 -10 OFFCURVE",
"608 124 CURVE SMOOTH",
"618 137 OFFCURVE",
"611 148 OFFCURVE",
"602 135 CURVE SMOOTH",
"544 58 OFFCURVE",
"469 -27 OFFCURVE",
"378 84 CURVE SMOOTH",
"316 159 OFFCURVE",
"278 242 OFFCURVE",
"267 272 CURVE",
"325 314 OFFCURVE",
"411 374 OFFCURVE",
"482 413 CURVE SMOOTH",
"534 442 OFFCURVE",
"595 469 OFFCURVE",
"649 492 CURVE SMOOTH",
"676 503 OFFCURVE",
"715 518 OFFCURVE",
"744 518 CURVE SMOOTH",
"777 518 OFFCURVE",
"780 494 OFFCURVE",
"790 494 CURVE SMOOTH",
"793 494 OFFCURVE",
"794 496 OFFCURVE",
"794 498 CURVE SMOOTH"
);
},
{
closed = 1;
nodes = (
"454 525 OFFCURVE",
"452 552 OFFCURVE",
"433 548 CURVE SMOOTH",
"396 542 OFFCURVE",
"327 544 OFFCURVE",
"310 544 CURVE SMOOTH",
"253 544 OFFCURVE",
"117 546 OFFCURVE",
"143 451 CURVE SMOOTH",
"147 434 OFFCURVE",
"169 401 OFFCURVE",
"181 394 CURVE SMOOTH",
"186 391 OFFCURVE",
"194 398 OFFCURVE",
"190 401 CURVE SMOOTH",
"175 412 OFFCURVE",
"170 444 OFFCURVE",
"183 470 CURVE SMOOTH",
"210 519 OFFCURVE",
"292 526 OFFCURVE",
"390 528 CURVE",
"357 519 OFFCURVE",
"309 488 OFFCURVE",
"273 425 CURVE",
"273 425 OFFCURVE",
"150 202 OFFCURVE",
"83 90 CURVE SMOOTH",
"69 66 LINE SMOOTH",
"46 28 OFFCURVE",
"29 8 OFFCURVE",
"-1 -16 CURVE SMOOTH",
"-5 -19 OFFCURVE",
"6 -24 OFFCURVE",
"10 -20 CURVE SMOOTH",
"25 -7 OFFCURVE",
"38 1 OFFCURVE",
"54 4 CURVE SMOOTH",
"65 6 OFFCURVE",
"80 5 OFFCURVE",
"89 3 CURVE SMOOTH",
"103 0 OFFCURVE",
"109 29 OFFCURVE",
"118 46 CURVE SMOOTH",
"160 130 OFFCURVE",
"202 209 OFFCURVE",
"238 276 CURVE SMOOTH",
"273 341 OFFCURVE",
"337 449 OFFCURVE",
"337 449 CURVE",
"372 510 OFFCURVE",
"409 536 OFFCURVE",
"440 528 CURVE SMOOTH"
);
}
);
width = 560;
}
);
note = K;
unicode = 004B;
},
{
glyphname = L;
layers = (
{
hints = (
{
horizontal = 1;
place = "{-4, 37}";
type = Stem;
},
{
horizontal = 1;
place = "{535, 11}";
type = Stem;
},
{
place = "{475, 41}";
type = Stem;
},
{
horizontal = 1;
place = "{16, 17}";
type = Stem;
},
{
place = "{506, 35}";
type = Stem;
}
);
layerId = "A626400C-4409-4FF6-B7A4-72C4E5A5721C";
paths = (
{
closed = 1;
nodes = (
"553 529 OFFCURVE",
"489 546 OFFCURVE",
"440 546 CURVE SMOOTH",
"321 546 OFFCURVE",
"274 449 OFFCURVE",
"236 355 CURVE SMOOTH",
"144 125 LINE SMOOTH",
"127 83 OFFCURVE",
"76 24 OFFCURVE",
"20 21 CURVE SMOOTH",
"-3 19 OFFCURVE",
"2 -13 OFFCURVE",
"8 -7 CURVE SMOOTH",
"22 6 OFFCURVE",
"53 18 OFFCURVE",
"81 16 CURVE SMOOTH",
"190 11 OFFCURVE",
"332 -4 OFFCURVE",
"445 -4 CURVE SMOOTH",
"501 -4 OFFCURVE",
"526 18 OFFCURVE",
"513 55 CURVE SMOOTH",
"507 73 OFFCURVE",
"471 118 OFFCURVE",
"454 126 CURVE SMOOTH",
"447 130 OFFCURVE",
"442 121 OFFCURVE",
"448 118 CURVE SMOOTH",
"476 105 OFFCURVE",
"484 79 OFFCURVE",
"465 51 CURVE SMOOTH",
"450 30 OFFCURVE",
"350 33 OFFCURVE",
"272 33 CURVE SMOOTH",
"211 33 OFFCURVE",
"85 33 OFFCURVE",
"85 33 CURVE",
"103 40 OFFCURVE",
"133 63 OFFCURVE",
"168 127 CURVE SMOOTH",
"353 468 LINE SMOOTH",
"379 517 OFFCURVE",
"418 535 OFFCURVE",
"453 535 CURVE SMOOTH",
"516 535 OFFCURVE",
"515 447 OFFCURVE",
"489 407 CURVE SMOOTH",
"483 396 OFFCURVE",
"498 395 OFFCURVE",
"501 405 CURVE SMOOTH",
"512 437 OFFCURVE",
"537 456 OFFCURVE",
"541 477 CURVE SMOOTH"
);
}
);
width = 547;
}
);
note = L;
unicode = 004C;
},
{
glyphname = M;
layers = (
{
hints = (
{
place = "{732, 39}";
type = Stem;
}
);
layerId = "A626400C-4409-4FF6-B7A4-72C4E5A5721C";
paths = (
{
closed = 1;
nodes = (
"529 545 OFFCURVE",
"485 545 OFFCURVE",
"469 545 CURVE SMOOTH",
"389 545 OFFCURVE",
"198 547 OFFCURVE",
"234 443 CURVE SMOOTH",
"240 425 OFFCURVE",
"271 389 OFFCURVE",
"288 380 CURVE SMOOTH",
"295 377 OFFCURVE",
"307 386 OFFCURVE",
"300 389 CURVE SMOOTH",
"273 402 OFFCURVE",
"257 446 OFFCURVE",
"277 475 CURVE SMOOTH",
"304 515 OFFCURVE",
"396 521 OFFCURVE",
"467 521 CURVE SMOOTH",
"522 521 LINE",
"521 520 LINE",
"473 506 OFFCURVE",
"439 468 OFFCURVE",
"417 420 CURVE SMOOTH",
"362 302 OFFCURVE",
"318 198 OFFCURVE",
"227 99 CURVE SMOOTH",
"190 58 OFFCURVE",
"145 28 OFFCURVE",
"99 28 CURVE SMOOTH",
"52 28 OFFCURVE",
"17 60 OFFCURVE",
"17 123 CURVE SMOOTH",
"17 131 OFFCURVE",
"6 139 OFFCURVE",
"6 117 CURVE SMOOTH",
"6 98 OFFCURVE",
"8 78 OFFCURVE",
"15 61 CURVE SMOOTH",
"33 13 OFFCURVE",
"75 -10 OFFCURVE",
"116 -10 CURVE SMOOTH",
"161 -10 OFFCURVE",
"219 19 OFFCURVE",
"252 55 CURVE SMOOTH",
"348 157 OFFCURVE",
"409 354 OFFCURVE",
"449 437 CURVE SMOOTH",
"463 466 OFFCURVE",
"486 491 OFFCURVE",
"509 508 CURVE",
"495 491 OFFCURVE",
"485 467 OFFCURVE",
"485 435 CURVE",
"485 435 OFFCURVE",
"485 280 OFFCURVE",
"480 168 CURVE SMOOTH",
"479 144 LINE SMOOTH",
"478 105 OFFCURVE",
"469 75 OFFCURVE",
"452 53 CURVE SMOOTH",
"450 50 OFFCURVE",
"461 46 OFFCURVE",
"463 49 CURVE SMOOTH",
"468 55 OFFCURVE",
"488 79 OFFCURVE",
"498 83 CURVE SMOOTH",
"515 90 OFFCURVE",
"522 100 OFFCURVE",
"524 111 CURVE",
"812 415 LINE",
"777 357 OFFCURVE",
"750 297 OFFCURVE",
"733 261 CURVE SMOOTH",
"706 204 OFFCURVE",
"645 93 OFFCURVE",
"657 33 CURVE SMOOTH",
"667 -14 OFFCURVE",
"717 -15 OFFCURVE",
"751 0 CURVE SMOOTH",
"808 25 OFFCURVE",
"861 102 OFFCURVE",
"877 122 CURVE SMOOTH",
"885 133 OFFCURVE",
"879 145 OFFCURVE",
"872 135 CURVE SMOOTH",
"867 129 OFFCURVE",
"837 86 OFFCURVE",
"802 53 CURVE SMOOTH",
"784 36 OFFCURVE",
"761 22 OFFCURVE",
"744 15 CURVE SMOOTH",
"618 -36 OFFCURVE",
"862 426 OFFCURVE",
"907 500 CURVE SMOOTH",
"931 539 OFFCURVE",
"958 571 OFFCURVE",
"993 570 CURVE",
"1001 571 OFFCURVE",
"1009 583 OFFCURVE",
"1004 583 CURVE SMOOTH",
"957 587 OFFCURVE",
"915 548 OFFCURVE",
"871 502 CURVE SMOOTH",
"524 136 LINE",
"524 138 OFFCURVE",
"524 140 OFFCURVE",
"524 142 CURVE SMOOTH",
"521 225 OFFCURVE",
"516 435 OFFCURVE",
"516 435 CURVE",
"514 497 OFFCURVE",
"531 523 OFFCURVE",
"564 530 CURVE",
"568 530 OFFCURVE",
"586 546 OFFCURVE",
"577 545 CURVE"
);
}
);
width = 830;
}
);
note = M;
unicode = 004D;
},
{
glyphname = N;
layers = (
{
hints = (
{
horizontal = 1;
place = "{-10, 24}";
type = Stem;
},
{
horizontal = 1;
place = "{521, 24}";
type = Stem;
},
{
place = "{6, 10}";
type = Stem;
},
{
place = "{230, 38}";
type = Stem;
},
{
place = "{932, 9}";
type = Stem;
},
{
horizontal = 1;
place = "{572, 41}";
type = Stem;
},
{
place = "{625, 16}";
type = Stem;
},
{
horizontal = 1;
place = "{380, 9}";
type = Stem;
}
);
layerId = "A626400C-4409-4FF6-B7A4-72C4E5A5721C";
paths = (
{
closed = 1;
nodes = (
"942 586 LINE SMOOTH",
"944 625 OFFCURVE",
"879 618 OFFCURVE",
"848 589 CURVE SMOOTH",
"769 515 OFFCURVE",
"678 212 OFFCURVE",
"625 86 CURVE",
"573 216 OFFCURVE",
"518 400 OFFCURVE",
"509 501 CURVE",
"520 509 OFFCURVE",
"554 516 OFFCURVE",
"568 515 CURVE SMOOTH",
"575 514 OFFCURVE",
"598 546 OFFCURVE",
"589 545 CURVE",
"541 545 OFFCURVE",
"485 545 OFFCURVE",
"468 545 CURVE SMOOTH",
"389 545 OFFCURVE",
"198 547 OFFCURVE",
"234 443 CURVE SMOOTH",
"240 425 OFFCURVE",
"271 389 OFFCURVE",
"288 380 CURVE SMOOTH",
"295 377 OFFCURVE",
"306 386 OFFCURVE",
"300 389 CURVE SMOOTH",
"273 402 OFFCURVE",
"257 446 OFFCURVE",
"276 475 CURVE SMOOTH",
"304 515 OFFCURVE",
"396 521 OFFCURVE",
"467 521 CURVE SMOOTH",
"522 521 LINE",
"474 512 OFFCURVE",
"437 470 OFFCURVE",
"417 420 CURVE SMOOTH",
"367 300 OFFCURVE",
"327 177 OFFCURVE",
"237 78 CURVE SMOOTH",
"199 38 OFFCURVE",
"150 14 OFFCURVE",
"104 14 CURVE SMOOTH",
"56 14 OFFCURVE",
"16 60 OFFCURVE",
"16 123 CURVE SMOOTH",
"16 131 OFFCURVE",
"6 139 OFFCURVE",
"6 117 CURVE SMOOTH",
"6 98 OFFCURVE",
"8 78 OFFCURVE",
"14 61 CURVE SMOOTH",
"33 13 OFFCURVE",
"75 -10 OFFCURVE",
"116 -10 CURVE SMOOTH",
"161 -10 OFFCURVE",
"231 17 OFFCURVE",
"262 55 CURVE SMOOTH",
"347 155 OFFCURVE",
"403 316 OFFCURVE",
"438 408 CURVE SMOOTH",
"442 420 OFFCURVE",
"453 453 OFFCURVE",
"463 460 CURVE",
"506 321 OFFCURVE",
"564 156 OFFCURVE",
"590 16 CURVE",
"585 1 OFFCURVE",
"579 -13 OFFCURVE",
"570 -25 CURVE SMOOTH",
"568 -28 OFFCURVE",
"578 -32 OFFCURVE",
"581 -28 CURVE SMOOTH",
"585 -22 OFFCURVE",
"606 1 OFFCURVE",
"616 5 CURVE SMOOTH",
"625 9 OFFCURVE",
"632 13 OFFCURVE",
"638 17 CURVE SMOOTH",
"644 22 OFFCURVE",
"647 28 OFFCURVE",
"645 36 CURVE SMOOTH",
"644 43 OFFCURVE",
"641 50 OFFCURVE",
"641 55 CURVE",
"638 71 OFFCURVE",
"641 88 OFFCURVE",
"650 108 CURVE SMOOTH",
"692 209 OFFCURVE",
"821 574 OFFCURVE",
"904 572 CURVE SMOOTH",
"913 572 OFFCURVE",
"933 565 OFFCURVE",
"932 548 CURVE",
"931 546 OFFCURVE",
"941 549 OFFCURVE",
"941 550 CURVE SMOOTH"
);
}
);
width = 721;
}
);
note = N;
unicode = 004E;
},
{
glyphname = O;
layers = (
{
hints = (
{
horizontal = 1;
place = "{-12, 15}";
type = Stem;
},
{
horizontal = 1;
place = "{539, 15}";
type = Stem;
},
{
place = "{7, 53}";
type = Stem;
},
{
place = "{591, 57}";
type = Stem;
}
);
layerId = "A626400C-4409-4FF6-B7A4-72C4E5A5721C";
paths = (
{
closed = 1;
nodes = (
"648 504 OFFCURVE",
"578 554 OFFCURVE",
"418 554 CURVE SMOOTH",
"145 554 OFFCURVE",
"7 283 OFFCURVE",
"7 146 CURVE SMOOTH",
"7 15 OFFCURVE",
"125 -12 OFFCURVE",
"232 -12 CURVE SMOOTH",
"460 -12 OFFCURVE",
"648 185 OFFCURVE",
"648 396 CURVE SMOOTH"
);
},
{
closed = 1;
nodes = (
"591 219 OFFCURVE",
"429 3 OFFCURVE",
"224 3 CURVE SMOOTH",
"105 3 OFFCURVE",
"60 53 OFFCURVE",
"60 137 CURVE SMOOTH",
"60 292 OFFCURVE",
"242 539 OFFCURVE",
"420 539 CURVE SMOOTH",
"544 539 OFFCURVE",
"591 488 OFFCURVE",
"591 405 CURVE SMOOTH"
);
}
);
width = 594;
}
);
note = O;
unicode = 004F;
},
{
glyphname = P;
layers = (
{
hints = (
{
horizontal = 1;
place = "{-8, 33}";
type = Stem;
},
{
horizontal = 1;
place = "{211, 28}";
type = Stem;
},
{
horizontal = 1;
place = "{510, 15}";
type = Stem;
}
);
layerId = "A626400C-4409-4FF6-B7A4-72C4E5A5721C";
paths = (
{
closed = 1;
nodes = (
"541 552 OFFCURVE",
"441 546 OFFCURVE",
"386 545 CURVE SMOOTH",
"339 545 OFFCURVE",
"280 544 OFFCURVE",
"238 544 CURVE SMOOTH",
"181 544 OFFCURVE",
"44 546 OFFCURVE",
"70 451 CURVE SMOOTH",
"75 434 OFFCURVE",
"96 401 OFFCURVE",
"109 394 CURVE SMOOTH",
"113 391 OFFCURVE",
"122 399 OFFCURVE",
"117 401 CURVE",
"98 413 OFFCURVE",
"97 444 OFFCURVE",
"111 470 CURVE SMOOTH",
"138 520 OFFCURVE",
"293 535 OFFCURVE",
"370 531 CURVE",
"347 523 OFFCURVE",
"320 508 OFFCURVE",
"311 491 CURVE SMOOTH",
"299 468 OFFCURVE",
"274 412 OFFCURVE",
"243 357 CURVE SMOOTH",
"211 298 OFFCURVE",
"179 239 OFFCURVE",
"148 180 CURVE SMOOTH",
"122 132 OFFCURVE",
"95 85 OFFCURVE",
"67 38 CURVE SMOOTH",
"53 13 OFFCURVE",
"32 -5 OFFCURVE",
"3 -10 CURVE",
"-3 -14 OFFCURVE",
"7 -21 OFFCURVE",
"20 -18 CURVE SMOOTH",
"47 -9 OFFCURVE",
"68 9 OFFCURVE",
"82 15 CURVE SMOOTH",
"102 25 OFFCURVE",
"115 18 OFFCURVE",
"127 15 CURVE SMOOTH",
"132 13 OFFCURVE",
"143 9 OFFCURVE",
"139 18 CURVE SMOOTH",
"126 49 OFFCURVE",
"231 233 OFFCURVE",
"249 267 CURVE SMOOTH",
"287 341 OFFCURVE",
"330 439 OFFCURVE",
"381 505 CURVE SMOOTH",
"400 529 OFFCURVE",
"451 531 OFFCURVE",
"475 528 CURVE SMOOTH",
"533 520 OFFCURVE",
"555 453 OFFCURVE",
"533 389 CURVE SMOOTH",
"489 261 OFFCURVE",
"359 252 OFFCURVE",
"284 258 CURVE SMOOTH",
"276 259 OFFCURVE",
"257 239 OFFCURVE",
"265 238 CURVE SMOOTH",
"303 233 OFFCURVE",
"389 237 OFFCURVE",
"447 259 CURVE SMOOTH",
"535 293 OFFCURVE",
"640 397 OFFCURVE",
"575 499 CURVE SMOOTH"
);
}
);
width = 541;
}
);
note = P;
unicode = 0050;
},
{
glyphname = Q;
layers = (
{
hints = (
{
horizontal = 1;
place = "{510, 15}";
type = Stem;
}
);
layerId = "A626400C-4409-4FF6-B7A4-72C4E5A5721C";
paths = (
{
closed = 1;
nodes = (
"675 -173 OFFCURVE",
"667 -165 OFFCURVE",
"661 -172 CURVE SMOOTH",
"639 -196 OFFCURVE",
"523 -289 OFFCURVE",
"458 -199 CURVE SMOOTH",
"418 -144 OFFCURVE",
"347 -40 OFFCURVE",
"328 0 CURVE",
"511 45 OFFCURVE",
"648 216 OFFCURVE",
"648 396 CURVE SMOOTH",
"648 504 OFFCURVE",
"578 554 OFFCURVE",
"418 554 CURVE SMOOTH",
"145 554 OFFCURVE",
"7 283 OFFCURVE",
"7 146 CURVE SMOOTH",
"7 15 OFFCURVE",
"125 -12 OFFCURVE",
"232 -12 CURVE SMOOTH",
"250 -12 OFFCURVE",
"268 -11 OFFCURVE",
"285 -9 CURVE",
"301 -38 OFFCURVE",
"371 -157 OFFCURVE",
"413 -225 CURVE SMOOTH",
"477 -327 OFFCURVE",
"628 -228 OFFCURVE",
"669 -180 CURVE SMOOTH"
);
},
{
closed = 1;
nodes = (
"591 219 OFFCURVE",
"429 3 OFFCURVE",
"224 3 CURVE SMOOTH",
"105 3 OFFCURVE",
"60 53 OFFCURVE",
"60 137 CURVE SMOOTH",
"60 292 OFFCURVE",
"242 539 OFFCURVE",
"420 539 CURVE SMOOTH",
"544 539 OFFCURVE",
"591 488 OFFCURVE",
"591 405 CURVE SMOOTH"
);
}
);
width = 599;
}
);
note = Q;
unicode = 0051;
},
{
glyphname = R;
layers = (
{
hints = (
{
horizontal = 1;
place = "{531, 15}";
type = Stem;
}
);
layerId = "A626400C-4409-4FF6-B7A4-72C4E5A5721C";
paths = (
{
closed = 1;
nodes = (
"653 127 OFFCURVE",
"651 145 OFFCURVE",
"642 132 CURVE SMOOTH",
"601 78 OFFCURVE",
"501 -41 OFFCURVE",
"410 69 CURVE SMOOTH",
"359 132 OFFCURVE",
"323 200 OFFCURVE",
"306 238 CURVE",
"370 241 OFFCURVE",
"461 258 OFFCURVE",
"513 295 CURVE SMOOTH",
"534 310 OFFCURVE",
"550 326 OFFCURVE",
"563 343 CURVE SMOOTH",
"593 382 OFFCURVE",
"603 455 OFFCURVE",
"575 499 CURVE SMOOTH",
"541 552 OFFCURVE",
"441 546 OFFCURVE",
"386 545 CURVE SMOOTH",
"339 545 OFFCURVE",
"280 544 OFFCURVE",
"238 544 CURVE SMOOTH",
"181 544 OFFCURVE",
"44 546 OFFCURVE",
"70 451 CURVE SMOOTH",
"75 434 OFFCURVE",
"96 401 OFFCURVE",
"109 394 CURVE SMOOTH",
"113 391 OFFCURVE",
"122 399 OFFCURVE",
"117 401 CURVE",
"98 413 OFFCURVE",
"97 444 OFFCURVE",
"111 470 CURVE SMOOTH",
"138 520 OFFCURVE",
"293 535 OFFCURVE",
"370 531 CURVE",
"347 523 OFFCURVE",
"320 508 OFFCURVE",
"311 491 CURVE SMOOTH",
"299 468 OFFCURVE",
"274 412 OFFCURVE",
"243 357 CURVE SMOOTH",
"211 298 OFFCURVE",
"179 239 OFFCURVE",
"148 180 CURVE SMOOTH",
"122 132 OFFCURVE",
"95 85 OFFCURVE",
"67 38 CURVE SMOOTH",
"53 13 OFFCURVE",
"32 -5 OFFCURVE",
"3 -10 CURVE",
"-3 -14 OFFCURVE",
"7 -21 OFFCURVE",
"20 -18 CURVE SMOOTH",
"47 -9 OFFCURVE",
"68 9 OFFCURVE",
"82 15 CURVE SMOOTH",
"102 25 OFFCURVE",
"115 18 OFFCURVE",
"127 15 CURVE SMOOTH",
"132 13 OFFCURVE",
"143 9 OFFCURVE",
"139 18 CURVE SMOOTH",
"126 49 OFFCURVE",
"231 233 OFFCURVE",
"249 267 CURVE SMOOTH",
"287 341 OFFCURVE",
"330 439 OFFCURVE",
"381 505 CURVE SMOOTH",
"400 529 OFFCURVE",
"451 531 OFFCURVE",
"475 528 CURVE SMOOTH",
"533 520 OFFCURVE",
"555 453 OFFCURVE",
"533 389 CURVE SMOOTH",
"489 260 OFFCURVE",
"414 265 OFFCURVE",
"290 265 CURVE SMOOTH",
"279 265 OFFCURVE",
"260 239 OFFCURVE",
"260 239 CURVE",
"274 213 OFFCURVE",
"305 129 OFFCURVE",
"370 42 CURVE SMOOTH",
"463 -79 OFFCURVE",
"547 -19 OFFCURVE",
"644 115 CURVE SMOOTH"
);
}
);
width = 602;
}
);
note = R;
unicode = 0052;
},
{
glyphname = S;
layers = (
{
hints = (
{
horizontal = 1;
place = "{-34, 28}";
type = Stem;
},
{
horizontal = 1;
place = "{541, 21}";
type = Stem;
},
{
place = "{255, 30}";
type = Stem;
},
{
place = "{377, 62}";
type = Stem;
},
{
place = "{488, 41}";
type = Stem;
}
);
layerId = "A626400C-4409-4FF6-B7A4-72C4E5A5721C";
paths = (
{
closed = 1;
nodes = (
"494 552 OFFCURVE",
"454 564 OFFCURVE",
"415 562 CURVE SMOOTH",
"362 559 OFFCURVE",
"309 532 OFFCURVE",
"279 491 CURVE SMOOTH",
"247 445 OFFCURVE",
"249 391 OFFCURVE",
"274 343 CURVE SMOOTH",
"303 289 OFFCURVE",
"344 234 OFFCURVE",
"365 177 CURVE SMOOTH",
"402 79 OFFCURVE",
"351 -12 OFFCURVE",
"243 -6 CURVE SMOOTH",
"188 -3 OFFCURVE",
"127 26 OFFCURVE",
"96 70 CURVE SMOOTH",
"74 102 OFFCURVE",
"59 161 OFFCURVE",
"92 191 CURVE",
"97 194 OFFCURVE",
"89 204 OFFCURVE",
"86 202 CURVE SMOOTH",
"54 178 OFFCURVE",
"30 122 OFFCURVE",
"40 75 CURVE SMOOTH",
"59 -5 OFFCURVE",
"150 -34 OFFCURVE",
"221 -34 CURVE SMOOTH",
"337 -34 OFFCURVE",
"479 65 OFFCURVE",
"429 195 CURVE SMOOTH",
"399 273 OFFCURVE",
"322 329 OFFCURVE",
"292 401 CURVE SMOOTH",
"266 461 OFFCURVE",
"305 541 OFFCURVE",
"397 541 CURVE SMOOTH",
"433 541 OFFCURVE",
"458 529 OFFCURVE",
"474 514 CURVE SMOOTH",
"491 500 OFFCURVE",
"488 481 OFFCURVE",
"488 466 CURVE SMOOTH",
"488 443 OFFCURVE",
"475 409 OFFCURVE",
"470 399 CURVE",
"473 395 OFFCURVE",
"486 400 OFFCURVE",
"489 402 CURVE",
"492 412 OFFCURVE",
"510 447 OFFCURVE",
"522 465 CURVE SMOOTH",
"530 478 OFFCURVE",
"533 506 OFFCURVE",
"524 519 CURVE"
);
}
);
width = 451;
}
);
note = S;
unicode = 0053;
},
{
glyphname = T;
layers = (
{
hints = (
{
horizontal = 1;
place = "{531, 15}";
type = Stem;
}
);
layerId = "A626400C-4409-4FF6-B7A4-72C4E5A5721C";
paths = (
{
closed = 1;
nodes = (
"618 486 OFFCURVE",
"683 478 OFFCURVE",
"709 484 CURVE SMOOTH",
"732 489 OFFCURVE",
"741 508 OFFCURVE",
"748 522 CURVE",
"752 527 OFFCURVE",
"754 532 OFFCURVE",
"756 540 CURVE",
"758 544 OFFCURVE",
"751 548 OFFCURVE",
"748 543 CURVE",
"723 511 OFFCURVE",
"568 524 OFFCURVE",
"524 528 CURVE SMOOTH",
"365 541 LINE SMOOTH",
"317 545 OFFCURVE",
"269 547 OFFCURVE",
"227 550 CURVE SMOOTH",
"148 556 OFFCURVE",
"-23 549 OFFCURVE",
"18 442 CURVE SMOOTH",
"25 424 OFFCURVE",
"56 386 OFFCURVE",
"74 377 CURVE SMOOTH",
"81 373 OFFCURVE",
"92 381 OFFCURVE",
"86 385 CURVE",
"58 399 OFFCURVE",
"44 437 OFFCURVE",
"62 465 CURVE SMOOTH",
"107 530 OFFCURVE",
"293 520 OFFCURVE",
"361 514 CURVE SMOOTH",
"502 500 LINE SMOOTH",
"510 499 OFFCURVE",
"518 498 OFFCURVE",
"528 497 CURVE",
"494 487 OFFCURVE",
"451 465 OFFCURVE",
"438 435 CURVE SMOOTH",
"393 330 OFFCURVE",
"335 153 OFFCURVE",
"260 70 CURVE SMOOTH",
"222 29 OFFCURVE",
"177 -1 OFFCURVE",
"131 -1 CURVE SMOOTH",
"84 -1 OFFCURVE",
"49 31 OFFCURVE",
"49 94 CURVE SMOOTH",
"49 102 OFFCURVE",
"50 111 OFFCURVE",
"50 119 CURVE SMOOTH",
"50 120 OFFCURVE",
"49 121 OFFCURVE",
"48 121 CURVE SMOOTH",
"36 121 OFFCURVE",
"38 98 OFFCURVE",
"38 88 CURVE SMOOTH",
"38 70 OFFCURVE",
"40 49 OFFCURVE",
"47 32 CURVE SMOOTH",
"65 -16 OFFCURVE",
"107 -39 OFFCURVE",
"148 -39 CURVE SMOOTH",
"194 -39 OFFCURVE",
"240 -15 OFFCURVE",
"274 21 CURVE SMOOTH",
"318 69 OFFCURVE",
"346 131 OFFCURVE",
"374 192 CURVE SMOOTH",
"402 252 OFFCURVE",
"417 297 OFFCURVE",
"446 357 CURVE SMOOTH",
"470 408 OFFCURVE",
"504 483 OFFCURVE",
"564 493 CURVE"
);
}
);
width = 432;
}
);
note = T;
unicode = 0054;
},
{
glyphname = U;
layers = (
{
hints = (
{
horizontal = 1;
place = "{-12, 18}";
type = Stem;
},
{
horizontal = 1;
place = "{457, 18}";
type = Stem;
},
{
horizontal = 1;
place = "{524, 15}";
type = Stem;
}
);
layerId = "A626400C-4409-4FF6-B7A4-72C4E5A5721C";
paths = (
{
closed = 1;
nodes = (
"710 553 OFFCURVE",
"699 558 OFFCURVE",
"694 554 CURVE SMOOTH",
"679 540 OFFCURVE",
"666 532 OFFCURVE",
"651 530 CURVE SMOOTH",
"640 528 OFFCURVE",
"624 529 OFFCURVE",
"616 531 CURVE SMOOTH",
"601 533 OFFCURVE",
"595 505 OFFCURVE",
"586 488 CURVE SMOOTH",
"550 409 OFFCURVE",
"497 314 OFFCURVE",
"444 238 CURVE SMOOTH",
"393 166 OFFCURVE",
"306 65 OFFCURVE",
"227 25 CURVE SMOOTH",
"192 6 OFFCURVE",
"148 9 OFFCURVE",
"152 48 CURVE SMOOTH",
"164 153 OFFCURVE",
"290 409 OFFCURVE",
"360 500 CURVE SMOOTH",
"378 523 OFFCURVE",
"407 528 OFFCURVE",
"431 528 CURVE",
"444 543 LINE",
"355 543 OFFCURVE",
"214 542 OFFCURVE",
"214 542 CURVE",
"170 542 OFFCURVE",
"63 557 OFFCURVE",
"25 525 CURVE SMOOTH",
"6 509 OFFCURVE",
"6 484 OFFCURVE",
"8 471 CURVE SMOOTH",
"9 456 OFFCURVE",
"35 417 OFFCURVE",
"47 396 CURVE",
"58 404 LINE",
"55 408 OFFCURVE",
"46 431 OFFCURVE",
"45 442 CURVE SMOOTH",
"40 515 OFFCURVE",
"162 519 OFFCURVE",
"202 519 CURVE SMOOTH",
"290 519 LINE",
"290 427 OFFCURVE",
"200 265 OFFCURVE",
"158 183 CURVE SMOOTH",
"137 143 OFFCURVE",
"117 102 OFFCURVE",
"100 59 CURVE SMOOTH",
"84 17 OFFCURVE",
"76 -25 OFFCURVE",
"143 -26 CURVE SMOOTH",
"181 -27 OFFCURVE",
"217 -11 OFFCURVE",
"250 12 CURVE SMOOTH",
"284 37 OFFCURVE",
"317 70 OFFCURVE",
"349 101 CURVE SMOOTH",
"380 131 OFFCURVE",
"411 161 OFFCURVE",
"439 194 CURVE",
"407 111 OFFCURVE",
"355 -19 OFFCURVE",
"458 -26 CURVE SMOOTH",
"507 -29 OFFCURVE",
"575 29 OFFCURVE",
"601 55 CURVE SMOOTH",
"624 79 OFFCURVE",
"644 103 OFFCURVE",
"653 115 CURVE SMOOTH",
"659 122 OFFCURVE",
"665 131 OFFCURVE",
"666 141 CURVE SMOOTH",
"666 143 OFFCURVE",
"665 147 OFFCURVE",
"664 149 CURVE",
"640 119 OFFCURVE",
"622 97 OFFCURVE",
"593 70 CURVE SMOOTH",
"563 40 OFFCURVE",
"528 12 OFFCURVE",
"503 8 CURVE SMOOTH",
"425 -6 OFFCURVE",
"430 64 OFFCURVE",
"452 133 CURVE SMOOTH",
"484 232 OFFCURVE",
"580 383 OFFCURVE",
"636 468 CURVE SMOOTH",
"660 505 OFFCURVE",
"676 526 OFFCURVE",
"706 550 CURVE SMOOTH"
);
}
);
width = 611;
}
);
note = U;
unicode = 0055;
},
{
glyphname = V;
layers = (
{
hints = (
{
horizontal = 1;
place = "{531, 15}";
type = Stem;
},
{
place = "{242, 41}";
type = Stem;
}
);
layerId = "A626400C-4409-4FF6-B7A4-72C4E5A5721C";
paths = (
{
closed = 1;
nodes = (
"450 543 LINE",
"361 543 OFFCURVE",
"220 542 OFFCURVE",
"220 542 CURVE",
"176 542 OFFCURVE",
"69 557 OFFCURVE",
"31 525 CURVE SMOOTH",
"12 509 OFFCURVE",
"13 484 OFFCURVE",
"14 471 CURVE SMOOTH",
"15 456 OFFCURVE",
"41 417 OFFCURVE",
"53 396 CURVE",
"64 404 LINE",
"61 408 OFFCURVE",
"52 431 OFFCURVE",
"51 442 CURVE SMOOTH",
"46 515 OFFCURVE",
"168 519 OFFCURVE",
"208 519 CURVE SMOOTH",
"251 519 OFFCURVE",
"295 518 OFFCURVE",
"339 518 CURVE",
"355 451 OFFCURVE",
"336 317 OFFCURVE",
"329 257 CURVE SMOOTH",
"320 184 OFFCURVE",
"303 111 OFFCURVE",
"284 38 CURVE SMOOTH",
"279 20 OFFCURVE",
"273 1 OFFCURVE",
"267 -18 CURVE",
"265 -22 OFFCURVE",
"260 -32 OFFCURVE",
"260 -36 CURVE SMOOTH",
"259 -47 OFFCURVE",
"266 -49 OFFCURVE",
"277 -49 CURVE SMOOTH",
"283 -49 OFFCURVE",
"316 -36 OFFCURVE",
"321 -31 CURVE SMOOTH",
"324 -27 OFFCURVE",
"325 -18 OFFCURVE",
"328 -13 CURVE SMOOTH",
"366 53 OFFCURVE",
"413 114 OFFCURVE",
"461 174 CURVE SMOOTH",
"553 291 OFFCURVE",
"653 401 OFFCURVE",
"765 490 CURVE SMOOTH",
"829 542 OFFCURVE",
"875 569 OFFCURVE",
"917 563 CURVE SMOOTH",
"957 557 OFFCURVE",
"946 500 OFFCURVE",
"939 476 CURVE SMOOTH",
"938 471 OFFCURVE",
"953 473 OFFCURVE",
"955 477 CURVE SMOOTH",
"970 512 OFFCURVE",
"1019 587 OFFCURVE",
"940 593 CURVE SMOOTH",
"877 598 OFFCURVE",
"789 541 OFFCURVE",
"750 508 CURVE SMOOTH",
"562 352 OFFCURVE",
"423 155 OFFCURVE",
"341 39 CURVE",
"363 118 OFFCURVE",
"379 214 OFFCURVE",
"382 277 CURVE SMOOTH",
"384 332 OFFCURVE",
"388 462 OFFCURVE",
"359 517 CURVE",
"382 517 OFFCURVE",
"406 517 OFFCURVE",
"429 517 CURVE"
);
}
);
width = 538;
}
);
note = V;
unicode = 0056;
},
{
glyphname = W;
layers = (
{
hints = (
{
horizontal = 1;
place = "{288, 19}";
type = Stem;
},
{
place = "{476, 44}";
type = Stem;
},
{
place = "{681, 42}";
type = Stem;
}
);
layerId = "A626400C-4409-4FF6-B7A4-72C4E5A5721C";
paths = (
{
closed = 1;
nodes = (
"450 543 LINE",
"361 543 OFFCURVE",
"220 542 OFFCURVE",
"220 542 CURVE",
"176 542 OFFCURVE",
"69 557 OFFCURVE",
"31 525 CURVE SMOOTH",
"12 509 OFFCURVE",
"13 484 OFFCURVE",
"14 471 CURVE SMOOTH",
"15 456 OFFCURVE",
"41 417 OFFCURVE",
"53 396 CURVE",
"64 404 LINE",
"61 408 OFFCURVE",
"52 431 OFFCURVE",
"51 442 CURVE SMOOTH",
"46 515 OFFCURVE",
"168 519 OFFCURVE",
"208 519 CURVE SMOOTH",
"233 519 OFFCURVE",
"259 519 OFFCURVE",
"284 519 CURVE",
"340 453 OFFCURVE",
"336 318 OFFCURVE",
"329 257 CURVE SMOOTH",
"320 184 OFFCURVE",
"303 111 OFFCURVE",
"284 38 CURVE SMOOTH",
"279 20 OFFCURVE",
"273 1 OFFCURVE",
"267 -18 CURVE",
"265 -22 OFFCURVE",
"260 -32 OFFCURVE",
"260 -36 CURVE SMOOTH",
"259 -47 OFFCURVE",
"266 -49 OFFCURVE",
"277 -49 CURVE SMOOTH",
"283 -49 OFFCURVE",
"326 -36 OFFCURVE",
"331 -31 CURVE SMOOTH",
"334 -27 OFFCURVE",
"335 -18 OFFCURVE",
"338 -13 CURVE SMOOTH",
"376 53 OFFCURVE",
"453 177 OFFCURVE",
"500 237 CURVE SMOOTH",
"570 325 OFFCURVE",
"620 392 OFFCURVE",
"647 408 CURVE",
"580 308 OFFCURVE",
"596 156 OFFCURVE",
"564 38 CURVE SMOOTH",
"559 20 OFFCURVE",
"553 1 OFFCURVE",
"547 -18 CURVE",
"545 -22 OFFCURVE",
"540 -32 OFFCURVE",
"540 -36 CURVE SMOOTH",
"539 -47 OFFCURVE",
"546 -49 OFFCURVE",
"557 -49 CURVE SMOOTH",
"563 -49 OFFCURVE",
"596 -36 OFFCURVE",
"601 -31 CURVE SMOOTH",
"604 -27 OFFCURVE",
"605 -18 OFFCURVE",
"608 -13 CURVE SMOOTH",
"646 53 OFFCURVE",
"693 114 OFFCURVE",
"741 174 CURVE SMOOTH",
"833 291 OFFCURVE",
"936 401 OFFCURVE",
"1048 490 CURVE SMOOTH",
"1111 542 OFFCURVE",
"1155 569 OFFCURVE",
"1197 563 CURVE SMOOTH",
"1237 557 OFFCURVE",
"1226 500 OFFCURVE",
"1219 476 CURVE SMOOTH",
"1218 471 OFFCURVE",
"1233 473 OFFCURVE",
"1235 477 CURVE SMOOTH",
"1250 512 OFFCURVE",
"1299 587 OFFCURVE",
"1220 593 CURVE SMOOTH",
"1157 598 OFFCURVE",
"1071 541 OFFCURVE",
"1032 508 CURVE SMOOTH",
"845 352 OFFCURVE",
"703 155 OFFCURVE",
"621 39 CURVE",
"651 146 OFFCURVE",
"622 362 OFFCURVE",
"725 465 CURVE SMOOTH",
"751 491 OFFCURVE",
"809 524 OFFCURVE",
"849 514 CURVE",
"855 525 LINE",
"847 530 OFFCURVE",
"832 534 OFFCURVE",
"816 535 CURVE SMOOTH",
"737 541 OFFCURVE",
"675 473 OFFCURVE",
"624 419 CURVE SMOOTH",
"499 287 OFFCURVE",
"406 130 OFFCURVE",
"341 39 CURVE",
"363 118 OFFCURVE",
"379 214 OFFCURVE",
"382 277 CURVE SMOOTH",
"384 332 OFFCURVE",
"392 463 OFFCURVE",
"310 518 CURVE",
"350 518 OFFCURVE",
"389 517 OFFCURVE",
"429 517 CURVE"
);
}
);
width = 892;
}
);
note = W;
unicode = 0057;
},
{
glyphname = X;
layers = (
{
hints = (
{
horizontal = 1;
place = "{-5, 32}";
type = Stem;
},
{
horizontal = 1;
place = "{287, -20}";
target = down;
type = TopGhost;
},
{
horizontal = 1;
place = "{519, 26}";
type = Stem;
},
{
place = "{-111, 19}";
type = Stem;
},
{
place = "{14, 37}";
type = Stem;
},
{
place = "{273, 29}";
type = Stem;
},
{
place = "{728, 36}";
type = Stem;
},
{
horizontal = 1;
place = "{535, 30}";
type = Stem;
},
{
horizontal = 1;
place = "{517, 24}";
type = Stem;
},
{
horizontal = 1;
place = "{266, -20}";
target = down;
type = TopGhost;
}
);
layerId = "A626400C-4409-4FF6-B7A4-72C4E5A5721C";
paths = (
{
closed = 1;
nodes = (
"751 484 OFFCURVE",
"799 553 OFFCURVE",
"721 565 CURVE SMOOTH",
"688 570 OFFCURVE",
"655 559 OFFCURVE",
"623 542 CURVE SMOOTH",
"530 491 OFFCURVE",
"400 358 OFFCURVE",
"330 287 CURVE",
"318 339 OFFCURVE",
"296 441 OFFCURVE",
"302 518 CURVE",
"344 518 OFFCURVE",
"387 517 OFFCURVE",
"429 517 CURVE",
"450 543 LINE",
"361 543 OFFCURVE",
"220 542 OFFCURVE",
"220 542 CURVE",
"176 542 OFFCURVE",
"69 557 OFFCURVE",
"31 525 CURVE SMOOTH",
"12 509 OFFCURVE",
"13 484 OFFCURVE",
"14 471 CURVE SMOOTH",
"15 456 OFFCURVE",
"41 417 OFFCURVE",
"53 396 CURVE",
"64 404 LINE",
"61 408 OFFCURVE",
"52 431 OFFCURVE",
"51 442 CURVE SMOOTH",
"46 515 OFFCURVE",
"168 519 OFFCURVE",
"208 519 CURVE SMOOTH",
"235 519 OFFCURVE",
"262 519 OFFCURVE",
"289 518 CURVE",
"266 485 OFFCURVE",
"271 393 OFFCURVE",
"282 312 CURVE SMOOTH",
"285 293 OFFCURVE",
"288 270 OFFCURVE",
"293 246 CURVE",
"181 125 OFFCURVE",
"60 6 OFFCURVE",
"-33 -13 CURVE SMOOTH",
"-81 -23 OFFCURVE",
"-109 0 OFFCURVE",
"-80 68 CURVE SMOOTH",
"-77 77 OFFCURVE",
"-83 84 OFFCURVE",
"-93 60 CURVE SMOOTH",
"-102 39 OFFCURVE",
"-110 17 OFFCURVE",
"-111 0 CURVE SMOOTH",
"-113 -49 OFFCURVE",
"-82 -65 OFFCURVE",
"-40 -57 CURVE SMOOTH",
"70 -34 OFFCURVE",
"182 101 OFFCURVE",
"298 225 CURVE",
"314 151 OFFCURVE",
"338 68 OFFCURVE",
"369 25 CURVE SMOOTH",
"425 -52 OFFCURVE",
"521 35 OFFCURVE",
"584 113 CURVE SMOOTH",
"597 129 OFFCURVE",
"599 154 OFFCURVE",
"585 137 CURVE SMOOTH",
"542 82 OFFCURVE",
"467 -15 OFFCURVE",
"422 47 CURVE SMOOTH",
"387 96 OFFCURVE",
"343 233 OFFCURVE",
"334 266 CURVE",
"336 268 OFFCURVE",
"336 270 OFFCURVE",
"337 272 CURVE",
"402 335 OFFCURVE",
"548 479 OFFCURVE",
"631 520 CURVE SMOOTH",
"655 533 OFFCURVE",
"677 538 OFFCURVE",
"698 535 CURVE SMOOTH",
"738 529 OFFCURVE",
"728 472 OFFCURVE",
"722 448 CURVE SMOOTH",
"720 442 OFFCURVE",
"734 445 OFFCURVE",
"736 449 CURVE SMOOTH"
);
}
);
width = 542;
}
);
note = X;
unicode = 0058;
},
{
glyphname = Y;
layers = (
{
hints = (
{
horizontal = 1;
place = "{-39, 38}";
type = Stem;
},
{
horizontal = 1;
place = "{519, 26}";
type = Stem;
},
{
place = "{8, 10}";
type = Stem;
},
{
place = "{65, 38}";
type = Stem;
},
{
place = "{320, 43}";
type = Stem;
},
{
place = "{700, 23}";
type = Stem;
},
{
horizontal = 1;
place = "{541, 31}";
type = Stem;
},
{
horizontal = 1;
place = "{517, 25}";
type = Stem;
}
);
layerId = "A626400C-4409-4FF6-B7A4-72C4E5A5721C";
paths = (
{
closed = 1;
nodes = (
"709 564 OFFCURVE",
"696 571 OFFCURVE",
"679 572 CURVE SMOOTH",
"620 574 OFFCURVE",
"560 504 OFFCURVE",
"527 466 CURVE SMOOTH",
"456 385 OFFCURVE",
"403 289 OFFCURVE",
"341 202 CURVE",
"365 287 OFFCURVE",
"389 460 OFFCURVE",
"301 519 CURVE",
"338 518 OFFCURVE",
"353 517 OFFCURVE",
"410 517 CURVE",
"431 543 LINE",
"342 543 OFFCURVE",
"271 542 OFFCURVE",
"271 542 CURVE",
"228 542 OFFCURVE",
"120 557 OFFCURVE",
"82 525 CURVE SMOOTH",
"64 509 OFFCURVE",
"64 484 OFFCURVE",
"65 471 CURVE SMOOTH",
"67 456 OFFCURVE",
"93 417 OFFCURVE",
"105 396 CURVE",
"115 404 LINE",
"113 408 OFFCURVE",
"104 431 OFFCURVE",
"103 442 CURVE SMOOTH",
"97 515 OFFCURVE",
"220 519 OFFCURVE",
"259 519 CURVE SMOOTH",
"283 519 LINE",
"343 449 OFFCURVE",
"317 280 OFFCURVE",
"296 200 CURVE",
"292 189 OFFCURVE",
"289 177 OFFCURVE",
"285 166 CURVE SMOOTH",
"284 163 OFFCURVE",
"281 157 OFFCURVE",
"281 155 CURVE SMOOTH",
"280 148 OFFCURVE",
"285 147 OFFCURVE",
"291 147 CURVE SMOOTH",
"294 147 OFFCURVE",
"304 150 OFFCURVE",
"311 154 CURVE",
"261 82 OFFCURVE",
"189 -1 OFFCURVE",
"101 -1 CURVE SMOOTH",
"53 -1 OFFCURVE",
"18 32 OFFCURVE",
"18 94 CURVE SMOOTH",
"18 103 OFFCURVE",
"8 111 OFFCURVE",
"8 89 CURVE SMOOTH",
"8 70 OFFCURVE",
"9 49 OFFCURVE",
"16 32 CURVE SMOOTH",
"35 -16 OFFCURVE",
"76 -39 OFFCURVE",
"117 -39 CURVE SMOOTH",
"208 -39 OFFCURVE",
"265 32 OFFCURVE",
"308 107 CURVE SMOOTH",
"384 239 OFFCURVE",
"435 331 OFFCURVE",
"539 452 CURVE SMOOTH",
"577 496 OFFCURVE",
"627 542 OFFCURVE",
"665 541 CURVE SMOOTH",
"696 539 OFFCURVE",
"708 505 OFFCURVE",
"700 474 CURVE SMOOTH",
"699 469 OFFCURVE",
"706 469 OFFCURVE",
"708 474 CURVE SMOOTH",
"713 486 OFFCURVE",
"731 516 OFFCURVE",
"718 545 CURVE SMOOTH"
);
}
);
width = 452;
}
);
note = Y;
unicode = 0059;
},
{
glyphname = Z;
layers = (
{
hints = (
{
horizontal = 1;
place = "{-254, 37}";
type = Stem;
},
{
horizontal = 1;
place = "{99, 27}";
type = Stem;
},
{
horizontal = 1;
place = "{519, 26}";
type = Stem;
},
{
place = "{151, 37}";
type = Stem;
},
{
place = "{727, 25}";
type = Stem;
}
);
layerId = "A626400C-4409-4FF6-B7A4-72C4E5A5721C";
paths = (
{
closed = 1;
nodes = (
"721 -75 OFFCURVE",
"707 -64 OFFCURVE",
"693 -55 CURVE SMOOTH",
"691 -54 OFFCURVE",
"678 -62 OFFCURVE",
"680 -65 CURVE",
"687 -72 OFFCURVE",
"698 -84 OFFCURVE",
"707 -99 CURVE SMOOTH",
"741 -154 OFFCURVE",
"735 -215 OFFCURVE",
"665 -217 CURVE SMOOTH",
"610 -218 OFFCURVE",
"518 -133 OFFCURVE",
"438 -37 CURVE SMOOTH",
"329 95 OFFCURVE",
"254 172 OFFCURVE",
"106 96 CURVE",
"255 257 OFFCURVE",
"421 404 OFFCURVE",
"589 525 CURVE SMOOTH",
"593 528 OFFCURVE",
"597 545 OFFCURVE",
"594 545 CURVE SMOOTH",
"361 545 LINE SMOOTH",
"318 544 OFFCURVE",
"205 557 OFFCURVE",
"168 525 CURVE SMOOTH",
"149 509 OFFCURVE",
"149 484 OFFCURVE",
"151 471 CURVE SMOOTH",
"152 456 OFFCURVE",
"178 417 OFFCURVE",
"190 396 CURVE",
"200 404 LINE",
"198 408 OFFCURVE",
"189 431 OFFCURVE",
"188 442 CURVE SMOOTH",
"182 515 OFFCURVE",
"305 519 OFFCURVE",
"344 519 CURVE SMOOTH",
"407 519 OFFCURVE",
"470 518 OFFCURVE",
"533 517 CURVE",
"389 401 OFFCURVE",
"68 141 OFFCURVE",
"-21 -2 CURVE SMOOTH",
"-47 -44 OFFCURVE",
"2 -70 OFFCURVE",
"21 -44 CURVE SMOOTH",
"30 -32 OFFCURVE",
"33 -17 OFFCURVE",
"37 -1 CURVE SMOOTH",
"55 59 OFFCURVE",
"120 99 OFFCURVE",
"182 99 CURVE SMOOTH",
"257 100 OFFCURVE",
"302 36 OFFCURVE",
"364 -36 CURVE SMOOTH",
"428 -109 OFFCURVE",
"533 -254 OFFCURVE",
"640 -254 CURVE SMOOTH",
"721 -253 OFFCURVE",
"787 -161 OFFCURVE",
"732 -89 CURVE SMOOTH"
);
}
);
width = 453;
}
);
note = Z;
unicode = 005A;
},
{
glyphname = bracketleft;
layers = (
{
hints = (
{
horizontal = 1;
place = "{-104, 35}";
type = Stem;
},
{
horizontal = 1;
place = "{564, 31}";
type = Stem;
},
{
place = "{9, 552}";
type = Stem;
}
);
layerId = "A626400C-4409-4FF6-B7A4-72C4E5A5721C";
paths = (
{
closed = 1;
nodes = (
"312 553 LINE",
"213 352 OFFCURVE",
"103 99 OFFCURVE",
"9 -104 CURVE",
"78 -104 OFFCURVE",
"187 -106 OFFCURVE",
"249 -100 CURVE",
"303 -69 LINE",
"236 -76 OFFCURVE",
"118 -73 OFFCURVE",
"63 -72 CURVE",
"89 -21 OFFCURVE",
"281 380 OFFCURVE",
"367 534 CURVE SMOOTH",
"376 551 OFFCURVE",
"399 563 OFFCURVE",
"415 564 CURVE SMOOTH",
"442 566 OFFCURVE",
"474 565 OFFCURVE",
"514 556 CURVE",
"561 592 LINE",
"482 592 OFFCURVE",
"427 601 OFFCURVE",
"369 590 CURVE"
);
}
);
width = 362;
}
);
note = bracketleft;
unicode = 005B;
},
{
glyphname = backslash;
layers = (
{
hints = (
{
horizontal = 1;
place = "{611, -20}";
target = down;
type = TopGhost;
}
);
layerId = "A626400C-4409-4FF6-B7A4-72C4E5A5721C";
paths = (
{
closed = 1;
nodes = (
"421 105 OFFCURVE",
"173 478 OFFCURVE",
"63 610 CURVE SMOOTH",
"59 615 OFFCURVE",
"-2 599 OFFCURVE",
"1 596 CURVE SMOOTH",
"131 444 OFFCURVE",
"385 86 OFFCURVE",
"476 -28 CURVE SMOOTH",
"483 -36 OFFCURVE",
"515 -34 OFFCURVE",
"509 -25 CURVE SMOOTH"
);
}
);
width = 498;
}
);
note = backslash;
unicode = 005C;
},
{
glyphname = bracketright;
layers = (
{
hints = (
{
horizontal = 1;
place = "{-107, 31}";
type = Stem;
},
{
horizontal = 1;
place = "{560, 32}";
type = Stem;
},
{
place = "{-55, 552}";
type = Stem;
}
);
layerId = "A626400C-4409-4FF6-B7A4-72C4E5A5721C";
paths = (
{
closed = 1;
nodes = (
"194 -65 LINE",
"293 135 OFFCURVE",
"403 389 OFFCURVE",
"497 592 CURVE",
"428 592 OFFCURVE",
"319 594 OFFCURVE",
"257 588 CURVE",
"204 557 LINE",
"270 563 OFFCURVE",
"388 560 OFFCURVE",
"443 560 CURVE",
"418 509 OFFCURVE",
"226 108 OFFCURVE",
"140 -46 CURVE SMOOTH",
"130 -63 OFFCURVE",
"107 -75 OFFCURVE",
"92 -76 CURVE SMOOTH",
"64 -78 OFFCURVE",
"33 -77 OFFCURVE",
"-7 -68 CURVE",
"-55 -104 LINE",
"24 -104 OFFCURVE",
"79 -113 OFFCURVE",
"137 -102 CURVE"
);
}
);
width = 397;
}
);
note = bracketright;
unicode = 005D;
},
{
glyphname = asciicircum;
layers = (
{
hints = (
{
horizontal = 1;
place = "{249, 98}";
type = Stem;
},
{
place = "{85, 229}";
type = Stem;
}
);
layerId = "A626400C-4409-4FF6-B7A4-72C4E5A5721C";
paths = (
{
closed = 1;
nodes = (
"314 255 LINE",
"310 262 LINE",
"276 288 OFFCURVE",
"242 314 OFFCURVE",
"214 345 CURVE",
"209 347 LINE",
"194 345 OFFCURVE",
"86 270 OFFCURVE",
"85 260 CURVE",
"84 257 OFFCURVE",
"87 252 OFFCURVE",
"90 252 CURVE SMOOTH",
"98 252 OFFCURVE",
"181 308 OFFCURVE",
"194 317 CURVE",
"210 300 OFFCURVE",
"285 250 OFFCURVE",
"309 249 CURVE"
);
}
);
width = 313;
}
);
note = asciicircum;
unicode = 005E;
},
{
glyphname = grave;
layers = (
{
hints = (
{
horizontal = 1;
place = "{294, 20}";
type = Stem;
}
);
layerId = "A626400C-4409-4FF6-B7A4-72C4E5A5721C";
paths = (
{
closed = 1;
nodes = (
"60 401 OFFCURVE",
"168 338 OFFCURVE",
"184 335 CURVE SMOOTH",
"185 335 OFFCURVE",
"183 342 OFFCURVE",
"183 342 CURVE",
"158 361 OFFCURVE",
"129 385 OFFCURVE",
"106 405 CURVE SMOOTH",
"98 412 OFFCURVE",
"61 444 OFFCURVE",
"52 444 CURVE SMOOTH",
"47 444 OFFCURVE",
"50 417 OFFCURVE",
"53 413 CURVE SMOOTH"
);
}
);
width = 223;
}
);
note = grave;
unicode = 0060;
},
{
glyphname = a;
layers = (
{
hints = (
{
horizontal = 1;
place = "{257, 15}";
type = Stem;
}
);
layerId = "A626400C-4409-4FF6-B7A4-72C4E5A5721C";
paths = (
{
closed = 1;
nodes = (
"320 115 OFFCURVE",
"251 26 OFFCURVE",
"212 26 CURVE SMOOTH",
"204 26 OFFCURVE",
"198 32 OFFCURVE",
"198 40 CURVE SMOOTH",
"198 72 OFFCURVE",
"268 198 OFFCURVE",
"288 228 CURVE SMOOTH",
"295 239 OFFCURVE",
"309 261 OFFCURVE",
"323 261 CURVE SMOOTH",
"327 261 OFFCURVE",
"332 264 OFFCURVE",
"332 269 CURVE SMOOTH",
"332 272 OFFCURVE",
"330 273 OFFCURVE",
"327 273 CURVE SMOOTH",
"212 273 LINE SMOOTH",
"185 273 OFFCURVE",
"159 264 OFFCURVE",
"137 247 CURVE SMOOTH",
"76 200 OFFCURVE",
"13 105 OFFCURVE",
"4 27 CURVE",
"3 25 OFFCURVE",
"3 22 OFFCURVE",
"3 20 CURVE SMOOTH",
"3 8 OFFCURVE",
"8 -2 OFFCURVE",
"21 -2 CURVE SMOOTH",
"56 -2 OFFCURVE",
"86 20 OFFCURVE",
"112 42 CURVE SMOOTH",
"137 64 OFFCURVE",
"162 88 OFFCURVE",
"185 112 CURVE",
"171 90 OFFCURVE",
"146 43 OFFCURVE",
"146 16 CURVE SMOOTH",
"146 1 OFFCURVE",
"156 -3 OFFCURVE",
"170 -3 CURVE SMOOTH",
"234 -3 OFFCURVE",
"295 62 OFFCURVE",
"335 115 CURVE SMOOTH",
"341 123 OFFCURVE",
"355 140 OFFCURVE",
"347 148 CURVE"
);
},
{
closed = 1;
nodes = (
"240 199 OFFCURVE",
"102 32 OFFCURVE",
"62 32 CURVE SMOOTH",
"55 32 OFFCURVE",
"54 38 OFFCURVE",
"54 44 CURVE SMOOTH",
"54 86 OFFCURVE",
"122 197 OFFCURVE",
"153 226 CURVE SMOOTH",
"168 240 OFFCURVE",
"196 260 OFFCURVE",
"217 260 CURVE SMOOTH",
"230 260 OFFCURVE",
"240 256 OFFCURVE",
"240 241 CURVE SMOOTH"
);
}
);
width = 294;
}
);
note = a;
unicode = 0061;
},
{
glyphname = b;
layers = (
{
hints = (
{
horizontal = 1;
place = "{-9, 17}";
type = Stem;
},
{
horizontal = 1;
place = "{238, 34}";
type = Stem;
},
{
horizontal = 1;
place = "{575, 37}";
type = Stem;
},
{
place = "{27, 43}";
type = Stem;
},
{
place = "{255, 49}";
type = Stem;
},
{
place = "{502, 9}";
type = Stem;
}
);
layerId = "A626400C-4409-4FF6-B7A4-72C4E5A5721C";
paths = (
{
closed = 1;
nodes = (
"511 579 LINE SMOOTH",
"510 601 OFFCURVE",
"490 612 OFFCURVE",
"470 612 CURVE SMOOTH",
"413 612 OFFCURVE",
"354 563 OFFCURVE",
"315 525 CURVE SMOOTH",
"228 439 OFFCURVE",
"160 325 OFFCURVE",
"104 208 CURVE",
"81 179 OFFCURVE",
"55 152 OFFCURVE",
"37 128 CURVE SMOOTH",
"30 120 OFFCURVE",
"30 99 OFFCURVE",
"39 112 CURVE SMOOTH",
"45 120 OFFCURVE",
"63 138 OFFCURVE",
"80 158 CURVE",
"64 121 OFFCURVE",
"49 85 OFFCURVE",
"36 50 CURVE SMOOTH",
"32 41 OFFCURVE",
"27 27 OFFCURVE",
"27 18 CURVE SMOOTH",
"27 -6 OFFCURVE",
"59 -9 OFFCURVE",
"76 -9 CURVE SMOOTH",
"188 -9 OFFCURVE",
"290 139 OFFCURVE",
"304 239 CURVE SMOOTH",
"304 242 OFFCURVE",
"304 245 OFFCURVE",
"304 248 CURVE SMOOTH",
"304 260 OFFCURVE",
"301 272 OFFCURVE",
"287 272 CURVE SMOOTH",
"229 272 OFFCURVE",
"136 168 OFFCURVE",
"134 168 CURVE SMOOTH",
"132 168 OFFCURVE",
"133 172 OFFCURVE",
"133 172 CURVE",
"195 308 OFFCURVE",
"275 575 OFFCURVE",
"460 575 CURVE SMOOTH",
"478 575 OFFCURVE",
"502 569 OFFCURVE",
"502 548 CURVE SMOOTH",
"502 546 OFFCURVE",
"504 546 OFFCURVE",
"505 546 CURVE SMOOTH",
"507 546 OFFCURVE",
"511 547 OFFCURVE",
"511 550 CURVE SMOOTH"
);
},
{
closed = 1;
nodes = (
"255 183 OFFCURVE",
"187 72 OFFCURVE",
"155 43 CURVE SMOOTH",
"141 29 OFFCURVE",
"113 8 OFFCURVE",
"92 8 CURVE SMOOTH",
"79 8 OFFCURVE",
"70 13 OFFCURVE",
"70 28 CURVE SMOOTH",
"70 60 OFFCURVE",
"120 124 OFFCURVE",
"142 149 CURVE SMOOTH",
"158 168 OFFCURVE",
"223 238 OFFCURVE",
"246 238 CURVE SMOOTH",
"253 238 OFFCURVE",
"255 231 OFFCURVE",
"255 225 CURVE SMOOTH"
);
}
);
width = 269;
}
);
note = b;
unicode = 0062;
},
{
glyphname = c;
layers = (
{
hints = (
{
horizontal = 1;
place = "{-1, 15}";
type = Stem;
},
{
horizontal = 1;
place = "{255, 15}";
type = Stem;
}
);
layerId = "A626400C-4409-4FF6-B7A4-72C4E5A5721C";
paths = (
{
closed = 1;
nodes = (
"264 111 OFFCURVE",
"195 46 OFFCURVE",
"136 27 CURVE SMOOTH",
"86 10 OFFCURVE",
"41 8 OFFCURVE",
"66 84 CURVE SMOOTH",
"81 132 OFFCURVE",
"117 191 OFFCURVE",
"152 227 CURVE SMOOTH",
"163 239 OFFCURVE",
"196 261 OFFCURVE",
"220 261 CURVE SMOOTH",
"248 261 OFFCURVE",
"258 215 OFFCURVE",
"252 189 CURVE SMOOTH",
"250 180 OFFCURVE",
"263 185 OFFCURVE",
"267 194 CURVE SMOOTH",
"282 225 OFFCURVE",
"296 278 OFFCURVE",
"239 278 CURVE SMOOTH",
"213 278 OFFCURVE",
"170 258 OFFCURVE",
"149 245 CURVE SMOOTH",
"115 225 OFFCURVE",
"86 197 OFFCURVE",
"64 166 CURVE SMOOTH",
"24 110 OFFCURVE",
"-43 -10 OFFCURVE",
"79 -8 CURVE SMOOTH",
"153 -6 OFFCURVE",
"241 63 OFFCURVE",
"282 119 CURVE SMOOTH",
"286 125 OFFCURVE",
"297 140 OFFCURVE",
"290 147 CURVE"
);
}
);
width = 238;
}
);
note = c;
unicode = 0063;
},
{
glyphname = d;
layers = (
{
hints = (
{
horizontal = 1;
place = "{-3, 29}";
type = Stem;
},
{
horizontal = 1;
place = "{260, 13}";
type = Stem;
},
{
horizontal = 1;
place = "{581, 31}";
type = Stem;
},
{
place = "{3, 51}";
type = Stem;
},
{
place = "{146, 52}";
type = Stem;
},
{
place = "{240, 110}";
type = Stem;
},
{
horizontal = 1;
place = "{-2, 34}";
type = Stem;
}
);
layerId = "A626400C-4409-4FF6-B7A4-72C4E5A5721C";
paths = (
{
closed = 1;
nodes = (
"596 582 LINE SMOOTH",
"598 602 OFFCURVE",
"579 612 OFFCURVE",
"562 612 CURVE SMOOTH",
"481 612 OFFCURVE",
"416 551 OFFCURVE",
"361 458 CURVE SMOOTH",
"331 408 OFFCURVE",
"292 327 OFFCURVE",
"260 273 CURVE",
"211 273 OFFCURVE",
"178 278 OFFCURVE",
"137 247 CURVE SMOOTH",
"76 201 OFFCURVE",
"13 104 OFFCURVE",
"4 27 CURVE",
"3 25 OFFCURVE",
"3 22 OFFCURVE",
"3 20 CURVE SMOOTH",
"3 8 OFFCURVE",
"8 -2 OFFCURVE",
"21 -2 CURVE SMOOTH",
"56 -2 OFFCURVE",
"86 21 OFFCURVE",
"112 42 CURVE SMOOTH",
"137 64 OFFCURVE",
"162 88 OFFCURVE",
"185 112 CURVE",
"171 90 OFFCURVE",
"146 43 OFFCURVE",
"146 16 CURVE SMOOTH",
"146 1 OFFCURVE",
"156 -3 OFFCURVE",
"170 -3 CURVE SMOOTH",
"234 -3 OFFCURVE",
"298 66 OFFCURVE",
"335 115 CURVE SMOOTH",
"342 124 OFFCURVE",
"356 139 OFFCURVE",
"347 148 CURVE",
"327 120 OFFCURVE",
"243 26 OFFCURVE",
"210 26 CURVE SMOOTH",
"202 26 OFFCURVE",
"198 32 OFFCURVE",
"198 40 CURVE SMOOTH",
"198 66 OFFCURVE",
"259 185 OFFCURVE",
"273 216 CURVE SMOOTH",
"301 278 OFFCURVE",
"364 405 OFFCURVE",
"392 455 CURVE SMOOTH",
"430 522 OFFCURVE",
"462 563 OFFCURVE",
"499 576 CURVE SMOOTH",
"541 590 OFFCURVE",
"581 576 OFFCURVE",
"586 544 CURVE",
"587 543 OFFCURVE",
"588 542 OFFCURVE",
"589 542 CURVE SMOOTH",
"590 542 OFFCURVE",
"594 544 OFFCURVE",
"594 546 CURVE SMOOTH"
);
},
{
closed = 1;
nodes = (
"240 199 OFFCURVE",
"102 32 OFFCURVE",
"62 32 CURVE SMOOTH",
"55 32 OFFCURVE",
"54 38 OFFCURVE",
"54 44 CURVE SMOOTH",
"54 86 OFFCURVE",
"122 197 OFFCURVE",
"153 226 CURVE SMOOTH",
"168 240 OFFCURVE",
"196 260 OFFCURVE",
"217 260 CURVE SMOOTH",
"230 260 OFFCURVE",
"240 256 OFFCURVE",
"240 241 CURVE SMOOTH"
);
}
);
width = 294;
}
);
note = d;
unicode = 0064;
},
{
glyphname = e;
layers = (
{
hints = (
{
horizontal = 1;
place = "{-1, 15}";
type = Stem;
},
{
horizontal = 1;
place = "{263, 15}";
type = Stem;
}
);
layerId = "A626400C-4409-4FF6-B7A4-72C4E5A5721C";
paths = (
{
closed = 1;
nodes = (
"272 109 OFFCURVE",
"208 41 OFFCURVE",
"149 22 CURVE SMOOTH",
"53 -10 OFFCURVE",
"60 54 OFFCURVE",
"84 119 CURVE",
"108 119 OFFCURVE",
"137 125 OFFCURVE",
"157 131 CURVE SMOOTH",
"203 146 OFFCURVE",
"264 169 OFFCURVE",
"272 222 CURVE SMOOTH",
"276 249 OFFCURVE",
"269 277 OFFCURVE",
"227 277 CURVE SMOOTH",
"166 277 OFFCURVE",
"94 213 OFFCURVE",
"63 165 CURVE SMOOTH",
"29 109 OFFCURVE",
"-32 -8 OFFCURVE",
"91 -8 CURVE SMOOTH",
"175 -8 OFFCURVE",
"254 65 OFFCURVE",
"295 121 CURVE SMOOTH",
"301 130 OFFCURVE",
"306 137 OFFCURVE",
"299 144 CURVE"
);
},
{
closed = 1;
nodes = (
"248 260 OFFCURVE",
"241 172 OFFCURVE",
"154 146 CURVE SMOOTH",
"132 139 OFFCURVE",
"109 138 OFFCURVE",
"92 139 CURVE",
"112 183 OFFCURVE",
"153 259 OFFCURVE",
"211 260 CURVE SMOOTH"
);
}
);
width = 249;
}
);
note = e;
unicode = 0065;
},
{
glyphname = f;
layers = (
{
hints = (
{
horizontal = 1;
place = "{-226, 23}";
type = Stem;
},
{
horizontal = 1;
place = "{247, 26}";
type = Stem;
},
{
horizontal = 1;
place = "{582, 29}";
type = Stem;
},
{
place = "{469, 7}";
type = Stem;
}
);
layerId = "A626400C-4409-4FF6-B7A4-72C4E5A5721C";
paths = (
{
closed = 1;
nodes = (
"479 581 LINE SMOOTH",
"480 601 OFFCURVE",
"461 611 OFFCURVE",
"445 611 CURVE SMOOTH",
"404 611 OFFCURVE",
"366 599 OFFCURVE",
"332 575 CURVE SMOOTH",
"248 519 OFFCURVE",
"181 368 OFFCURVE",
"140 273 CURVE",
"128 273 LINE SMOOTH",
"115 273 OFFCURVE",
"84 259 OFFCURVE",
"81 245 CURVE",
"83 244 LINE",
"90 245 OFFCURVE",
"98 247 OFFCURVE",
"105 247 CURVE SMOOTH",
"128 247 LINE",
"89 151 OFFCURVE",
"60 50 OFFCURVE",
"13 -39 CURVE SMOOTH",
"-18 -97 OFFCURVE",
"-55 -158 OFFCURVE",
"-117 -190 CURVE SMOOTH",
"-194 -229 OFFCURVE",
"-303 -179 OFFCURVE",
"-268 -94 CURVE SMOOTH",
"-264 -84 OFFCURVE",
"-275 -80 OFFCURVE",
"-279 -90 CURVE SMOOTH",
"-292 -124 OFFCURVE",
"-306 -155 OFFCURVE",
"-299 -176 CURVE SMOOTH",
"-287 -210 OFFCURVE",
"-250 -226 OFFCURVE",
"-198 -226 CURVE SMOOTH",
"-58 -226 OFFCURVE",
"40 -66 OFFCURVE",
"91 46 CURVE SMOOTH",
"121 109 OFFCURVE",
"146 174 OFFCURVE",
"175 247 CURVE",
"212 246 OFFCURVE",
"239 244 OFFCURVE",
"272 262 CURVE SMOOTH",
"277 264 OFFCURVE",
"287 269 OFFCURVE",
"287 275 CURVE",
"278 273 OFFCURVE",
"267 273 OFFCURVE",
"258 273 CURVE SMOOTH",
"186 273 LINE",
"213 335 OFFCURVE",
"247 419 OFFCURVE",
"274 469 CURVE SMOOTH",
"312 539 OFFCURVE",
"343 571 OFFCURVE",
"380 579 CURVE SMOOTH",
"422 588 OFFCURVE",
"463 576 OFFCURVE",
"469 543 CURVE SMOOTH",
"470 540 OFFCURVE",
"476 542 OFFCURVE",
"476 545 CURVE SMOOTH"
);
}
);
width = 182;
}
);
note = f;
unicode = 0066;
},
{
glyphname = g;
layers = (
{
hints = (
{
horizontal = 1;
place = "{257, 15}";
type = Stem;
}
);
layerId = "A626400C-4409-4FF6-B7A4-72C4E5A5721C";
paths = (
{
closed = 1;
nodes = (
"334 272 OFFCURVE",
"331 273 OFFCURVE",
"329 273 CURVE SMOOTH",
"214 273 LINE SMOOTH",
"186 273 OFFCURVE",
"161 264 OFFCURVE",
"139 247 CURVE SMOOTH",
"78 201 OFFCURVE",
"15 104 OFFCURVE",
"5 27 CURVE SMOOTH",
"5 25 OFFCURVE",
"5 22 OFFCURVE",
"5 20 CURVE SMOOTH",
"5 8 OFFCURVE",
"9 -2 OFFCURVE",
"23 -2 CURVE SMOOTH",
"58 -2 OFFCURVE",
"88 21 OFFCURVE",
"113 42 CURVE SMOOTH",
"154 77 OFFCURVE",
"187 109 OFFCURVE",
"215 155 CURVE",
"151 -5 OFFCURVE",
"77 -224 OFFCURVE",
"-94 -297 CURVE SMOOTH",
"-116 -306 OFFCURVE",
"-142 -312 OFFCURVE",
"-166 -312 CURVE SMOOTH",
"-225 -312 OFFCURVE",
"-269 -280 OFFCURVE",
"-269 -218 CURVE SMOOTH",
"-269 -209 OFFCURVE",
"-267 -201 OFFCURVE",
"-267 -193 CURVE SMOOTH",
"-267 -191 OFFCURVE",
"-268 -191 OFFCURVE",
"-269 -191 CURVE SMOOTH",
"-285 -191 OFFCURVE",
"-282 -213 OFFCURVE",
"-282 -223 CURVE SMOOTH",
"-282 -242 OFFCURVE",
"-280 -262 OFFCURVE",
"-271 -279 CURVE SMOOTH",
"-248 -327 OFFCURVE",
"-196 -350 OFFCURVE",
"-145 -350 CURVE SMOOTH",
"-120 -350 OFFCURVE",
"-93 -345 OFFCURVE",
"-70 -335 CURVE SMOOTH",
"44 -286 OFFCURVE",
"107 -171 OFFCURVE",
"155 -57 CURVE SMOOTH",
"198 43 OFFCURVE",
"262 192 OFFCURVE",
"289 235 CURVE SMOOTH",
"295 246 OFFCURVE",
"310 261 OFFCURVE",
"325 261 CURVE SMOOTH",
"329 261 OFFCURVE",
"334 264 OFFCURVE",
"334 269 CURVE SMOOTH"
);
},
{
closed = 1;
nodes = (
"241 199 OFFCURVE",
"103 32 OFFCURVE",
"64 32 CURVE SMOOTH",
"57 32 OFFCURVE",
"55 38 OFFCURVE",
"55 44 CURVE SMOOTH",
"55 86 OFFCURVE",
"124 197 OFFCURVE",
"155 226 CURVE SMOOTH",
"170 240 OFFCURVE",
"197 260 OFFCURVE",
"218 260 CURVE SMOOTH",
"231 260 OFFCURVE",
"241 256 OFFCURVE",
"241 241 CURVE SMOOTH"
);
}
);
width = 265;
}
);
note = g;
unicode = 0067;
},
{
glyphname = h;
layers = (
{
hints = (
{
horizontal = 1;
place = "{-6, 31}";
type = Stem;
},
{
horizontal = 1;
place = "{236, 44}";
type = Stem;
},
{
horizontal = 1;
place = "{580, 35}";
type = Stem;
},
{
place = "{144, 50}";
type = Stem;
},
{
place = "{235, 62}";
type = Stem;
},
{
horizontal = 1;
place = "{-2, 21}";
target = up;
type = BottomGhost;
}
);
layerId = "A626400C-4409-4FF6-B7A4-72C4E5A5721C";
paths = (
{
closed = 1;
nodes = (
"524 604 OFFCURVE",
"499 615 OFFCURVE",
"468 615 CURVE SMOOTH",
"398 615 OFFCURVE",
"339 585 OFFCURVE",
"290 542 CURVE SMOOTH",
"207 469 OFFCURVE",
"143 352 OFFCURVE",
"98 252 CURVE SMOOTH",
"57 164 OFFCURVE",
"25 77 OFFCURVE",
"-5 8 CURVE SMOOTH",
"-13 -10 OFFCURVE",
"38 -1 OFFCURVE",
"42 12 CURVE SMOOTH",
"67 82 OFFCURVE",
"132 158 OFFCURVE",
"185 207 CURVE SMOOTH",
"198 218 OFFCURVE",
"253 262 OFFCURVE",
"229 214 CURVE SMOOTH",
"210 174 OFFCURVE",
"165 88 OFFCURVE",
"148 42 CURVE SMOOTH",
"134 4 OFFCURVE",
"157 -6 OFFCURVE",
"182 -6 CURVE SMOOTH",
"226 -6 OFFCURVE",
"261 26 OFFCURVE",
"287 56 CURVE SMOOTH",
"302 73 OFFCURVE",
"317 91 OFFCURVE",
"332 111 CURVE SMOOTH",
"340 120 OFFCURVE",
"342 141 OFFCURVE",
"339 138 CURVE SMOOTH",
"315 108 OFFCURVE",
"278 65 OFFCURVE",
"242 38 CURVE SMOOTH",
"231 30 OFFCURVE",
"194 11 OFFCURVE",
"194 40 CURVE SMOOTH",
"194 72 OFFCURVE",
"264 198 OFFCURVE",
"283 228 CURVE SMOOTH",
"322 289 OFFCURVE",
"274 289 OFFCURVE",
"233 266 CURVE SMOOTH",
"192 242 OFFCURVE",
"134 182 OFFCURVE",
"74 102 CURVE",
"90 144 OFFCURVE",
"108 196 OFFCURVE",
"127 245 CURVE SMOOTH",
"165 346 OFFCURVE",
"218 451 OFFCURVE",
"290 514 CURVE SMOOTH",
"336 554 OFFCURVE",
"390 580 OFFCURVE",
"456 580 CURVE SMOOTH",
"492 580 OFFCURVE",
"519 567 OFFCURVE",
"514 532 CURVE",
"513 531 OFFCURVE",
"515 531 OFFCURVE",
"516 531 CURVE SMOOTH",
"519 531 OFFCURVE",
"523 532 OFFCURVE",
"524 535 CURVE SMOOTH",
"527 547 OFFCURVE",
"528 561 OFFCURVE",
"527 572 CURVE SMOOTH"
);
}
);
width = 294;
}
);
note = h;
unicode = 0068;
},
{
glyphname = i;
layers = (
{
hints = (
{
horizontal = 1;
place = "{-1, 15}";
type = Stem;
}
);
layerId = "A626400C-4409-4FF6-B7A4-72C4E5A5721C";
paths = (
{
closed = 1;
nodes = (
"266 438 OFFCURVE",
"248 440 OFFCURVE",
"233 430 CURVE SMOOTH",
"219 421 OFFCURVE",
"214 403 OFFCURVE",
"222 391 CURVE SMOOTH",
"230 380 OFFCURVE",
"248 378 OFFCURVE",
"262 388 CURVE SMOOTH",
"277 397 OFFCURVE",
"282 415 OFFCURVE",
"274 427 CURVE SMOOTH"
);
},
{
closed = 1;
nodes = (
"247 142 OFFCURVE",
"246 146 OFFCURVE",
"245 147 CURVE",
"242 144 OFFCURVE",
"230 130 OFFCURVE",
"223 122 CURVE SMOOTH",
"191 84 OFFCURVE",
"137 26 OFFCURVE",
"111 26 CURVE SMOOTH",
"102 26 OFFCURVE",
"97 32 OFFCURVE",
"97 40 CURVE SMOOTH",
"97 55 OFFCURVE",
"112 92 OFFCURVE",
"131 128 CURVE SMOOTH",
"158 179 OFFCURVE",
"201 265 OFFCURVE",
"214 280 CURVE SMOOTH",
"220 287 OFFCURVE",
"216 296 OFFCURVE",
"208 288 CURVE SMOOTH",
"197 279 OFFCURVE",
"160 273 OFFCURVE",
"146 271 CURVE",
"135 255 OFFCURVE",
"75 175 OFFCURVE",
"37 128 CURVE SMOOTH",
"30 120 OFFCURVE",
"30 99 OFFCURVE",
"39 112 CURVE SMOOTH",
"57 136 OFFCURVE",
"106 195 OFFCURVE",
"135 226 CURVE",
"127 210 OFFCURVE",
"97 145 OFFCURVE",
"84 118 CURVE SMOOTH",
"73 94 OFFCURVE",
"45 43 OFFCURVE",
"45 16 CURVE SMOOTH",
"45 1 OFFCURVE",
"54 -3 OFFCURVE",
"68 -3 CURVE SMOOTH",
"138 -3 OFFCURVE",
"192 62 OFFCURVE",
"234 115 CURVE SMOOTH",
"239 122 OFFCURVE",
"245 130 OFFCURVE",
"247 140 CURVE SMOOTH"
);
}
);
width = 192;
}
);
note = i;
unicode = 0069;
},
{
glyphname = j;
layers = (
{
hints = (
{
horizontal = 1;
place = "{-350, 38}";
type = Stem;
},
{
horizontal = 1;
place = "{261, 14}";
type = Stem;
},
{
horizontal = 1;
place = "{382, 54}";
type = Stem;
},
{
place = "{-419, 12}";
type = Stem;
},
{
place = "{171, 60}";
type = Stem;
}
);
layerId = "A626400C-4409-4FF6-B7A4-72C4E5A5721C";
paths = (
{
closed = 1;
nodes = (
"219 438 OFFCURVE",
"201 440 OFFCURVE",
"187 430 CURVE SMOOTH",
"172 421 OFFCURVE",
"167 403 OFFCURVE",
"175 391 CURVE SMOOTH",
"183 380 OFFCURVE",
"201 378 OFFCURVE",
"215 388 CURVE SMOOTH",
"230 397 OFFCURVE",
"235 415 OFFCURVE",
"227 427 CURVE SMOOTH"
);
},
{
closed = 1;
nodes = (
"196 286 OFFCURVE",
"129 267 OFFCURVE",
"101 238 CURVE SMOOTH",
"95 231 OFFCURVE",
"70 128 OFFCURVE",
"23 17 CURVE SMOOTH",
"-33 -112 OFFCURVE",
"-106 -243 OFFCURVE",
"-231 -297 CURVE SMOOTH",
"-254 -306 OFFCURVE",
"-280 -312 OFFCURVE",
"-304 -312 CURVE SMOOTH",
"-363 -312 OFFCURVE",
"-407 -280 OFFCURVE",
"-407 -218 CURVE SMOOTH",
"-407 -209 OFFCURVE",
"-404 -201 OFFCURVE",
"-404 -193 CURVE SMOOTH",
"-404 -191 OFFCURVE",
"-406 -191 OFFCURVE",
"-407 -191 CURVE SMOOTH",
"-422 -191 OFFCURVE",
"-419 -213 OFFCURVE",
"-419 -223 CURVE SMOOTH",
"-419 -242 OFFCURVE",
"-417 -262 OFFCURVE",
"-409 -279 CURVE SMOOTH",
"-386 -327 OFFCURVE",
"-334 -350 OFFCURVE",
"-283 -350 CURVE SMOOTH",
"-257 -350 OFFCURVE",
"-231 -345 OFFCURVE",
"-208 -335 CURVE SMOOTH",
"-94 -286 OFFCURVE",
"-30 -171 OFFCURVE",
"18 -57 CURVE SMOOTH",
"60 43 OFFCURVE",
"128 206 OFFCURVE",
"153 242 CURVE SMOOTH",
"160 252 OFFCURVE",
"172 261 OFFCURVE",
"187 261 CURVE SMOOTH",
"191 261 OFFCURVE",
"196 264 OFFCURVE",
"196 269 CURVE SMOOTH"
);
}
);
width = 135;
}
);
note = j;
unicode = 006A;
},
{
glyphname = k;
layers = (
{
hints = (
{
horizontal = 1;
place = "{-5, 30}";
type = Stem;
},
{
horizontal = 1;
place = "{234, 46}";
type = Stem;
},
{
horizontal = 1;
place = "{575, 37}";
type = Stem;
},
{
place = "{284, 30}";
type = Stem;
},
{
place = "{474, 9}";
type = Stem;
},
{
horizontal = 1;
place = "{-2, 21}";
target = up;
type = BottomGhost;
}
);
layerId = "A626400C-4409-4FF6-B7A4-72C4E5A5721C";
paths = (
{
closed = 1;
nodes = (
"483 579 LINE SMOOTH",
"483 601 OFFCURVE",
"462 612 OFFCURVE",
"442 612 CURVE SMOOTH",
"350 612 OFFCURVE",
"255 506 OFFCURVE",
"199 405 CURVE SMOOTH",
"119 264 OFFCURVE",
"70 146 OFFCURVE",
"9 8 CURVE SMOOTH",
"1 -10 OFFCURVE",
"52 -1 OFFCURVE",
"57 12 CURVE SMOOTH",
"66 39 OFFCURVE",
"97 92 OFFCURVE",
"135 140 CURVE",
"142 108 OFFCURVE",
"158 35 OFFCURVE",
"175 12 CURVE SMOOTH",
"197 -17 OFFCURVE",
"246 -4 OFFCURVE",
"272 17 CURVE SMOOTH",
"306 44 OFFCURVE",
"337 79 OFFCURVE",
"364 113 CURVE SMOOTH",
"369 119 OFFCURVE",
"377 129 OFFCURVE",
"378 137 CURVE",
"379 140 OFFCURVE",
"378 144 OFFCURVE",
"376 147 CURVE",
"352 116 OFFCURVE",
"281 26 OFFCURVE",
"244 25 CURVE SMOOTH",
"236 25 OFFCURVE",
"222 27 OFFCURVE",
"215 38 CURVE SMOOTH",
"200 61 OFFCURVE",
"183 134 OFFCURVE",
"174 184 CURVE",
"203 214 OFFCURVE",
"233 234 OFFCURVE",
"258 234 CURVE SMOOTH",
"271 234 OFFCURVE",
"284 231 OFFCURVE",
"284 215 CURVE SMOOTH",
"284 212 OFFCURVE",
"289 210 OFFCURVE",
"291 212 CURVE SMOOTH",
"295 216 OFFCURVE",
"294 218 OFFCURVE",
"301 228 CURVE SMOOTH",
"339 289 OFFCURVE",
"288 289 OFFCURVE",
"248 266 CURVE SMOOTH",
"226 253 OFFCURVE",
"200 231 OFFCURVE",
"171 201 CURVE",
"168 218 LINE",
"158 206 OFFCURVE",
"151 201 OFFCURVE",
"142 188 CURVE SMOOTH",
"133 177 OFFCURVE",
"130 170 OFFCURVE",
"132 156 CURVE",
"118 140 OFFCURVE",
"103 121 OFFCURVE",
"89 102 CURVE",
"126 201 OFFCURVE",
"185 352 OFFCURVE",
"245 445 CURVE SMOOTH",
"276 493 OFFCURVE",
"308 539 OFFCURVE",
"362 561 CURVE SMOOTH",
"385 570 OFFCURVE",
"409 575 OFFCURVE",
"433 575 CURVE SMOOTH",
"450 575 OFFCURVE",
"474 569 OFFCURVE",
"474 548 CURVE SMOOTH",
"474 546 OFFCURVE",
"476 546 OFFCURVE",
"477 546 CURVE SMOOTH",
"479 546 OFFCURVE",
"483 547 OFFCURVE",
"483 550 CURVE SMOOTH"
);
}
);
width = 324;
}
);
note = k;
unicode = 006B;
},
{
glyphname = l;
layers = (
{
hints = (
{
horizontal = 1;
place = "{-1, 15}";
type = Stem;
}
);
layerId = "A626400C-4409-4FF6-B7A4-72C4E5A5721C";
paths = (
{
closed = 1;
nodes = (
"414 604 OFFCURVE",
"407 613 OFFCURVE",
"393 613 CURVE SMOOTH",
"358 613 OFFCURVE",
"331 578 OFFCURVE",
"297 565 CURVE",
"243 494 OFFCURVE",
"156 306 OFFCURVE",
"104 208 CURVE",
"81 179 OFFCURVE",
"55 152 OFFCURVE",
"37 128 CURVE SMOOTH",
"30 120 OFFCURVE",
"30 99 OFFCURVE",
"39 112 CURVE SMOOTH",
"46 120 OFFCURVE",
"64 139 OFFCURVE",
"81 158 CURVE",
"62 116 OFFCURVE",
"10 3 OFFCURVE",
"95 -2 CURVE SMOOTH",
"136 -5 OFFCURVE",
"178 29 OFFCURVE",
"204 55 CURVE SMOOTH",
"227 79 OFFCURVE",
"244 101 OFFCURVE",
"254 113 CURVE SMOOTH",
"261 122 OFFCURVE",
"276 139 OFFCURVE",
"267 148 CURVE",
"264 144 OFFCURVE",
"255 133 OFFCURVE",
"246 122 CURVE SMOOTH",
"214 84 OFFCURVE",
"166 32 OFFCURVE",
"133 26 CURVE SMOOTH",
"44 11 OFFCURVE",
"100 142 OFFCURVE",
"125 188 CURVE",
"155 215 OFFCURVE",
"250 297 OFFCURVE",
"331 410 CURVE SMOOTH",
"362 452 OFFCURVE",
"428 549 OFFCURVE",
"417 593 CURVE SMOOTH"
);
},
{
closed = 1;
nodes = (
"253 328 OFFCURVE",
"183 262 OFFCURVE",
"142 228 CURVE",
"196 327 OFFCURVE",
"292 517 OFFCURVE",
"347 576 CURVE SMOOTH",
"382 613 OFFCURVE",
"391 591 OFFCURVE",
"382 557 CURVE SMOOTH",
"370 509 OFFCURVE",
"325 438 OFFCURVE",
"314 420 CURVE SMOOTH"
);
}
);
width = 214;
}
);
note = l;
unicode = 006C;
},
{
glyphname = m;
layers = (
{
hints = (
{
horizontal = 1;
place = "{273, 15}";
type = Stem;
}
);
layerId = "A626400C-4409-4FF6-B7A4-72C4E5A5721C";
paths = (
{
closed = 1;
nodes = (
"521 145 OFFCURVE",
"510 131 OFFCURVE",
"501 121 CURVE SMOOTH",
"468 81 OFFCURVE",
"414 26 OFFCURVE",
"388 26 CURVE SMOOTH",
"380 26 OFFCURVE",
"374 32 OFFCURVE",
"374 40 CURVE SMOOTH",
"374 72 OFFCURVE",
"444 198 OFFCURVE",
"464 228 CURVE SMOOTH",
"483 258 OFFCURVE",
"485 282 OFFCURVE",
"442 275 CURVE SMOOTH",
"408 270 OFFCURVE",
"348 219 OFFCURVE",
"325 195 CURVE SMOOTH",
"310 180 OFFCURVE",
"295 165 OFFCURVE",
"278 148 CURVE",
"293 176 OFFCURVE",
"315 216 OFFCURVE",
"323 232 CURVE SMOOTH",
"336 256 OFFCURVE",
"345 282 OFFCURVE",
"302 275 CURVE SMOOTH",
"268 270 OFFCURVE",
"208 219 OFFCURVE",
"185 195 CURVE SMOOTH",
"177 186 OFFCURVE",
"153 160 OFFCURVE",
"132 135 CURVE",
"159 185 OFFCURVE",
"201 265 OFFCURVE",
"214 280 CURVE SMOOTH",
"220 287 OFFCURVE",
"216 296 OFFCURVE",
"208 288 CURVE SMOOTH",
"197 279 OFFCURVE",
"160 273 OFFCURVE",
"146 271 CURVE",
"135 255 OFFCURVE",
"75 175 OFFCURVE",
"37 128 CURVE SMOOTH",
"30 120 OFFCURVE",
"30 99 OFFCURVE",
"39 112 CURVE SMOOTH",
"57 136 OFFCURVE",
"106 195 OFFCURVE",
"135 226 CURVE",
"127 210 OFFCURVE",
"86 103 OFFCURVE",
"59 38 CURVE SMOOTH",
"52 21 OFFCURVE",
"46 6 OFFCURVE",
"40 -6 CURVE SMOOTH",
"30 -27 OFFCURVE",
"58 -4 OFFCURVE",
"84 -2 CURVE",
"92 18 OFFCURVE",
"105 51 OFFCURVE",
"116 75 CURVE SMOOTH",
"134 115 OFFCURVE",
"163 149 OFFCURVE",
"195 182 CURVE SMOOTH",
"206 194 OFFCURVE",
"295 271 OFFCURVE",
"275 228 CURVE SMOOTH",
"267 210 OFFCURVE",
"245 164 OFFCURVE",
"221 118 CURVE SMOOTH",
"210 94 OFFCURVE",
"188 52 OFFCURVE",
"188 25 CURVE SMOOTH",
"188 10 OFFCURVE",
"204 0 OFFCURVE",
"223 17 CURVE",
"238 71 OFFCURVE",
"301 147 OFFCURVE",
"335 182 CURVE SMOOTH",
"346 194 OFFCURVE",
"435 271 OFFCURVE",
"415 228 CURVE SMOOTH",
"407 210 OFFCURVE",
"385 164 OFFCURVE",
"361 118 CURVE SMOOTH",
"350 94 OFFCURVE",
"322 43 OFFCURVE",
"322 16 CURVE SMOOTH",
"322 1 OFFCURVE",
"338 -5 OFFCURVE",
"352 -4 CURVE SMOOTH",
"418 1 OFFCURVE",
"473 64 OFFCURVE",
"511 115 CURVE SMOOTH",
"518 124 OFFCURVE",
"529 137 OFFCURVE",
"522 147 CURVE"
);
}
);
width = 470;
}
);
note = m;
unicode = 006D;
},
{
glyphname = n;
layers = (
{
hints = (
{
horizontal = 1;
place = "{273, 15}";
type = Stem;
}
);
layerId = "A626400C-4409-4FF6-B7A4-72C4E5A5721C";
paths = (
{
closed = 1;
nodes = (
"333 87 OFFCURVE",
"285 30 OFFCURVE",
"252 30 CURVE SMOOTH",
"244 30 OFFCURVE",
"238 36 OFFCURVE",
"238 44 CURVE SMOOTH",
"238 76 OFFCURVE",
"304 198 OFFCURVE",
"324 228 CURVE SMOOTH",
"343 258 OFFCURVE",
"345 282 OFFCURVE",
"302 275 CURVE SMOOTH",
"268 270 OFFCURVE",
"208 219 OFFCURVE",
"185 195 CURVE SMOOTH",
"167 176 OFFCURVE",
"148 156 OFFCURVE",
"132 135 CURVE",
"159 185 OFFCURVE",
"201 265 OFFCURVE",
"214 280 CURVE SMOOTH",
"220 287 OFFCURVE",
"216 296 OFFCURVE",
"208 288 CURVE SMOOTH",
"197 279 OFFCURVE",
"160 273 OFFCURVE",
"146 271 CURVE",
"135 255 OFFCURVE",
"75 175 OFFCURVE",
"37 128 CURVE SMOOTH",
"30 120 OFFCURVE",
"30 99 OFFCURVE",
"39 112 CURVE SMOOTH",
"57 136 OFFCURVE",
"106 195 OFFCURVE",
"135 226 CURVE",
"127 210 OFFCURVE",
"86 103 OFFCURVE",
"59 38 CURVE SMOOTH",
"52 21 OFFCURVE",
"46 6 OFFCURVE",
"40 -6 CURVE SMOOTH",
"30 -27 OFFCURVE",
"58 -4 OFFCURVE",
"84 -2 CURVE",
"109 65 OFFCURVE",
"145 130 OFFCURVE",
"195 182 CURVE SMOOTH",
"206 194 OFFCURVE",
"295 271 OFFCURVE",
"275 228 CURVE SMOOTH",
"267 210 OFFCURVE",
"245 164 OFFCURVE",
"221 118 CURVE SMOOTH",
"207 90 OFFCURVE",
"158 -8 OFFCURVE",
"222 -8 CURVE SMOOTH",
"243 -8 OFFCURVE",
"267 5 OFFCURVE",
"280 15 CURVE SMOOTH",
"307 36 OFFCURVE",
"351 88 OFFCURVE",
"371 115 CURVE SMOOTH",
"378 124 OFFCURVE",
"389 137 OFFCURVE",
"382 147 CURVE"
);
}
);
width = 330;
}
);
note = n;
unicode = 006E;
},
{
glyphname = o;
layers = (
{
hints = (
{
horizontal = 1;
place = "{-3, 15}";
type = Stem;
},
{
horizontal = 1;
place = "{264, 15}";
type = Stem;
}
);
layerId = "A626400C-4409-4FF6-B7A4-72C4E5A5721C";
paths = (
{
closed = 1;
nodes = (
"279 268 OFFCURVE",
"260 278 OFFCURVE",
"239 278 CURVE SMOOTH",
"213 278 OFFCURVE",
"170 258 OFFCURVE",
"149 245 CURVE SMOOTH",
"115 225 OFFCURVE",
"86 197 OFFCURVE",
"64 166 CURVE SMOOTH",
"38 130 OFFCURVE",
"9 79 OFFCURVE",
"9 33 CURVE SMOOTH",
"9 4 OFFCURVE",
"28 -2 OFFCURVE",
"50 -2 CURVE SMOOTH",
"95 -2 OFFCURVE",
"138 15 OFFCURVE",
"176 50 CURVE",
"233 42 OFFCURVE",
"280 78 OFFCURVE",
"310 120 CURVE SMOOTH",
"315 127 OFFCURVE",
"315 144 OFFCURVE",
"309 137 CURVE SMOOTH",
"278 96 OFFCURVE",
"236 63 OFFCURVE",
"187 63 CURVE",
"202 77 OFFCURVE",
"213 91 OFFCURVE",
"225 107 CURVE SMOOTH",
"250 143 OFFCURVE",
"279 193 OFFCURVE",
"279 239 CURVE SMOOTH"
);
},
{
closed = 1;
nodes = (
"235 207 OFFCURVE",
"210 155 OFFCURVE",
"189 120 CURVE SMOOTH",
"173 93 OFFCURVE",
"154 67 OFFCURVE",
"132 44 CURVE SMOOTH",
"115 27 OFFCURVE",
"66 -3 OFFCURVE",
"58 29 CURVE SMOOTH",
"49 65 OFFCURVE",
"78 120 OFFCURVE",
"99 155 CURVE SMOOTH",
"115 183 OFFCURVE",
"134 208 OFFCURVE",
"156 231 CURVE SMOOTH",
"173 249 OFFCURVE",
"227 281 OFFCURVE",
"231 248 CURVE SMOOTH"
);
}
);
width = 265;
}
);
note = o;
unicode = 006F;
},
{
glyphname = p;
layers = (
{
hints = (
{
horizontal = 1;
place = "{264, 15}";
type = Stem;
}
);
layerId = "A626400C-4409-4FF6-B7A4-72C4E5A5721C";
paths = (
{
closed = 1;
nodes = (
"299 397 LINE SMOOTH",
"300 411 OFFCURVE",
"286 418 OFFCURVE",
"274 418 CURVE SMOOTH",
"227 418 OFFCURVE",
"179 377 OFFCURVE",
"138 294 CURVE SMOOTH",
"94 204 OFFCURVE",
"62 112 OFFCURVE",
"23 17 CURVE SMOOTH",
"-31 -113 OFFCURVE",
"-106 -243 OFFCURVE",
"-231 -297 CURVE SMOOTH",
"-254 -306 OFFCURVE",
"-280 -312 OFFCURVE",
"-304 -312 CURVE SMOOTH",
"-363 -312 OFFCURVE",
"-407 -280 OFFCURVE",
"-407 -218 CURVE SMOOTH",
"-407 -209 OFFCURVE",
"-404 -201 OFFCURVE",
"-404 -193 CURVE SMOOTH",
"-404 -191 OFFCURVE",
"-406 -191 OFFCURVE",
"-407 -191 CURVE SMOOTH",
"-422 -191 OFFCURVE",
"-419 -213 OFFCURVE",
"-419 -223 CURVE SMOOTH",
"-419 -242 OFFCURVE",
"-417 -262 OFFCURVE",
"-409 -279 CURVE SMOOTH",
"-386 -327 OFFCURVE",
"-334 -350 OFFCURVE",
"-283 -350 CURVE SMOOTH",
"-257 -350 OFFCURVE",
"-231 -345 OFFCURVE",
"-208 -335 CURVE SMOOTH",
"-81 -281 OFFCURVE",
"-7 -133 OFFCURVE",
"36 -6 CURVE",
"39 -9 OFFCURVE",
"53 -9 OFFCURVE",
"60 -9 CURVE SMOOTH",
"172 -9 OFFCURVE",
"274 139 OFFCURVE",
"287 239 CURVE SMOOTH",
"289 252 OFFCURVE",
"288 272 OFFCURVE",
"271 272 CURVE SMOOTH",
"213 272 OFFCURVE",
"121 169 OFFCURVE",
"103 152 CURVE",
"128 243 OFFCURVE",
"175 388 OFFCURVE",
"267 388 CURVE SMOOTH",
"277 388 OFFCURVE",
"292 383 OFFCURVE",
"292 367 CURVE SMOOTH",
"292 366 OFFCURVE",
"293 366 OFFCURVE",
"293 366 CURVE",
"294 366 OFFCURVE",
"297 367 OFFCURVE",
"297 369 CURVE SMOOTH"
);
},
{
closed = 1;
nodes = (
"239 183 OFFCURVE",
"170 72 OFFCURVE",
"139 43 CURVE SMOOTH",
"125 29 OFFCURVE",
"95 8 OFFCURVE",
"75 8 CURVE SMOOTH",
"62 8 OFFCURVE",
"54 13 OFFCURVE",
"54 28 CURVE SMOOTH",
"54 60 OFFCURVE",
"103 124 OFFCURVE",
"124 149 CURVE SMOOTH",
"140 168 OFFCURVE",
"207 238 OFFCURVE",
"230 238 CURVE SMOOTH",
"237 238 OFFCURVE",
"239 231 OFFCURVE",
"239 225 CURVE SMOOTH"
);
}
);
width = 255;
}
);
note = p;
unicode = 0070;
},
{
glyphname = q;
layers = (
{
hints = (
{
horizontal = 1;
place = "{257, 15}";
type = Stem;
},
{
place = "{91, 39}";
type = Stem;
}
);
layerId = "A626400C-4409-4FF6-B7A4-72C4E5A5721C";
paths = (
{
closed = 1;
nodes = (
"261 59 OFFCURVE",
"144 -89 OFFCURVE",
"84 -188 CURVE",
"126 -70 OFFCURVE",
"223 125 OFFCURVE",
"289 228 CURVE SMOOTH",
"296 239 OFFCURVE",
"310 261 OFFCURVE",
"325 261 CURVE SMOOTH",
"329 261 OFFCURVE",
"334 264 OFFCURVE",
"334 269 CURVE SMOOTH",
"334 272 OFFCURVE",
"331 273 OFFCURVE",
"329 273 CURVE SMOOTH",
"214 273 LINE SMOOTH",
"186 273 OFFCURVE",
"160 264 OFFCURVE",
"139 247 CURVE SMOOTH",
"78 200 OFFCURVE",
"15 105 OFFCURVE",
"5 27 CURVE SMOOTH",
"5 25 OFFCURVE",
"5 22 OFFCURVE",
"5 20 CURVE SMOOTH",
"5 8 OFFCURVE",
"9 -2 OFFCURVE",
"23 -2 CURVE SMOOTH",
"58 -2 OFFCURVE",
"88 20 OFFCURVE",
"113 42 CURVE SMOOTH",
"138 64 OFFCURVE",
"164 88 OFFCURVE",
"187 112 CURVE",
"173 90 OFFCURVE",
"-5 -309 OFFCURVE",
"-8 -335 CURVE SMOOTH",
"-10 -357 OFFCURVE",
"48 -323 OFFCURVE",
"52 -311 CURVE SMOOTH",
"94 -179 OFFCURVE",
"231 -3 OFFCURVE",
"323 118 CURVE SMOOTH",
"331 129 OFFCURVE",
"336 141 OFFCURVE",
"331 147 CURVE"
);
},
{
closed = 1;
nodes = (
"241 199 OFFCURVE",
"103 32 OFFCURVE",
"64 32 CURVE SMOOTH",
"57 32 OFFCURVE",
"55 38 OFFCURVE",
"55 44 CURVE SMOOTH",
"55 86 OFFCURVE",
"124 197 OFFCURVE",
"155 226 CURVE SMOOTH",
"170 240 OFFCURVE",
"197 260 OFFCURVE",
"218 260 CURVE SMOOTH",
"231 260 OFFCURVE",
"241 256 OFFCURVE",
"241 241 CURVE SMOOTH"
);
}
);
width = 279;
}
);
note = q;
unicode = 0071;
},
{
glyphname = r;
layers = (
{
hints = (
{
horizontal = 1;
place = "{0, 15}";
type = Stem;
},
{
horizontal = 1;
place = "{267, 15}";
type = Stem;
}
);
layerId = "A626400C-4409-4FF6-B7A4-72C4E5A5721C";
paths = (
{
closed = 1;
nodes = (
"315 273 OFFCURVE",
"303 279 OFFCURVE",
"286 279 CURVE SMOOTH",
"238 279 OFFCURVE",
"171 199 OFFCURVE",
"144 158 CURVE",
"170 206 OFFCURVE",
"202 267 OFFCURVE",
"214 280 CURVE SMOOTH",
"220 287 OFFCURVE",
"216 296 OFFCURVE",
"208 288 CURVE SMOOTH",
"197 279 OFFCURVE",
"160 273 OFFCURVE",
"146 271 CURVE",
"135 255 OFFCURVE",
"75 175 OFFCURVE",
"37 128 CURVE SMOOTH",
"30 120 OFFCURVE",
"30 99 OFFCURVE",
"39 112 CURVE SMOOTH",
"57 136 OFFCURVE",
"106 195 OFFCURVE",
"135 226 CURVE",
"127 210 OFFCURVE",
"86 103 OFFCURVE",
"59 38 CURVE SMOOTH",
"52 21 OFFCURVE",
"46 6 OFFCURVE",
"40 -6 CURVE SMOOTH",
"30 -26 OFFCURVE",
"58 -4 OFFCURVE",
"84 -2 CURVE",
"88 10 OFFCURVE",
"97 32 OFFCURVE",
"105 54 CURVE SMOOTH",
"120 92 OFFCURVE",
"140 132 OFFCURVE",
"179 178 CURVE SMOOTH",
"209 212 OFFCURVE",
"243 244 OFFCURVE",
"264 244 CURVE SMOOTH",
"295 244 OFFCURVE",
"296 203 OFFCURVE",
"292 178 CURVE SMOOTH",
"291 173 OFFCURVE",
"302 178 OFFCURVE",
"304 182 CURVE SMOOTH",
"310 195 OFFCURVE",
"333 226 OFFCURVE",
"322 254 CURVE SMOOTH"
);
}
);
width = 272;
}
);
note = r;
unicode = 0072;
},
{
glyphname = s;
layers = (
{
hints = (
{
horizontal = 1;
place = "{282, 16}";
type = Stem;
}
);
layerId = "A626400C-4409-4FF6-B7A4-72C4E5A5721C";
paths = (
{
closed = 1;
nodes = (
"244 277 OFFCURVE",
"216 281 OFFCURVE",
"188 281 CURVE SMOOTH",
"164 281 OFFCURVE",
"141 269 OFFCURVE",
"126 252 CURVE SMOOTH",
"112 236 OFFCURVE",
"104 219 OFFCURVE",
"82 186 CURVE SMOOTH",
"74 175 OFFCURVE",
"59 154 OFFCURVE",
"48 142 CURVE SMOOTH",
"37 130 OFFCURVE",
"37 109 OFFCURVE",
"49 125 CURVE SMOOTH",
"62 141 OFFCURVE",
"81 163 OFFCURVE",
"99 189 CURVE",
"99 185 OFFCURVE",
"100 181 OFFCURVE",
"101 177 CURVE SMOOTH",
"105 156 OFFCURVE",
"120 137 OFFCURVE",
"135 121 CURVE SMOOTH",
"174 78 OFFCURVE",
"175 42 OFFCURVE",
"155 17 CURVE SMOOTH",
"138 -3 OFFCURVE",
"87 -5 OFFCURVE",
"65 7 CURVE SMOOTH",
"54 14 OFFCURVE",
"42 23 OFFCURVE",
"34 34 CURVE SMOOTH",
"25 47 OFFCURVE",
"21 64 OFFCURVE",
"23 80 CURVE SMOOTH",
"24 86 OFFCURVE",
"27 93 OFFCURVE",
"29 97 CURVE",
"31 99 OFFCURVE",
"27 104 OFFCURVE",
"22 101 CURVE SMOOTH",
"7 89 OFFCURVE",
"-4 56 OFFCURVE",
"0 37 CURVE SMOOTH",
"9 -3 OFFCURVE",
"58 -16 OFFCURVE",
"94 -16 CURVE SMOOTH",
"172 -16 OFFCURVE",
"240 65 OFFCURVE",
"187 136 CURVE SMOOTH",
"172 156 OFFCURVE",
"137 186 OFFCURVE",
"132 207 CURVE SMOOTH",
"121 258 OFFCURVE",
"195 285 OFFCURVE",
"213 235 CURVE SMOOTH",
"219 221 OFFCURVE",
"220 203 OFFCURVE",
"217 189 CURVE SMOOTH",
"214 180 OFFCURVE",
"227 185 OFFCURVE",
"231 194 CURVE SMOOTH",
"238 208 OFFCURVE",
"245 226 OFFCURVE",
"245 242 CURVE SMOOTH"
);
}
);
width = 232;
}
);
note = s;
unicode = 0073;
},
{
glyphname = t;
layers = (
{
hints = (
{
horizontal = 1;
place = "{-1, 15}";
type = Stem;
},
{
horizontal = 1;
place = "{232, 22}";
type = Stem;
}
);
layerId = "A626400C-4409-4FF6-B7A4-72C4E5A5721C";
paths = (
{
closed = 1;
nodes = (
"297 450 OFFCURVE",
"292 454 OFFCURVE",
"283 445 CURVE SMOOTH",
"268 430 OFFCURVE",
"236 413 OFFCURVE",
"225 412 CURVE",
"200 356 OFFCURVE",
"174 309 OFFCURVE",
"147 273 CURVE",
"137 273 OFFCURVE",
"110 274 OFFCURVE",
"109 274 CURVE SMOOTH",
"98 274 OFFCURVE",
"66 242 OFFCURVE",
"77 242 CURVE SMOOTH",
"78 242 OFFCURVE",
"115 247 OFFCURVE",
"131 247 CURVE",
"105 213 OFFCURVE",
"61 158 OFFCURVE",
"37 128 CURVE SMOOTH",
"30 120 OFFCURVE",
"30 99 OFFCURVE",
"39 112 CURVE SMOOTH",
"55 134 OFFCURVE",
"120 211 OFFCURVE",
"143 239 CURVE",
"143 239 OFFCURVE",
"101 141 OFFCURVE",
"89 118 CURVE SMOOTH",
"77 94 OFFCURVE",
"50 43 OFFCURVE",
"50 16 CURVE SMOOTH",
"50 1 OFFCURVE",
"60 -3 OFFCURVE",
"74 -3 CURVE SMOOTH",
"138 -3 OFFCURVE",
"201 65 OFFCURVE",
"240 115 CURVE SMOOTH",
"246 123 OFFCURVE",
"254 139 OFFCURVE",
"249 146 CURVE",
"247 143 OFFCURVE",
"239 133 OFFCURVE",
"230 122 CURVE SMOOTH",
"197 84 OFFCURVE",
"142 26 OFFCURVE",
"116 26 CURVE SMOOTH",
"108 26 OFFCURVE",
"99 34 OFFCURVE",
"101 48 CURVE SMOOTH",
"106 102 OFFCURVE",
"159 219 OFFCURVE",
"174 239 CURVE SMOOTH",
"188 259 OFFCURVE",
"232 252 OFFCURVE",
"266 262 CURVE SMOOTH",
"287 268 OFFCURVE",
"284 273 OFFCURVE",
"270 273 CURVE SMOOTH",
"189 273 LINE",
"227 351 OFFCURVE",
"276 426 OFFCURVE",
"291 442 CURVE SMOOTH"
);
}
);
width = 198;
}
);
note = t;
unicode = 0074;
},
{
glyphname = u;
layers = (
{
hints = (
{
horizontal = 1;
place = "{-5, 15}";
type = Stem;
},
{
horizontal = 1;
place = "{256, 15}";
type = Stem;
}
);
layerId = "A626400C-4409-4FF6-B7A4-72C4E5A5721C";
paths = (
{
closed = 1;
nodes = (
"448 142 OFFCURVE",
"446 146 OFFCURVE",
"445 148 CURVE",
"442 145 OFFCURVE",
"433 132 OFFCURVE",
"424 122 CURVE SMOOTH",
"392 83 OFFCURVE",
"324 26 OFFCURVE",
"298 26 CURVE SMOOTH",
"290 26 OFFCURVE",
"286 32 OFFCURVE",
"284 40 CURVE SMOOTH",
"274 81 OFFCURVE",
"349 250 OFFCURVE",
"390 263 CURVE SMOOTH",
"406 268 OFFCURVE",
"405 281 OFFCURVE",
"398 278 CURVE SMOOTH",
"375 267 OFFCURVE",
"343 270 OFFCURVE",
"335 269 CURVE SMOOTH",
"327 268 OFFCURVE",
"325 258 OFFCURVE",
"322 253 CURVE SMOOTH",
"300 211 OFFCURVE",
"254 124 OFFCURVE",
"192 65 CURVE SMOOTH",
"169 43 OFFCURVE",
"146 26 OFFCURVE",
"132 26 CURVE SMOOTH",
"124 26 OFFCURVE",
"118 32 OFFCURVE",
"118 40 CURVE SMOOTH",
"118 72 OFFCURVE",
"188 198 OFFCURVE",
"208 228 CURVE SMOOTH",
"226 258 OFFCURVE",
"229 282 OFFCURVE",
"186 275 CURVE SMOOTH",
"152 270 OFFCURVE",
"131 242 OFFCURVE",
"109 218 CURVE SMOOTH",
"82 188 OFFCURVE",
"56 154 OFFCURVE",
"37 128 CURVE SMOOTH",
"30 120 OFFCURVE",
"30 99 OFFCURVE",
"39 112 CURVE SMOOTH",
"56 135 OFFCURVE",
"92 179 OFFCURVE",
"122 207 CURVE SMOOTH",
"139 222 OFFCURVE",
"169 245 OFFCURVE",
"147 203 CURVE SMOOTH",
"136 181 OFFCURVE",
"121 149 OFFCURVE",
"105 118 CURVE SMOOTH",
"93 94 OFFCURVE",
"66 43 OFFCURVE",
"66 16 CURVE SMOOTH",
"66 1 OFFCURVE",
"76 -3 OFFCURVE",
"90 -3 CURVE SMOOTH",
"130 -3 OFFCURVE",
"169 22 OFFCURVE",
"202 54 CURVE SMOOTH",
"227 78 OFFCURVE",
"253 112 OFFCURVE",
"271 138 CURVE",
"259 115 OFFCURVE",
"234 50 OFFCURVE",
"234 24 CURVE SMOOTH",
"234 1 OFFCURVE",
"255 -3 OFFCURVE",
"269 -3 CURVE SMOOTH",
"333 -3 OFFCURVE",
"396 64 OFFCURVE",
"434 115 CURVE SMOOTH",
"440 122 OFFCURVE",
"446 130 OFFCURVE",
"448 140 CURVE SMOOTH"
);
}
);
width = 393;
}
);
note = u;
unicode = 0075;
},
{
glyphname = v;
layers = (
{
hints = (
{
horizontal = 1;
place = "{280, 15}";
type = Stem;
}
);
layerId = "A626400C-4409-4FF6-B7A4-72C4E5A5721C";
paths = (
{
closed = 1;
nodes = (
"339 262 OFFCURVE",
"309 271 OFFCURVE",
"288 278 CURVE SMOOTH",
"278 282 OFFCURVE",
"271 274 OFFCURVE",
"282 270 CURVE SMOOTH",
"286 268 OFFCURVE",
"299 253 OFFCURVE",
"280 201 CURVE SMOOTH",
"264 155 OFFCURVE",
"219 86 OFFCURVE",
"192 57 CURVE SMOOTH",
"168 31 OFFCURVE",
"120 -4 OFFCURVE",
"121 54 CURVE SMOOTH",
"122 113 OFFCURVE",
"162 236 OFFCURVE",
"185 270 CURVE",
"191 277 OFFCURVE",
"188 286 OFFCURVE",
"179 278 CURVE SMOOTH",
"169 269 OFFCURVE",
"144 263 OFFCURVE",
"130 261 CURVE",
"104 221 OFFCURVE",
"65 166 OFFCURVE",
"37 128 CURVE SMOOTH",
"30 120 OFFCURVE",
"30 99 OFFCURVE",
"39 112 CURVE SMOOTH",
"57 136 OFFCURVE",
"89 174 OFFCURVE",
"112 208 CURVE",
"94 160 OFFCURVE",
"82 86 OFFCURVE",
"82 42 CURVE SMOOTH",
"80 -20 OFFCURVE",
"128 -12 OFFCURVE",
"165 11 CURVE SMOOTH",
"212 40 OFFCURVE",
"306 168 OFFCURVE",
"322 212 CURVE SMOOTH"
);
}
);
width = 294;
}
);
note = v;
unicode = 0076;
},
{
glyphname = w;
layers = (
{
hints = (
{
horizontal = 1;
place = "{-5, 15}";
type = Stem;
},
{
horizontal = 1;
place = "{275, 15}";
type = Stem;
}
);
layerId = "A626400C-4409-4FF6-B7A4-72C4E5A5721C";
paths = (
{
closed = 1;
nodes = (
"551 266 OFFCURVE",
"529 288 OFFCURVE",
"500 295 CURVE SMOOTH",
"488 297 OFFCURVE",
"478 288 OFFCURVE",
"489 284 CURVE SMOOTH",
"500 280 OFFCURVE",
"513 256 OFFCURVE",
"493 204 CURVE SMOOTH",
"471 145 OFFCURVE",
"442 103 OFFCURVE",
"397 57 CURVE SMOOTH",
"371 31 OFFCURVE",
"310 -4 OFFCURVE",
"311 54 CURVE SMOOTH",
"312 113 OFFCURVE",
"348 236 OFFCURVE",
"371 270 CURVE SMOOTH",
"376 277 OFFCURVE",
"373 286 OFFCURVE",
"365 278 CURVE SMOOTH",
"354 269 OFFCURVE",
"329 263 OFFCURVE",
"315 261 CURVE",
"297 231 OFFCURVE",
"272 174 OFFCURVE",
"245 132 CURVE SMOOTH",
"228 105 OFFCURVE",
"176 22 OFFCURVE",
"139 22 CURVE SMOOTH",
"128 22 OFFCURVE",
"120 30 OFFCURVE",
"121 54 CURVE SMOOTH",
"122 113 OFFCURVE",
"162 236 OFFCURVE",
"185 270 CURVE",
"191 277 OFFCURVE",
"188 286 OFFCURVE",
"179 278 CURVE SMOOTH",
"169 269 OFFCURVE",
"144 263 OFFCURVE",
"130 261 CURVE",
"104 221 OFFCURVE",
"65 166 OFFCURVE",
"37 128 CURVE SMOOTH",
"30 120 OFFCURVE",
"30 99 OFFCURVE",
"39 112 CURVE SMOOTH",
"57 136 OFFCURVE",
"89 174 OFFCURVE",
"112 208 CURVE",
"94 160 OFFCURVE",
"82 86 OFFCURVE",
"82 42 CURVE SMOOTH",
"80 -20 OFFCURVE",
"128 -12 OFFCURVE",
"165 11 CURVE SMOOTH",
"190 26 OFFCURVE",
"229 74 OFFCURVE",
"262 122 CURVE SMOOTH",
"273 139 OFFCURVE",
"280 156 OFFCURVE",
"290 171 CURVE",
"278 127 OFFCURVE",
"271 76 OFFCURVE",
"270 42 CURVE SMOOTH",
"269 -20 OFFCURVE",
"322 -13 OFFCURVE",
"363 11 CURVE SMOOTH",
"434 52 OFFCURVE",
"504 142 OFFCURVE",
"532 216 CURVE SMOOTH"
);
}
);
width = 500;
}
);
note = w;
unicode = 0077;
},
{
glyphname = x;
layers = (
{
hints = (
{
horizontal = 1;
place = "{250, 15}";
type = Stem;
}
);
layerId = "A626400C-4409-4FF6-B7A4-72C4E5A5721C";
paths = (
{
closed = 1;
nodes = (
"340 264 OFFCURVE",
"314 268 OFFCURVE",
"298 257 CURVE SMOOTH",
"289 250 OFFCURVE",
"167 154 OFFCURVE",
"152 141 CURVE",
"147 168 OFFCURVE",
"143 196 OFFCURVE",
"147 224 CURVE SMOOTH",
"148 233 OFFCURVE",
"150 253 OFFCURVE",
"167 253 CURVE SMOOTH",
"180 253 OFFCURVE",
"177 264 OFFCURVE",
"161 264 CURVE SMOOTH",
"139 264 OFFCURVE",
"100 245 OFFCURVE",
"97 222 CURVE SMOOTH",
"96 214 OFFCURVE",
"112 123 OFFCURVE",
"115 109 CURVE",
"69 71 OFFCURVE",
"41 49 OFFCURVE",
"-6 12 CURVE SMOOTH",
"-28 -6 OFFCURVE",
"18 -8 OFFCURVE",
"24 -2 CURVE SMOOTH",
"58 32 OFFCURVE",
"81 62 OFFCURVE",
"118 94 CURVE",
"124 68 OFFCURVE",
"147 11 OFFCURVE",
"174 -1 CURVE SMOOTH",
"180 -4 OFFCURVE",
"187 -6 OFFCURVE",
"194 -6 CURVE SMOOTH",
"239 -6 OFFCURVE",
"272 63 OFFCURVE",
"282 109 CURVE SMOOTH",
"284 120 OFFCURVE",
"275 124 OFFCURVE",
"272 114 CURVE SMOOTH",
"262 76 OFFCURVE",
"217 -18 OFFCURVE",
"181 53 CURVE SMOOTH",
"167 79 OFFCURVE",
"158 114 OFFCURVE",
"156 126 CURVE",
"195 159 OFFCURVE",
"259 212 OFFCURVE",
"306 233 CURVE SMOOTH",
"316 238 OFFCURVE",
"338 248 OFFCURVE",
"357 249 CURVE SMOOTH",
"361 249 OFFCURVE",
"362 264 OFFCURVE",
"358 264 CURVE SMOOTH"
);
}
);
width = 299;
}
);
note = x;
unicode = 0078;
},
{
glyphname = y;
layers = (
{
hints = (
{
horizontal = 1;
place = "{250, 15}";
type = Stem;
}
);
layerId = "A626400C-4409-4FF6-B7A4-72C4E5A5721C";
paths = (
{
closed = 1;
nodes = (
"410 277 OFFCURVE",
"398 277 OFFCURVE",
"378 272 CURVE SMOOTH",
"358 268 OFFCURVE",
"334 252 OFFCURVE",
"328 249 CURVE SMOOTH",
"317 244 OFFCURVE",
"294 202 OFFCURVE",
"288 192 CURVE SMOOTH",
"264 150 OFFCURVE",
"231 102 OFFCURVE",
"192 65 CURVE SMOOTH",
"169 43 OFFCURVE",
"146 26 OFFCURVE",
"132 26 CURVE SMOOTH",
"124 26 OFFCURVE",
"118 32 OFFCURVE",
"118 40 CURVE SMOOTH",
"118 72 OFFCURVE",
"188 198 OFFCURVE",
"208 228 CURVE SMOOTH",
"226 258 OFFCURVE",
"229 282 OFFCURVE",
"186 275 CURVE SMOOTH",
"152 270 OFFCURVE",
"131 242 OFFCURVE",
"109 218 CURVE SMOOTH",
"82 188 OFFCURVE",
"56 154 OFFCURVE",
"37 128 CURVE SMOOTH",
"30 120 OFFCURVE",
"30 99 OFFCURVE",
"39 112 CURVE SMOOTH",
"56 135 OFFCURVE",
"92 179 OFFCURVE",
"122 207 CURVE SMOOTH",
"139 222 OFFCURVE",
"169 245 OFFCURVE",
"147 203 CURVE SMOOTH",
"136 181 OFFCURVE",
"121 149 OFFCURVE",
"105 118 CURVE SMOOTH",
"93 94 OFFCURVE",
"66 43 OFFCURVE",
"66 16 CURVE SMOOTH",
"66 1 OFFCURVE",
"76 -3 OFFCURVE",
"90 -3 CURVE SMOOTH",
"130 -3 OFFCURVE",
"169 22 OFFCURVE",
"202 54 CURVE SMOOTH",
"225 76 OFFCURVE",
"267 127 OFFCURVE",
"288 156 CURVE",
"275 117 OFFCURVE",
"258 68 OFFCURVE",
"237 17 CURVE SMOOTH",
"181 -112 OFFCURVE",
"108 -243 OFFCURVE",
"-17 -297 CURVE SMOOTH",
"-40 -306 OFFCURVE",
"-66 -312 OFFCURVE",
"-90 -312 CURVE SMOOTH",
"-149 -312 OFFCURVE",
"-193 -280 OFFCURVE",
"-193 -218 CURVE SMOOTH",
"-193 -209 OFFCURVE",
"-191 -201 OFFCURVE",
"-191 -193 CURVE SMOOTH",
"-191 -191 OFFCURVE",
"-192 -191 OFFCURVE",
"-193 -191 CURVE SMOOTH",
"-208 -191 OFFCURVE",
"-205 -213 OFFCURVE",
"-205 -223 CURVE SMOOTH",
"-205 -242 OFFCURVE",
"-203 -262 OFFCURVE",
"-195 -279 CURVE SMOOTH",
"-172 -327 OFFCURVE",
"-120 -350 OFFCURVE",
"-69 -350 CURVE SMOOTH",
"-43 -350 OFFCURVE",
"-17 -345 OFFCURVE",
"6 -335 CURVE SMOOTH",
"120 -286 OFFCURVE",
"183 -171 OFFCURVE",
"232 -57 CURVE SMOOTH",
"274 43 OFFCURVE",
"342 206 OFFCURVE",
"367 242 CURVE SMOOTH",
"374 252 OFFCURVE",
"386 261 OFFCURVE",
"401 261 CURVE SMOOTH",
"405 261 OFFCURVE",
"410 264 OFFCURVE",
"410 269 CURVE SMOOTH"
);
}
);
width = 344;
}
);
note = y;
unicode = 0079;
},
{
glyphname = z;
layers = (
{
hints = (
{
horizontal = 1;
place = "{249, 15}";
type = Stem;
}
);
layerId = "A626400C-4409-4FF6-B7A4-72C4E5A5721C";
paths = (
{
closed = 1;
nodes = (
"384 -66 OFFCURVE",
"370 -29 OFFCURVE",
"345 -16 CURVE SMOOTH",
"339 -13 OFFCURVE",
"330 -19 OFFCURVE",
"334 -23 CURVE",
"346 -31 OFFCURVE",
"372 -60 OFFCURVE",
"351 -77 CURVE SMOOTH",
"344 -83 OFFCURVE",
"334 -85 OFFCURVE",
"325 -86 CURVE",
"297 -86 OFFCURVE",
"254 -52 OFFCURVE",
"214 -12 CURVE SMOOTH",
"159 42 OFFCURVE",
"122 82 OFFCURVE",
"49 45 CURVE",
"71 64 OFFCURVE",
"109 99 OFFCURVE",
"134 118 CURVE SMOOTH",
"187 161 OFFCURVE",
"246 201 OFFCURVE",
"292 234 CURVE",
"291 243 OFFCURVE",
"283 266 OFFCURVE",
"271 266 CURVE SMOOTH",
"221 266 OFFCURVE",
"155 261 OFFCURVE",
"106 265 CURVE",
"99 253 OFFCURVE",
"94 240 OFFCURVE",
"82 227 CURVE SMOOTH",
"69 213 OFFCURVE",
"85 212 OFFCURVE",
"95 225 CURVE SMOOTH",
"108 243 OFFCURVE",
"214 246 OFFCURVE",
"248 246 CURVE",
"192 200 OFFCURVE",
"149 159 OFFCURVE",
"94 112 CURVE SMOOTH",
"71 92 OFFCURVE",
"2 21 OFFCURVE",
"-12 -2 CURVE SMOOTH",
"-25 -23 OFFCURVE",
"-1 -35 OFFCURVE",
"8 -23 CURVE SMOOTH",
"12 -17 OFFCURVE",
"14 -10 OFFCURVE",
"16 -2 CURVE SMOOTH",
"24 27 OFFCURVE",
"56 47 OFFCURVE",
"86 47 CURVE SMOOTH",
"123 47 OFFCURVE",
"145 16 OFFCURVE",
"175 -19 CURVE SMOOTH",
"237 -90 OFFCURVE",
"263 -117 OFFCURVE",
"286 -124 CURVE SMOOTH",
"317 -134 OFFCURVE",
"349 -117 OFFCURVE",
"364 -95 CURVE SMOOTH"
);
}
);
width = 234;
}
);
note = z;
unicode = 007A;
},
{
glyphname = braceleft;
layers = (
{
hints = (
{
horizontal = 1;
place = "{560, -20}";
target = down;
type = TopGhost;
}
);
layerId = "A626400C-4409-4FF6-B7A4-72C4E5A5721C";
paths = (
{
closed = 1;
nodes = (
"78 228 LINE",
"129 223 OFFCURVE",
"173 213 OFFCURVE",
"167 170 CURVE SMOOTH",
"159 96 OFFCURVE",
"99 35 OFFCURVE",
"90 -40 CURVE SMOOTH",
"83 -99 OFFCURVE",
"177 -101 OFFCURVE",
"225 -101 CURVE SMOOTH",
"230 -101 OFFCURVE",
"239 -93 OFFCURVE",
"243 -84 CURVE",
"231 -86 OFFCURVE",
"210 -86 OFFCURVE",
"200 -85 CURVE SMOOTH",
"171 -82 OFFCURVE",
"150 -79 OFFCURVE",
"154 -41 CURVE SMOOTH",
"163 31 OFFCURVE",
"218 90 OFFCURVE",
"226 162 CURVE SMOOTH",
"231 203 OFFCURVE",
"198 224 OFFCURVE",
"162 232 CURVE",
"199 241 OFFCURVE",
"238 260 OFFCURVE",
"265 282 CURVE SMOOTH",
"325 328 OFFCURVE",
"344 420 OFFCURVE",
"381 484 CURVE SMOOTH",
"407 527 OFFCURVE",
"440 542 OFFCURVE",
"491 546 CURVE SMOOTH",
"507 547 OFFCURVE",
"527 546 OFFCURVE",
"537 544 CURVE",
"537 547 OFFCURVE",
"533 553 OFFCURVE",
"530 557 CURVE SMOOTH",
"525 563 OFFCURVE",
"487 561 OFFCURVE",
"474 560 CURVE SMOOTH",
"363 544 OFFCURVE",
"305 472 OFFCURVE",
"277 401 CURVE SMOOTH",
"269 381 OFFCURVE",
"262 361 OFFCURVE",
"253 342 CURVE SMOOTH",
"219 272 OFFCURVE",
"173 242 OFFCURVE",
"91 241 CURVE"
);
}
);
width = 354;
}
);
note = braceleft;
unicode = 007B;
},
{
glyphname = bar;
layers = (
{
hints = (
{
horizontal = 1;
place = "{0, 577}";
type = Stem;
},
{
place = "{64, 281}";
type = Stem;
}
);
layerId = "A626400C-4409-4FF6-B7A4-72C4E5A5721C";
paths = (
{
closed = 1;
nodes = (
"298 577 LINE",
"265 493 OFFCURVE",
"88 67 OFFCURVE",
"64 0 CURVE",
"106 0 LINE",
"124 43 OFFCURVE",
"325 550 OFFCURVE",
"345 577 CURVE"
);
}
);
width = 364;
}
);
note = bar;
unicode = 007C;
},
{
glyphname = braceright;
layers = (
{
hints = (
{
horizontal = 1;
place = "{560, -20}";
target = down;
type = TopGhost;
}
);
layerId = "A626400C-4409-4FF6-B7A4-72C4E5A5721C";
paths = (
{
closed = 1;
nodes = (
"425 230 LINE",
"373 235 OFFCURVE",
"330 245 OFFCURVE",
"335 289 CURVE SMOOTH",
"343 362 OFFCURVE",
"403 423 OFFCURVE",
"412 498 CURVE SMOOTH",
"419 557 OFFCURVE",
"325 560 OFFCURVE",
"277 560 CURVE SMOOTH",
"272 560 OFFCURVE",
"264 551 OFFCURVE",
"259 542 CURVE",
"272 544 OFFCURVE",
"292 544 OFFCURVE",
"302 543 CURVE SMOOTH",
"332 540 OFFCURVE",
"352 537 OFFCURVE",
"348 499 CURVE SMOOTH",
"340 427 OFFCURVE",
"285 369 OFFCURVE",
"276 296 CURVE SMOOTH",
"271 255 OFFCURVE",
"304 234 OFFCURVE",
"340 226 CURVE",
"303 217 OFFCURVE",
"265 198 OFFCURVE",
"237 177 CURVE SMOOTH",
"178 130 OFFCURVE",
"158 38 OFFCURVE",
"121 -26 CURVE SMOOTH",
"96 -69 OFFCURVE",
"62 -84 OFFCURVE",
"12 -88 CURVE SMOOTH",
"-4 -89 OFFCURVE",
"-25 -88 OFFCURVE",
"-35 -86 CURVE",
"-34 -89 OFFCURVE",
"-31 -95 OFFCURVE",
"-28 -99 CURVE SMOOTH",
"-23 -105 OFFCURVE",
"15 -103 OFFCURVE",
"28 -101 CURVE SMOOTH",
"139 -86 OFFCURVE",
"197 -14 OFFCURVE",
"225 57 CURVE SMOOTH",
"233 77 OFFCURVE",
"241 97 OFFCURVE",
"250 116 CURVE SMOOTH",
"283 186 OFFCURVE",
"329 216 OFFCURVE",
"412 217 CURVE"
);
}
);
width = 411;
}
);
note = braceright;
unicode = 007D;
},
{
glyphname = asciitilde;
layers = (
{
hints = (
{
horizontal = 1;
place = "{319, 19}";
type = Stem;
},
{
horizontal = 1;
place = "{366, -20}";
target = down;
type = TopGhost;
}
);
layerId = "A626400C-4409-4FF6-B7A4-72C4E5A5721C";
paths = (
{
closed = 1;
nodes = (
"291 359 LINE",
"274 348 OFFCURVE",
"266 338 OFFCURVE",
"245 338 CURVE SMOOTH",
"197 338 OFFCURVE",
"166 366 OFFCURVE",
"130 366 CURVE SMOOTH",
"112 366 OFFCURVE",
"88 346 OFFCURVE",
"75 335 CURVE",
"83 325 LINE",
"95 335 OFFCURVE",
"109 346 OFFCURVE",
"126 346 CURVE SMOOTH",
"165 346 OFFCURVE",
"199 319 OFFCURVE",
"244 319 CURVE SMOOTH",
"258 319 OFFCURVE",
"288 342 OFFCURVE",
"297 352 CURVE"
);
}
);
width = 277;
}
);
note = asciitilde;
unicode = 007E;
},
{
glyphname = Ccedilla;
lastChange = "2020-01-02 21:04:14 +0000";
layers = (
{
hints = (
{
horizontal = 1;
place = "{-33, 30}";
type = Stem;
},
{
horizontal = 1;
place = "{446, 27}";
type = Stem;
},
{
place = "{58, 50}";
type = Stem;
},
{
horizontal = 1;
place = "{568, 18}";
type = Stem;
}
);
layerId = "A626400C-4409-4FF6-B7A4-72C4E5A5721C";
paths = (
{
closed = 1;
nodes = (
"592 496 OFFCURVE",
"573 517 OFFCURVE",
"543 531 CURVE SMOOTH",
"512 546 OFFCURVE",
"484 549 OFFCURVE",
"451 549 CURVE SMOOTH",
"371 549 OFFCURVE",
"285 516 OFFCURVE",
"224 470 CURVE SMOOTH",
"120 391 OFFCURVE",
"38 265 OFFCURVE",
"38 135 CURVE SMOOTH",
"38 -56 OFFCURVE",
"288 -49 OFFCURVE",
"412 2 CURVE SMOOTH",
"477 29 OFFCURVE",
"535 69 OFFCURVE",
"581 130 CURVE SMOOTH",
"595 149 OFFCURVE",
"589 160 OFFCURVE",
"579 148 CURVE SMOOTH",
"530 87 OFFCURVE",
"474 51 OFFCURVE",
"404 24 CURVE SMOOTH",
"292 -19 OFFCURVE",
"97 -32 OFFCURVE",
"97 137 CURVE SMOOTH",
"97 240 OFFCURVE",
"165 369 OFFCURVE",
"259 452 CURVE SMOOTH",
"293 481 OFFCURVE",
"331 504 OFFCURVE",
"370 518 CURVE SMOOTH",
"415 535 OFFCURVE",
"504 549 OFFCURVE",
"532 502 CURVE SMOOTH",
"551 472 OFFCURVE",
"544 413 OFFCURVE",
"526 384 CURVE SMOOTH",
"523 378 OFFCURVE",
"543 383 OFFCURVE",
"545 389 CURVE SMOOTH",
"555 418 OFFCURVE",
"581 447 OFFCURVE",
"586 468 CURVE SMOOTH"
);
},
{
closed = 1;
nodes = (
"222 -17 OFFCURVE",
"214 -17 OFFCURVE",
"210 -17 CURVE SMOOTH",
"172 -17 OFFCURVE",
"143 -50 OFFCURVE",
"143 -83 CURVE SMOOTH",
"143 -113 OFFCURVE",
"180 -142 OFFCURVE",
"176 -166 CURVE SMOOTH",
"166 -225 OFFCURVE",
"90 -219 OFFCURVE",
"76 -219 CURVE SMOOTH",
"73 -219 OFFCURVE",
"67 -221 OFFCURVE",
"67 -225 CURVE SMOOTH",
"67 -229 OFFCURVE",
"69 -233 OFFCURVE",
"73 -233 CURVE SMOOTH",
"122 -233 OFFCURVE",
"203 -211 OFFCURVE",
"213 -157 CURVE SMOOTH",
"220 -119 OFFCURVE",
"178 -101 OFFCURVE",
"178 -70 CURVE SMOOTH",
"178 -46 OFFCURVE",
"202 -24 OFFCURVE",
"230 -17 CURVE"
);
}
);
width = 527;
}
);
note = Ccedilla;
unicode = 00C7;
},
{
glyphname = dagger;
layers = (
{
hints = (
{
horizontal = 1;
place = "{357, 36}";
type = Stem;
}
);
layerId = "A626400C-4409-4FF6-B7A4-72C4E5A5721C";
paths = (
{
closed = 1;
nodes = (
"451 392 OFFCURVE",
"383 390 OFFCURVE",
"329 390 CURVE",
"382 511 OFFCURVE",
"426 611 OFFCURVE",
"434 622 CURVE",
"355 576 LINE",
"345 550 OFFCURVE",
"316 478 OFFCURVE",
"280 390 CURVE",
"240 390 OFFCURVE",
"189 391 OFFCURVE",
"170 394 CURVE SMOOTH",
"159 396 OFFCURVE",
"129 358 OFFCURVE",
"135 358 CURVE SMOOTH",
"172 361 OFFCURVE",
"225 362 OFFCURVE",
"269 362 CURVE",
"193 177 OFFCURVE",
"96 -63 OFFCURVE",
"80 -107 CURVE",
"129 -78 LINE",
"139 -53 OFFCURVE",
"235 173 OFFCURVE",
"317 362 CURVE",
"359 361 OFFCURVE",
"419 359 OFFCURVE",
"441 357 CURVE SMOOTH",
"452 356 OFFCURVE",
"482 393 OFFCURVE",
"476 393 CURVE SMOOTH"
);
}
);
width = 327;
}
);
note = dagger;
unicode = 2020;
},
{
glyphname = degree;
layers = (
{
hints = (
{
horizontal = 1;
place = "{275, 28}";
type = Stem;
},
{
horizontal = 1;
place = "{386, 28}";
type = Stem;
}
);
layerId = "A626400C-4409-4FF6-B7A4-72C4E5A5721C";
paths = (
{
closed = 1;
nodes = (
"251 383 OFFCURVE",
"222 414 OFFCURVE",
"180 414 CURVE SMOOTH",
"138 414 OFFCURVE",
"98 383 OFFCURVE",
"92 345 CURVE SMOOTH",
"85 307 OFFCURVE",
"114 275 OFFCURVE",
"156 275 CURVE SMOOTH",
"198 275 OFFCURVE",
"238 307 OFFCURVE",
"245 345 CURVE SMOOTH"
);
},
{
closed = 1;
nodes = (
"209 323 OFFCURVE",
"185 304 OFFCURVE",
"161 304 CURVE SMOOTH",
"137 304 OFFCURVE",
"119 323 OFFCURVE",
"123 345 CURVE SMOOTH",
"127 367 OFFCURVE",
"151 386 OFFCURVE",
"175 386 CURVE SMOOTH",
"199 386 OFFCURVE",
"217 367 OFFCURVE",
"213 345 CURVE SMOOTH"
);
}
);
width = 212;
}
);
note = degree;
unicode = 00B0;
},
{
glyphname = cent;
layers = (
{
hints = (
{
place = "{54, 54}";
type = Stem;
}
);
layerId = "A626400C-4409-4FF6-B7A4-72C4E5A5721C";
paths = (
{
closed = 1;
nodes = (
"162 101 LINE SMOOTH",
"69 129 OFFCURVE",
"105 291 OFFCURVE",
"204 378 CURVE SMOOTH",
"225 396 OFFCURVE",
"247 409 OFFCURVE",
"271 418 CURVE SMOOTH",
"277 420 OFFCURVE",
"284 422 OFFCURVE",
"292 424 CURVE",
"255 334 OFFCURVE",
"204 205 OFFCURVE",
"165 100 CURVE"
);
},
{
closed = 1;
nodes = (
"320 494 OFFCURVE",
"310 469 OFFCURVE",
"298 439 CURVE",
"252 434 OFFCURVE",
"200 414 OFFCURVE",
"167 389 CURVE SMOOTH",
"27 283 OFFCURVE",
"16 103 OFFCURVE",
"138 74 CURVE SMOOTH",
"143 73 OFFCURVE",
"149 71 OFFCURVE",
"154 71 CURVE",
"136 21 OFFCURVE",
"121 -21 OFFCURVE",
"112 -49 CURVE SMOOTH",
"111 -53 OFFCURVE",
"151 -36 OFFCURVE",
"152 -34 CURVE",
"159 -9 OFFCURVE",
"171 27 OFFCURVE",
"185 68 CURVE",
"266 69 OFFCURVE",
"341 118 OFFCURVE",
"385 189 CURVE SMOOTH",
"388 193 OFFCURVE",
"383 209 OFFCURVE",
"377 201 CURVE SMOOTH",
"338 143 OFFCURVE",
"265 92 OFFCURVE",
"195 95 CURVE",
"232 202 OFFCURVE",
"282 338 OFFCURVE",
"315 427 CURVE",
"337 428 OFFCURVE",
"358 424 OFFCURVE",
"368 408 CURVE SMOOTH",
"379 390 OFFCURVE",
"377 355 OFFCURVE",
"366 337 CURVE SMOOTH",
"364 333 OFFCURVE",
"377 336 OFFCURVE",
"378 340 CURVE SMOOTH",
"384 358 OFFCURVE",
"401 376 OFFCURVE",
"404 389 CURVE SMOOTH",
"408 407 OFFCURVE",
"396 420 OFFCURVE",
"377 429 CURVE SMOOTH",
"358 438 OFFCURVE",
"341 440 OFFCURVE",
"320 440 CURVE",
"336 481 OFFCURVE",
"347 509 OFFCURVE",
"350 518 CURVE SMOOTH",
"353 525 OFFCURVE",
"330 518 OFFCURVE",
"327 511 CURVE SMOOTH"
);
}
);
width = 375;
}
);
note = cent;
unicode = 00A2;
},
{
glyphname = sterling;
layers = (
{
hints = (
{
horizontal = 1;
place = "{-34, 45}";
type = Stem;
},
{
horizontal = 1;
place = "{235, 32}";
type = Stem;
},
{
horizontal = 1;
place = "{535, 12}";
type = Stem;
},
{
place = "{576, 41}";
type = Stem;
}
);
layerId = "A626400C-4409-4FF6-B7A4-72C4E5A5721C";
paths = (
{
closed = 1;
nodes = (
"405 266 OFFCURVE",
"331 264 OFFCURVE",
"283 264 CURVE",
"414 468 LINE SMOOTH",
"447 518 OFFCURVE",
"489 536 OFFCURVE",
"526 535 CURVE SMOOTH",
"593 533 OFFCURVE",
"583 439 OFFCURVE",
"553 398 CURVE SMOOTH",
"545 387 OFFCURVE",
"560 385 OFFCURVE",
"565 396 CURVE SMOOTH",
"579 429 OFFCURVE",
"608 449 OFFCURVE",
"614 470 CURVE SMOOTH",
"631 525 OFFCURVE",
"565 545 OFFCURVE",
"513 547 CURVE SMOOTH",
"388 551 OFFCURVE",
"329 449 OFFCURVE",
"280 351 CURVE SMOOTH",
"236 265 LINE",
"206 265 OFFCURVE",
"174 266 OFFCURVE",
"161 268 CURVE SMOOTH",
"151 270 OFFCURVE",
"125 236 OFFCURVE",
"130 237 CURVE SMOOTH",
"156 239 OFFCURVE",
"191 240 OFFCURVE",
"224 240 CURVE",
"161 113 LINE SMOOTH",
"139 69 OFFCURVE",
"79 8 OFFCURVE",
"20 7 CURVE SMOOTH",
"-5 6 OFFCURVE",
"-2 -28 OFFCURVE",
"5 -22 CURVE SMOOTH",
"21 -9 OFFCURVE",
"54 2 OFFCURVE",
"84 0 CURVE SMOOTH",
"199 -9 OFFCURVE",
"347 -30 OFFCURVE",
"467 -34 CURVE SMOOTH",
"526 -35 OFFCURVE",
"555 -13 OFFCURVE",
"544 27 CURVE SMOOTH",
"539 46 OFFCURVE",
"506 94 OFFCURVE",
"488 103 CURVE SMOOTH",
"482 107 OFFCURVE",
"476 98 OFFCURVE",
"482 95 CURVE SMOOTH",
"509 80 OFFCURVE",
"516 53 OFFCURVE",
"493 24 CURVE SMOOTH",
"475 2 OFFCURVE",
"370 9 OFFCURVE",
"288 12 CURVE SMOOTH",
"223 14 OFFCURVE",
"89 18 OFFCURVE",
"89 18 CURVE",
"109 24 OFFCURVE",
"143 47 OFFCURVE",
"186 114 CURVE SMOOTH",
"268 240 LINE",
"276 240 LINE SMOOTH",
"311 240 OFFCURVE",
"377 237 OFFCURVE",
"399 235 CURVE SMOOTH",
"409 235 OFFCURVE",
"435 267 OFFCURVE",
"430 267 CURVE SMOOTH"
);
}
);
width = 621;
}
);
note = sterling;
unicode = 00A3;
},
{
glyphname = section;
layers = (
{
hints = (
{
horizontal = 1;
place = "{-164, 27}";
type = Stem;
},
{
horizontal = 1;
place = "{541, 21}";
target = up;
type = BottomGhost;
},
{
place = "{8, 35}";
type = Stem;
},
{
place = "{225, 29}";
type = Stem;
},
{
place = "{465, 59}";
type = Stem;
}
);
layerId = "A626400C-4409-4FF6-B7A4-72C4E5A5721C";
paths = (
{
closed = 1;
nodes = (
"411 -6 OFFCURVE",
"415 -5 OFFCURVE",
"418 -3 CURVE SMOOTH",
"497 41 OFFCURVE",
"554 126 OFFCURVE",
"507 217 CURVE SMOOTH",
"469 292 OFFCURVE",
"384 329 OFFCURVE",
"354 401 CURVE SMOOTH",
"328 461 OFFCURVE",
"367 541 OFFCURVE",
"459 541 CURVE SMOOTH",
"495 541 OFFCURVE",
"520 529 OFFCURVE",
"536 514 CURVE SMOOTH",
"552 500 OFFCURVE",
"549 481 OFFCURVE",
"549 466 CURVE SMOOTH",
"549 443 OFFCURVE",
"537 409 OFFCURVE",
"532 399 CURVE",
"534 395 OFFCURVE",
"548 400 OFFCURVE",
"551 402 CURVE",
"554 412 OFFCURVE",
"572 447 OFFCURVE",
"583 465 CURVE SMOOTH",
"592 478 OFFCURVE",
"595 506 OFFCURVE",
"585 519 CURVE SMOOTH",
"556 552 OFFCURVE",
"516 564 OFFCURVE",
"477 562 CURVE SMOOTH",
"424 559 OFFCURVE",
"371 532 OFFCURVE",
"341 491 CURVE SMOOTH",
"324 467 OFFCURVE",
"317 441 OFFCURVE",
"317 414 CURVE",
"290 402 OFFCURVE",
"266 383 OFFCURVE",
"249 360 CURVE SMOOTH",
"217 315 OFFCURVE",
"219 260 OFFCURVE",
"244 212 CURVE SMOOTH",
"273 158 OFFCURVE",
"314 103 OFFCURVE",
"335 47 CURVE SMOOTH",
"372 -51 OFFCURVE",
"321 -143 OFFCURVE",
"213 -137 CURVE SMOOTH",
"158 -134 OFFCURVE",
"97 -105 OFFCURVE",
"66 -61 CURVE SMOOTH",
"44 -29 OFFCURVE",
"29 30 OFFCURVE",
"62 60 CURVE SMOOTH",
"67 64 OFFCURVE",
"59 74 OFFCURVE",
"56 72 CURVE SMOOTH",
"24 47 OFFCURVE",
"0 -9 OFFCURVE",
"10 -55 CURVE SMOOTH",
"29 -136 OFFCURVE",
"120 -164 OFFCURVE",
"191 -164 CURVE SMOOTH",
"284 -164 OFFCURVE",
"395 -100 OFFCURVE",
"408 -7 CURVE"
);
},
{
closed = 1;
nodes = (
"320 381 OFFCURVE",
"326 362 OFFCURVE",
"336 343 CURVE SMOOTH",
"364 289 OFFCURVE",
"418 247 OFFCURVE",
"445 192 CURVE SMOOTH",
"480 124 OFFCURVE",
"467 53 OFFCURVE",
"416 19 CURVE SMOOTH",
"413 17 OFFCURVE",
"411 16 OFFCURVE",
"410 14 CURVE",
"409 30 OFFCURVE",
"406 47 OFFCURVE",
"399 65 CURVE SMOOTH",
"369 143 OFFCURVE",
"292 198 OFFCURVE",
"262 270 CURVE SMOOTH",
"241 318 OFFCURVE",
"262 378 OFFCURVE",
"318 401 CURVE"
);
}
);
width = 542;
}
);
note = section;
unicode = 00A7;
},
{
glyphname = bullet;
layers = (
{
hints = (
{
horizontal = 1;
place = "{97, 375}";
type = Stem;
},
{
place = "{47, 416}";
type = Stem;
}
);
layerId = "A626400C-4409-4FF6-B7A4-72C4E5A5721C";
paths = (
{
closed = 1;
nodes = (
"479 388 OFFCURVE",
"401 472 OFFCURVE",
"288 472 CURVE SMOOTH",
"174 472 OFFCURVE",
"67 388 OFFCURVE",
"49 284 CURVE SMOOTH",
"31 181 OFFCURVE",
"109 97 OFFCURVE",
"223 97 CURVE SMOOTH",
"337 97 OFFCURVE",
"443 181 OFFCURVE",
"461 284 CURVE SMOOTH"
);
}
);
width = 475;
}
);
note = bullet;
unicode = 2022;
},
{
glyphname = paragraph;
layers = (
{
hints = (
{
horizontal = 1;
place = "{-190, 21}";
type = Stem;
},
{
horizontal = 1;
place = "{492, 32}";
type = Stem;
},
{
horizontal = 1;
place = "{571, 29}";
type = Stem;
}
);
layerId = "A626400C-4409-4FF6-B7A4-72C4E5A5721C";
paths = (
{
closed = 1;
nodes = (
"675 600 OFFCURVE",
"658 600 OFFCURVE",
"648 600 CURVE SMOOTH",
"598 600 OFFCURVE",
"554 565 OFFCURVE",
"524 530 CURVE",
"501 524 OFFCURVE",
"476 524 OFFCURVE",
"451 524 CURVE SMOOTH",
"319 524 OFFCURVE",
"160 487 OFFCURVE",
"87 378 CURVE SMOOTH",
"68 350 OFFCURVE",
"55 316 OFFCURVE",
"57 281 CURVE SMOOTH",
"62 200 OFFCURVE",
"139 164 OFFCURVE",
"214 158 CURVE",
"156 36 OFFCURVE",
"-1 -253 OFFCURVE",
"-170 -253 CURVE SMOOTH",
"-173 -253 OFFCURVE",
"-193 -253 OFFCURVE",
"-192 -261 CURVE SMOOTH",
"-192 -272 OFFCURVE",
"-163 -274 OFFCURVE",
"-158 -274 CURVE SMOOTH",
"-103 -274 OFFCURVE",
"-54 -256 OFFCURVE",
"-11 -225 CURVE",
"-3 -225 LINE SMOOTH",
"205 -231 OFFCURVE",
"356 90 OFFCURVE",
"423 240 CURVE SMOOTH",
"451 302 OFFCURVE",
"498 419 OFFCURVE",
"535 476 CURVE SMOOTH",
"559 513 OFFCURVE",
"605 571 OFFCURVE",
"657 571 CURVE SMOOTH",
"667 571 OFFCURVE",
"676 574 OFFCURVE",
"675 587 CURVE SMOOTH"
);
},
{
closed = 1;
nodes = (
"495 492 LINE",
"428 365 OFFCURVE",
"367 237 OFFCURVE",
"303 106 CURVE SMOOTH",
"256 6 OFFCURVE",
"139 -200 OFFCURVE",
"8 -211 CURVE",
"234 -25 OFFCURVE",
"321 389 OFFCURVE",
"467 491 CURVE"
);
}
);
width = 494;
}
);
note = paragraph;
unicode = 00B6;
},
{
glyphname = germandbls;
layers = (
{
hints = (
{
horizontal = 1;
place = "{-156, 18}";
type = Stem;
},
{
horizontal = 1;
place = "{557, 24}";
type = Stem;
},
{
place = "{499, 51}";
type = Stem;
},
{
place = "{628, 52}";
type = Stem;
}
);
layerId = "A626400C-4409-4FF6-B7A4-72C4E5A5721C";
paths = (
{
closed = 1;
nodes = (
"391 609 OFFCURVE",
"346 588 OFFCURVE",
"310 556 CURVE SMOOTH",
"237 491 OFFCURVE",
"174 358 OFFCURVE",
"140 273 CURVE",
"128 273 LINE SMOOTH",
"115 273 OFFCURVE",
"84 259 OFFCURVE",
"81 245 CURVE",
"83 244 LINE",
"90 245 OFFCURVE",
"98 247 OFFCURVE",
"105 247 CURVE SMOOTH",
"128 247 LINE",
"89 151 OFFCURVE",
"60 50 OFFCURVE",
"13 -39 CURVE SMOOTH",
"-18 -97 OFFCURVE",
"-55 -154 OFFCURVE",
"-117 -186 CURVE SMOOTH",
"-194 -225 OFFCURVE",
"-303 -179 OFFCURVE",
"-268 -94 CURVE SMOOTH",
"-264 -84 OFFCURVE",
"-275 -80 OFFCURVE",
"-279 -90 CURVE SMOOTH",
"-292 -124 OFFCURVE",
"-306 -155 OFFCURVE",
"-299 -176 CURVE SMOOTH",
"-287 -210 OFFCURVE",
"-250 -226 OFFCURVE",
"-198 -226 CURVE SMOOTH",
"-58 -226 OFFCURVE",
"40 -66 OFFCURVE",
"91 46 CURVE SMOOTH",
"156 187 OFFCURVE",
"231 448 OFFCURVE",
"330 543 CURVE SMOOTH",
"362 574 OFFCURVE",
"402 596 OFFCURVE",
"447 596 CURVE SMOOTH",
"551 596 OFFCURVE",
"569 485 OFFCURVE",
"516 416 CURVE SMOOTH",
"484 374 OFFCURVE",
"429 351 OFFCURVE",
"370 338 CURVE",
"335 325 OFFCURVE",
"300 301 OFFCURVE",
"320 261 CURVE SMOOTH",
"346 208 OFFCURVE",
"415 165 OFFCURVE",
"407 81 CURVE SMOOTH",
"403 28 OFFCURVE",
"367 0 OFFCURVE",
"313 0 CURVE SMOOTH",
"255 0 OFFCURVE",
"194 37 OFFCURVE",
"202 114 CURVE",
"204 123 OFFCURVE",
"207 132 OFFCURVE",
"210 137 CURVE SMOOTH",
"213 141 OFFCURVE",
"207 147 OFFCURVE",
"200 144 CURVE",
"180 126 OFFCURVE",
"162 80 OFFCURVE",
"170 54 CURVE SMOOTH",
"225 -119 OFFCURVE",
"555 28 OFFCURVE",
"431 192 CURVE SMOOTH",
"402 231 OFFCURVE",
"293 314 OFFCURVE",
"399 331 CURVE",
"457 337 OFFCURVE",
"509 360 OFFCURVE",
"542 398 CURVE SMOOTH",
"625 495 OFFCURVE",
"566 611 OFFCURVE",
"444 611 CURVE SMOOTH"
);
}
);
width = 461;
}
);
note = germandbls;
unicode = 00DF;
},
{
glyphname = registered;
layers = (
{
hints = (
{
horizontal = 1;
place = "{-4, 17}";
type = Stem;
},
{
horizontal = 1;
place = "{83, 29}";
type = Stem;
},
{
horizontal = 1;
place = "{529, 15}";
type = Stem;
},
{
place = "{39, 55}";
type = Stem;
},
{
place = "{484, 53}";
type = Stem;
},
{
place = "{620, 60}";
type = Stem;
}
);
layerId = "A626400C-4409-4FF6-B7A4-72C4E5A5721C";
paths = (
{
closed = 1;
nodes = (
"674 477 OFFCURVE",
"599 532 OFFCURVE",
"436 544 CURVE SMOOTH",
"157 565 OFFCURVE",
"32 308 OFFCURVE",
"40 172 CURVE SMOOTH",
"48 42 OFFCURVE",
"170 5 OFFCURVE",
"280 -3 CURVE SMOOTH",
"512 -21 OFFCURVE",
"693 160 OFFCURVE",
"680 370 CURVE SMOOTH"
);
},
{
closed = 1;
nodes = (
"117 83 LINE",
"104 104 OFFCURVE",
"97 129 OFFCURVE",
"95 158 CURVE SMOOTH",
"85 312 OFFCURVE",
"256 543 OFFCURVE",
"438 529 CURVE SMOOTH",
"564 519 OFFCURVE",
"616 465 OFFCURVE",
"621 383 CURVE SMOOTH",
"625 312 OFFCURVE",
"608 237 OFFCURVE",
"567 176 CURVE SMOOTH",
"540 134 OFFCURVE",
"479 78 OFFCURVE",
"428 140 CURVE SMOOTH",
"392 184 OFFCURVE",
"367 231 OFFCURVE",
"355 258 CURVE",
"411 260 OFFCURVE",
"482 283 OFFCURVE",
"517 330 CURVE SMOOTH",
"538 357 OFFCURVE",
"545 408 OFFCURVE",
"526 438 CURVE SMOOTH",
"502 476 OFFCURVE",
"432 472 OFFCURVE",
"394 471 CURVE SMOOTH",
"381 471 OFFCURVE",
"352 471 OFFCURVE",
"332 470 CURVE SMOOTH",
"283 469 OFFCURVE",
"318 455 OFFCURVE",
"330 455 CURVE",
"339 447 OFFCURVE",
"335 439 OFFCURVE",
"330 427 CURVE SMOOTH",
"324 412 OFFCURVE",
"307 378 OFFCURVE",
"285 339 CURVE SMOOTH",
"263 298 OFFCURVE",
"241 257 OFFCURVE",
"219 216 CURVE SMOOTH",
"201 182 OFFCURVE",
"182 149 OFFCURVE",
"162 117 CURVE SMOOTH",
"153 100 OFFCURVE",
"138 87 OFFCURVE",
"118 83 CURVE SMOOTH"
);
},
{
closed = 1;
nodes = (
"458 48 OFFCURVE",
"371 5 OFFCURVE",
"271 13 CURVE SMOOTH",
"195 19 OFFCURVE",
"147 41 OFFCURVE",
"121 78 CURVE",
"123 77 OFFCURVE",
"126 77 OFFCURVE",
"129 78 CURVE SMOOTH",
"148 84 OFFCURVE",
"171 96 OFFCURVE",
"181 101 CURVE SMOOTH",
"195 107 OFFCURVE",
"204 103 OFFCURVE",
"212 100 CURVE SMOOTH",
"216 99 OFFCURVE",
"224 97 OFFCURVE",
"221 103 CURVE SMOOTH",
"212 125 OFFCURVE",
"285 253 OFFCURVE",
"298 277 CURVE SMOOTH",
"324 328 OFFCURVE",
"355 397 OFFCURVE",
"390 443 CURVE SMOOTH",
"403 460 OFFCURVE",
"431 458 OFFCURVE",
"445 456 CURVE SMOOTH",
"479 452 OFFCURVE",
"492 413 OFFCURVE",
"479 375 CURVE SMOOTH",
"453 300 OFFCURVE",
"372 274 OFFCURVE",
"326 275 CURVE SMOOTH",
"319 275 OFFCURVE",
"306 257 OFFCURVE",
"306 257 CURVE",
"315 239 OFFCURVE",
"337 180 OFFCURVE",
"383 120 CURVE SMOOTH",
"425 63 OFFCURVE",
"478 81 OFFCURVE",
"521 114 CURVE"
);
}
);
width = 707;
}
);
note = registered;
unicode = 00AE;
},
{
glyphname = copyright;
layers = (
{
hints = (
{
horizontal = 1;
place = "{-4, 17}";
type = Stem;
},
{
horizontal = 1;
place = "{78, 27}";
type = Stem;
},
{
horizontal = 1;
place = "{437, 13}";
type = Stem;
},
{
horizontal = 1;
place = "{529, 15}";
type = Stem;
},
{
place = "{39, 55}";
type = Stem;
},
{
place = "{171, 55}";
type = Stem;
},
{
place = "{620, 60}";
type = Stem;
}
);
layerId = "A626400C-4409-4FF6-B7A4-72C4E5A5721C";
paths = (
{
closed = 1;
nodes = (
"674 477 OFFCURVE",
"599 532 OFFCURVE",
"436 544 CURVE SMOOTH",
"157 565 OFFCURVE",
"32 308 OFFCURVE",
"40 172 CURVE SMOOTH",
"48 42 OFFCURVE",
"170 5 OFFCURVE",
"280 -3 CURVE SMOOTH",
"512 -21 OFFCURVE",
"693 161 OFFCURVE",
"680 370 CURVE SMOOTH"
);
},
{
closed = 1;
nodes = (
"632 198 OFFCURVE",
"480 -3 OFFCURVE",
"271 13 CURVE SMOOTH",
"149 22 OFFCURVE",
"100 75 OFFCURVE",
"95 158 CURVE SMOOTH",
"85 312 OFFCURVE",
"256 543 OFFCURVE",
"438 529 CURVE SMOOTH",
"564 519 OFFCURVE",
"616 465 OFFCURVE",
"621 383 CURVE SMOOTH"
);
},
{
closed = 1;
nodes = (
"525 417 OFFCURVE",
"513 430 OFFCURVE",
"494 439 CURVE SMOOTH",
"475 448 OFFCURVE",
"457 450 OFFCURVE",
"436 450 CURVE SMOOTH",
"386 450 OFFCURVE",
"323 428 OFFCURVE",
"285 399 CURVE SMOOTH",
"144 293 OFFCURVE",
"134 113 OFFCURVE",
"255 84 CURVE SMOOTH",
"353 61 OFFCURVE",
"450 114 OFFCURVE",
"503 199 CURVE SMOOTH",
"506 203 OFFCURVE",
"500 219 OFFCURVE",
"495 211 CURVE SMOOTH",
"449 144 OFFCURVE",
"359 86 OFFCURVE",
"280 111 CURVE SMOOTH",
"187 140 OFFCURVE",
"222 301 OFFCURVE",
"322 388 CURVE SMOOTH",
"342 406 OFFCURVE",
"365 419 OFFCURVE",
"388 428 CURVE SMOOTH",
"415 438 OFFCURVE",
"469 446 OFFCURVE",
"486 418 CURVE SMOOTH",
"497 400 OFFCURVE",
"495 365 OFFCURVE",
"484 347 CURVE SMOOTH",
"482 343 OFFCURVE",
"494 346 OFFCURVE",
"496 350 CURVE SMOOTH",
"502 368 OFFCURVE",
"518 386 OFFCURVE",
"521 399 CURVE SMOOTH"
);
}
);
width = 715;
}
);
note = copyright;
unicode = 00A9;
},
{
glyphname = trademark;
layers = (
{
hints = (
{
horizontal = 1;
place = "{531, 24}";
type = Stem;
}
);
layerId = "A626400C-4409-4FF6-B7A4-72C4E5A5721C";
paths = (
{
closed = 1;
nodes = (
"760 293 OFFCURVE",
"781 298 OFFCURVE",
"782 308 CURVE SMOOTH",
"784 351 OFFCURVE",
"796 498 OFFCURVE",
"814 538 CURVE SMOOTH",
"817 544 OFFCURVE",
"792 557 OFFCURVE",
"787 550 CURVE SMOOTH",
"778 536 OFFCURVE",
"755 490 OFFCURVE",
"751 483 CURVE SMOOTH",
"715 424 OFFCURVE",
"667 344 OFFCURVE",
"636 332 CURVE",
"599 351 OFFCURVE",
"582 513 OFFCURVE",
"573 552 CURVE SMOOTH",
"572 555 OFFCURVE",
"536 559 OFFCURVE",
"537 548 CURVE SMOOTH",
"539 530 OFFCURVE",
"540 494 OFFCURVE",
"536 483 CURVE SMOOTH",
"528 455 OFFCURVE",
"465 295 OFFCURVE",
"461 288 CURVE",
"456 275 OFFCURVE",
"500 292 OFFCURVE",
"502 299 CURVE SMOOTH",
"514 337 OFFCURVE",
"528 410 OFFCURVE",
"551 458 CURVE",
"561 421 OFFCURVE",
"579 313 OFFCURVE",
"627 313 CURVE SMOOTH",
"668 313 OFFCURVE",
"745 426 OFFCURVE",
"770 458 CURVE",
"759 408 OFFCURVE",
"754 358 OFFCURVE",
"741 308 CURVE",
"740 306 OFFCURVE",
"740 304 OFFCURVE",
"740 301 CURVE SMOOTH",
"740 295 OFFCURVE",
"744 293 OFFCURVE",
"750 293 CURVE SMOOTH"
);
},
{
closed = 1;
nodes = (
"266 555 LINE SMOOTH",
"235 555 OFFCURVE",
"240 530 OFFCURVE",
"252 530 CURVE SMOOTH",
"274 530 OFFCURVE",
"310 533 OFFCURVE",
"332 531 CURVE SMOOTH",
"336 531 OFFCURVE",
"346 532 OFFCURVE",
"358 531 CURVE",
"358 518 OFFCURVE",
"349 493 OFFCURVE",
"345 485 CURVE SMOOTH",
"333 454 OFFCURVE",
"275 309 OFFCURVE",
"267 291 CURVE SMOOTH",
"265 285 OFFCURVE",
"310 290 OFFCURVE",
"312 296 CURVE SMOOTH",
"334 357 OFFCURVE",
"363 462 OFFCURVE",
"391 520 CURVE SMOOTH",
"397 533 OFFCURVE",
"470 530 OFFCURVE",
"505 535 CURVE SMOOTH",
"528 538 OFFCURVE",
"533 555 OFFCURVE",
"522 555 CURVE SMOOTH"
);
}
);
width = 848;
}
);
note = trademark;
unicode = 2122;
},
{
glyphname = acute;
layers = (
{
hints = (
{
horizontal = 1;
place = "{335, 109}";
type = Stem;
},
{
place = "{27, 135}";
type = Stem;
}
);
layerId = "A626400C-4409-4FF6-B7A4-72C4E5A5721C";
paths = (
{
closed = 1;
nodes = (
"161 417 OFFCURVE",
"164 444 OFFCURVE",
"159 444 CURVE SMOOTH",
"150 444 OFFCURVE",
"113 412 OFFCURVE",
"105 405 CURVE SMOOTH",
"82 385 OFFCURVE",
"53 361 OFFCURVE",
"28 342 CURVE",
"28 342 OFFCURVE",
"26 335 OFFCURVE",
"27 335 CURVE SMOOTH",
"43 338 OFFCURVE",
"151 401 OFFCURVE",
"158 413 CURVE SMOOTH"
);
}
);
width = 129;
}
);
note = acute;
unicode = 00B4;
},
{
glyphname = dieresis;
layers = (
{
hints = (
{
horizontal = 1;
place = "{293, 20}";
type = Stem;
}
);
layerId = "A626400C-4409-4FF6-B7A4-72C4E5A5721C";
paths = (
{
closed = 1;
nodes = (
"112 419 OFFCURVE",
"74 394 OFFCURVE",
"76 391 CURVE SMOOTH",
"84 381 OFFCURVE",
"98 370 OFFCURVE",
"112 369 CURVE SMOOTH",
"124 368 OFFCURVE",
"138 382 OFFCURVE",
"150 392 CURVE SMOOTH",
"160 402 OFFCURVE",
"157 407 OFFCURVE",
"148 405 CURVE SMOOTH",
"136 403 OFFCURVE",
"125 411 OFFCURVE",
"115 417 CURVE SMOOTH"
);
},
{
closed = 1;
nodes = (
"228 419 OFFCURVE",
"190 394 OFFCURVE",
"192 391 CURVE SMOOTH",
"200 381 OFFCURVE",
"214 370 OFFCURVE",
"228 369 CURVE SMOOTH",
"240 368 OFFCURVE",
"254 382 OFFCURVE",
"266 392 CURVE SMOOTH",
"276 402 OFFCURVE",
"273 407 OFFCURVE",
"264 405 CURVE SMOOTH",
"252 403 OFFCURVE",
"241 411 OFFCURVE",
"231 417 CURVE SMOOTH"
);
}
);
width = 249;
}
);
note = dieresis;
unicode = 00A8;
},
{
glyphname = notequal;
layers = (
{
hints = (
{
horizontal = 1;
place = "{58, 16}";
type = Stem;
},
{
horizontal = 1;
place = "{135, 18}";
type = Stem;
}
);
layerId = "A626400C-4409-4FF6-B7A4-72C4E5A5721C";
paths = (
{
closed = 1;
nodes = (
"281 147 OFFCURVE",
"227 149 OFFCURVE",
"217 150 CURVE",
"223 156 OFFCURVE",
"262 194 OFFCURVE",
"263 198 CURVE SMOOTH",
"263 200 OFFCURVE",
"261 201 OFFCURVE",
"259 201 CURVE SMOOTH",
"240 201 OFFCURVE",
"209 164 OFFCURVE",
"196 152 CURVE",
"183 153 OFFCURVE",
"168 153 OFFCURVE",
"154 153 CURVE SMOOTH",
"129 153 OFFCURVE",
"99 154 OFFCURVE",
"73 148 CURVE",
"72 147 LINE",
"71 142 OFFCURVE",
"80 128 OFFCURVE",
"86 128 CURVE SMOOTH",
"117 128 OFFCURVE",
"148 133 OFFCURVE",
"179 135 CURVE",
"114 73 LINE",
"96 72 OFFCURVE",
"77 73 OFFCURVE",
"59 69 CURVE",
"58 68 LINE",
"58 63 OFFCURVE",
"66 49 OFFCURVE",
"72 49 CURVE SMOOTH",
"79 49 OFFCURVE",
"85 50 OFFCURVE",
"91 50 CURVE",
"80 39 OFFCURVE",
"56 19 OFFCURVE",
"48 7 CURVE",
"48 4 OFFCURVE",
"51 3 OFFCURVE",
"54 3 CURVE SMOOTH",
"71 3 OFFCURVE",
"103 41 OFFCURVE",
"115 52 CURVE",
"164 57 OFFCURVE",
"212 58 OFFCURVE",
"261 58 CURVE SMOOTH",
"262 58 OFFCURVE",
"266 59 OFFCURVE",
"266 61 CURVE",
"267 64 OFFCURVE",
"267 64 OFFCURVE",
"264 65 CURVE SMOOTH",
"252 71 OFFCURVE",
"173 74 OFFCURVE",
"154 74 CURVE SMOOTH",
"137 74 LINE",
"202 136 LINE",
"226 137 OFFCURVE",
"250 137 OFFCURVE",
"274 137 CURVE SMOOTH",
"276 137 OFFCURVE",
"280 138 OFFCURVE",
"280 140 CURVE SMOOTH"
);
}
);
width = 294;
}
);
note = notequal;
unicode = 2260;
},
{
glyphname = infinity;
layers = (
{
hints = (
{
horizontal = 1;
place = "{119, 13}";
type = Stem;
},
{
horizontal = 1;
place = "{132, 24}";
type = Stem;
},
{
horizontal = 1;
place = "{348, 23}";
type = Stem;
},
{
place = "{350, 37}";
type = Stem;
},
{
place = "{623, 25}";
type = Stem;
}
);
layerId = "A626400C-4409-4FF6-B7A4-72C4E5A5721C";
paths = (
{
closed = 1;
nodes = (
"155 143 OFFCURVE",
"211 177 OFFCURVE",
"248 204 CURVE",
"266 165 OFFCURVE",
"285 130 OFFCURVE",
"350 127 CURVE SMOOTH",
"430 124 OFFCURVE",
"497 172 OFFCURVE",
"518 230 CURVE SMOOTH",
"531 273 OFFCURVE",
"522 321 OFFCURVE",
"457 324 CURVE SMOOTH",
"393 326 OFFCURVE",
"334 289 OFFCURVE",
"291 256 CURVE",
"277 293 OFFCURVE",
"256 318 OFFCURVE",
"198 321 CURVE SMOOTH",
"127 325 OFFCURVE",
"56 280 OFFCURVE",
"38 230 CURVE SMOOTH",
"23 186 OFFCURVE",
"41 148 OFFCURVE",
"106 145 CURVE SMOOTH"
);
},
{
closed = 1;
nodes = (
"66 172 OFFCURVE",
"44 199 OFFCURVE",
"55 230 CURVE SMOOTH",
"68 267 OFFCURVE",
"109 288 OFFCURVE",
"160 286 CURVE SMOOTH",
"213 283 OFFCURVE",
"230 250 OFFCURVE",
"243 218 CURVE",
"211 196 OFFCURVE",
"152 169 OFFCURVE",
"109 170 CURVE SMOOTH"
);
},
{
closed = 1;
nodes = (
"328 171 OFFCURVE",
"312 203 OFFCURVE",
"296 241 CURVE",
"337 269 OFFCURVE",
"385 295 OFFCURVE",
"437 293 CURVE SMOOTH",
"484 289 OFFCURVE",
"512 271 OFFCURVE",
"498 234 CURVE SMOOTH",
"484 193 OFFCURVE",
"443 166 OFFCURVE",
"390 169 CURVE SMOOTH"
);
}
);
width = 550;
}
);
note = infinity;
unicode = 221E;
},
{
glyphname = plusminus;
layers = (
{
hints = (
{
horizontal = 1;
place = "{148, 23}";
type = Stem;
}
);
layerId = "A626400C-4409-4FF6-B7A4-72C4E5A5721C";
paths = (
{
closed = 1;
nodes = (
"358 436 OFFCURVE",
"304 420 OFFCURVE",
"300 410 CURVE SMOOTH",
"294 389 OFFCURVE",
"274 336 OFFCURVE",
"258 296 CURVE",
"219 296 OFFCURVE",
"150 296 OFFCURVE",
"127 300 CURVE SMOOTH",
"116 302 OFFCURVE",
"86 264 OFFCURVE",
"92 264 CURVE SMOOTH",
"136 268 OFFCURVE",
"200 268 OFFCURVE",
"247 268 CURVE",
"227 222 OFFCURVE",
"199 155 OFFCURVE",
"176 112 CURVE SMOOTH",
"172 106 OFFCURVE",
"228 122 OFFCURVE",
"231 133 CURVE SMOOTH",
"236 157 OFFCURVE",
"265 226 OFFCURVE",
"281 264 CURVE",
"282 268 LINE",
"328 267 OFFCURVE",
"398 264 OFFCURVE",
"419 263 CURVE SMOOTH",
"430 262 OFFCURVE",
"460 299 OFFCURVE",
"454 299 CURVE SMOOTH",
"430 298 OFFCURVE",
"352 296 OFFCURVE",
"294 296 CURVE",
"316 346 OFFCURVE",
"345 407 OFFCURVE",
"356 430 CURVE"
);
},
{
closed = 1;
nodes = (
"336 40 OFFCURVE",
"247 37 OFFCURVE",
"193 37 CURVE SMOOTH",
"155 38 OFFCURVE",
"84 38 OFFCURVE",
"61 42 CURVE SMOOTH",
"51 43 OFFCURVE",
"20 8 OFFCURVE",
"27 9 CURVE SMOOTH",
"73 13 OFFCURVE",
"144 13 OFFCURVE",
"191 13 CURVE SMOOTH",
"232 13 OFFCURVE",
"306 9 OFFCURVE",
"331 8 CURVE SMOOTH",
"341 7 OFFCURVE",
"370 41 OFFCURVE",
"365 41 CURVE SMOOTH"
);
}
);
width = 371;
}
);
note = plusminus;
unicode = 00B1;
},
{
glyphname = lessequal;
layers = (
{
hints = (
{
horizontal = 1;
place = "{47, 24}";
type = Stem;
},
{
horizontal = 1;
place = "{4, 23}";
type = Stem;
}
);
layerId = "A626400C-4409-4FF6-B7A4-72C4E5A5721C";
paths = (
{
closed = 1;
nodes = (
"55 204 LINE",
"117 160 OFFCURVE",
"173 108 OFFCURVE",
"223 52 CURVE",
"226 59 OFFCURVE",
"228 68 OFFCURVE",
"227 75 CURVE",
"216 104 OFFCURVE",
"137 178 OFFCURVE",
"114 196 CURVE SMOOTH",
"110 199 OFFCURVE",
"112 202 OFFCURVE",
"115 204 CURVE SMOOTH",
"147 221 OFFCURVE",
"191 246 OFFCURVE",
"225 271 CURVE SMOOTH",
"239 281 OFFCURVE",
"300 321 OFFCURVE",
"292 339 CURVE",
"290 342 OFFCURVE",
"275 362 OFFCURVE",
"275 369 CURVE",
"269 369 LINE",
"265 356 OFFCURVE",
"253 347 OFFCURVE",
"243 339 CURVE SMOOTH",
"191 293 OFFCURVE",
"113 245 OFFCURVE",
"57 221 CURVE"
);
},
{
closed = 1;
nodes = (
"243 26 OFFCURVE",
"176 24 OFFCURVE",
"135 24 CURVE SMOOTH",
"106 25 OFFCURVE",
"52 25 OFFCURVE",
"35 28 CURVE SMOOTH",
"27 29 OFFCURVE",
"4 0 OFFCURVE",
"9 1 CURVE SMOOTH",
"44 4 OFFCURVE",
"98 4 OFFCURVE",
"133 4 CURVE SMOOTH",
"164 4 OFFCURVE",
"220 1 OFFCURVE",
"239 0 CURVE SMOOTH",
"247 -1 OFFCURVE",
"269 27 OFFCURVE",
"265 27 CURVE SMOOTH"
);
}
);
width = 269;
}
);
note = lessequal;
unicode = 2264;
},
{
glyphname = greaterequal;
layers = (
{
hints = (
{
horizontal = 1;
place = "{148, 23}";
type = Stem;
},
{
horizontal = 1;
place = "{346, 304}";
type = Stem;
},
{
place = "{-54, 213}";
type = Stem;
}
);
layerId = "A626400C-4409-4FF6-B7A4-72C4E5A5721C";
paths = (
{
closed = 1;
nodes = (
"300 217 LINE",
"238 261 OFFCURVE",
"182 313 OFFCURVE",
"132 369 CURVE",
"129 362 OFFCURVE",
"127 353 OFFCURVE",
"128 346 CURVE",
"139 317 OFFCURVE",
"218 243 OFFCURVE",
"241 225 CURVE SMOOTH",
"245 222 OFFCURVE",
"243 219 OFFCURVE",
"240 217 CURVE SMOOTH",
"208 200 OFFCURVE",
"164 175 OFFCURVE",
"130 150 CURVE SMOOTH",
"116 140 OFFCURVE",
"55 100 OFFCURVE",
"63 82 CURVE",
"65 79 OFFCURVE",
"80 59 OFFCURVE",
"80 52 CURVE",
"86 52 LINE",
"90 65 OFFCURVE",
"102 74 OFFCURVE",
"112 82 CURVE SMOOTH",
"164 128 OFFCURVE",
"242 176 OFFCURVE",
"298 200 CURVE"
);
},
{
closed = 1;
nodes = (
"243 26 OFFCURVE",
"176 24 OFFCURVE",
"135 24 CURVE SMOOTH",
"106 25 OFFCURVE",
"52 25 OFFCURVE",
"35 28 CURVE SMOOTH",
"27 29 OFFCURVE",
"4 0 OFFCURVE",
"9 1 CURVE SMOOTH",
"44 4 OFFCURVE",
"98 4 OFFCURVE",
"133 4 CURVE SMOOTH",
"164 4 OFFCURVE",
"220 1 OFFCURVE",
"239 0 CURVE SMOOTH",
"247 -1 OFFCURVE",
"269 27 OFFCURVE",
"265 27 CURVE SMOOTH"
);
}
);
width = 321;
}
);
note = greaterequal;
unicode = 2265;
},
{
glyphname = yen;
layers = (
{
hints = (
{
horizontal = 1;
place = "{142, 23}";
type = Stem;
},
{
horizontal = 1;
place = "{461, 34}";
type = Stem;
},
{
place = "{69, 37}";
type = Stem;
},
{
horizontal = 1;
place = "{162, 19}";
type = Stem;
}
);
layerId = "A626400C-4409-4FF6-B7A4-72C4E5A5721C";
paths = (
{
closed = 1;
nodes = (
"424 164 OFFCURVE",
"378 162 OFFCURVE",
"339 162 CURVE",
"399 266 OFFCURVE",
"450 348 OFFCURVE",
"539 452 CURVE SMOOTH",
"577 496 OFFCURVE",
"627 542 OFFCURVE",
"665 541 CURVE SMOOTH",
"696 539 OFFCURVE",
"708 505 OFFCURVE",
"700 474 CURVE SMOOTH",
"699 469 OFFCURVE",
"706 469 OFFCURVE",
"708 474 CURVE SMOOTH",
"713 486 OFFCURVE",
"731 516 OFFCURVE",
"718 545 CURVE SMOOTH",
"709 564 OFFCURVE",
"696 571 OFFCURVE",
"679 572 CURVE SMOOTH",
"620 574 OFFCURVE",
"560 504 OFFCURVE",
"527 466 CURVE SMOOTH",
"456 385 OFFCURVE",
"403 289 OFFCURVE",
"341 202 CURVE",
"365 287 OFFCURVE",
"389 460 OFFCURVE",
"301 519 CURVE",
"338 518 OFFCURVE",
"353 517 OFFCURVE",
"410 517 CURVE",
"431 543 LINE",
"342 543 OFFCURVE",
"271 542 OFFCURVE",
"271 542 CURVE",
"228 542 OFFCURVE",
"120 557 OFFCURVE",
"82 525 CURVE SMOOTH",
"64 509 OFFCURVE",
"64 484 OFFCURVE",
"65 471 CURVE SMOOTH",
"67 456 OFFCURVE",
"93 417 OFFCURVE",
"105 396 CURVE",
"115 404 LINE",
"113 408 OFFCURVE",
"104 431 OFFCURVE",
"103 442 CURVE SMOOTH",
"97 515 OFFCURVE",
"220 519 OFFCURVE",
"259 519 CURVE SMOOTH",
"283 519 LINE",
"343 449 OFFCURVE",
"317 280 OFFCURVE",
"296 200 CURVE SMOOTH",
"285 166 LINE",
"284 165 OFFCURVE",
"284 164 OFFCURVE",
"284 163 CURVE",
"256 163 OFFCURVE",
"224 164 OFFCURVE",
"212 166 CURVE SMOOTH",
"204 167 OFFCURVE",
"181 138 OFFCURVE",
"186 139 CURVE SMOOTH",
"219 142 OFFCURVE",
"268 142 OFFCURVE",
"303 142 CURVE",
"253 73 OFFCURVE",
"184 -1 OFFCURVE",
"101 -1 CURVE SMOOTH",
"53 -1 OFFCURVE",
"18 32 OFFCURVE",
"18 94 CURVE SMOOTH",
"18 103 OFFCURVE",
"8 111 OFFCURVE",
"8 89 CURVE SMOOTH",
"8 70 OFFCURVE",
"9 49 OFFCURVE",
"16 32 CURVE SMOOTH",
"35 -16 OFFCURVE",
"76 -39 OFFCURVE",
"117 -39 CURVE SMOOTH",
"208 -39 OFFCURVE",
"265 32 OFFCURVE",
"308 107 CURVE SMOOTH",
"328 142 LINE",
"416 138 LINE SMOOTH",
"424 137 OFFCURVE",
"446 165 OFFCURVE",
"442 165 CURVE SMOOTH"
);
}
);
width = 452;
}
);
note = yen;
unicode = 00A5;
},
{
glyphname = mu;
layers = (
{
hints = (
{
horizontal = 1;
place = "{5, 17}";
type = Stem;
},
{
place = "{-164, 46}";
type = Stem;
}
);
layerId = "A626400C-4409-4FF6-B7A4-72C4E5A5721C";
paths = (
{
closed = 1;
nodes = (
"278 45 OFFCURVE",
"278 48 OFFCURVE",
"276 48 CURVE SMOOTH",
"273 48 OFFCURVE",
"248 22 OFFCURVE",
"226 22 CURVE SMOOTH",
"202 22 OFFCURVE",
"204 43 OFFCURVE",
"207 59 CURVE SMOOTH",
"213 98 OFFCURVE",
"227 135 OFFCURVE",
"244 172 CURVE",
"257 185 OFFCURVE",
"265 197 OFFCURVE",
"268 214 CURVE SMOOTH",
"269 220 OFFCURVE",
"257 222 OFFCURVE",
"252 222 CURVE SMOOTH",
"246 222 OFFCURVE",
"240 221 OFFCURVE",
"235 217 CURVE SMOOTH",
"222 205 OFFCURVE",
"206 162 OFFCURVE",
"201 146 CURVE",
"194 139 LINE SMOOTH",
"152 93 OFFCURVE",
"115 59 OFFCURVE",
"61 25 CURVE",
"91 86 OFFCURVE",
"142 160 OFFCURVE",
"153 223 CURVE SMOOTH",
"155 233 OFFCURVE",
"159 260 OFFCURVE",
"144 260 CURVE SMOOTH",
"132 260 OFFCURVE",
"124 248 OFFCURVE",
"120 239 CURVE SMOOTH",
"103 202 OFFCURVE",
"79 169 OFFCURVE",
"53 136 CURVE SMOOTH",
"46 127 OFFCURVE",
"22 101 OFFCURVE",
"18 93 CURVE",
"17 93 OFFCURVE",
"17 92 OFFCURVE",
"17 92 CURVE",
"17 90 OFFCURVE",
"18 88 OFFCURVE",
"20 88 CURVE SMOOTH",
"21 88 OFFCURVE",
"22 89 OFFCURVE",
"23 89 CURVE",
"43 109 OFFCURVE",
"108 186 OFFCURVE",
"118 208 CURVE",
"105 135 OFFCURVE",
"58 67 OFFCURVE",
"14 2 CURVE SMOOTH",
"-36 -71 OFFCURVE",
"-147 -210 OFFCURVE",
"-162 -289 CURVE",
"-163 -291 LINE",
"-173 -341 OFFCURVE",
"-131 -387 OFFCURVE",
"-75 -387 CURVE SMOOTH",
"-53 -387 OFFCURVE",
"-10 -371 OFFCURVE",
"3 -352 CURVE",
"-19 -364 OFFCURVE",
"-55 -378 OFFCURVE",
"-79 -378 CURVE SMOOTH",
"-121 -378 OFFCURVE",
"-121 -339 OFFCURVE",
"-116 -309 CURVE SMOOTH",
"-99 -211 OFFCURVE",
"-14 -87 OFFCURVE",
"45 3 CURVE",
"102 38 OFFCURVE",
"156 75 OFFCURVE",
"196 128 CURVE",
"190 106 OFFCURVE",
"184 84 OFFCURVE",
"180 62 CURVE SMOOTH",
"176 39 OFFCURVE",
"173 5 OFFCURVE",
"207 5 CURVE SMOOTH",
"231 5 OFFCURVE",
"261 25 OFFCURVE",
"277 42 CURVE",
"277 43 OFFCURVE",
"278 43 OFFCURVE",
"278 44 CURVE SMOOTH"
);
}
);
width = 251;
}
);
note = mu;
unicode = 00B5;
},
{
glyphname = partialdiff;
layers = (
{
hints = (
{
horizontal = 1;
place = "{-15, 15}";
type = Stem;
},
{
horizontal = 1;
place = "{455, 18}";
type = Stem;
},
{
place = "{327, 26}";
type = Stem;
}
);
layerId = "A626400C-4409-4FF6-B7A4-72C4E5A5721C";
paths = (
{
closed = 1;
nodes = (
"361 351 OFFCURVE",
"356 473 OFFCURVE",
"257 473 CURVE SMOOTH",
"220 473 OFFCURVE",
"160 452 OFFCURVE",
"153 413 CURVE SMOOTH",
"153 411 OFFCURVE",
"152 407 OFFCURVE",
"155 407 CURVE SMOOTH",
"157 407 OFFCURVE",
"159 408 OFFCURVE",
"161 408 CURVE",
"178 429 OFFCURVE",
"223 455 OFFCURVE",
"250 455 CURVE SMOOTH",
"337 455 OFFCURVE",
"333 351 OFFCURVE",
"322 292 CURVE SMOOTH",
"306 199 OFFCURVE",
"227 0 OFFCURVE",
"95 0 CURVE SMOOTH",
"78 0 OFFCURVE",
"74 13 OFFCURVE",
"77 26 CURVE SMOOTH",
"87 85 OFFCURVE",
"182 182 OFFCURVE",
"248 197 CURVE SMOOTH",
"257 199 OFFCURVE",
"263 200 OFFCURVE",
"271 205 CURVE",
"276 213 LINE",
"278 224 OFFCURVE",
"271 230 OFFCURVE",
"260 230 CURVE SMOOTH",
"195 230 OFFCURVE",
"74 91 OFFCURVE",
"64 37 CURVE SMOOTH",
"61 15 OFFCURVE",
"69 -15 OFFCURVE",
"97 -15 CURVE SMOOTH",
"234 -15 OFFCURVE",
"331 181 OFFCURVE",
"348 281 CURVE SMOOTH"
);
}
);
width = 364;
}
);
note = partialdiff;
unicode = 2202;
},
{
glyphname = summation;
layers = (
{
hints = (
{
horizontal = 1;
place = "{0, 59}";
type = Stem;
},
{
horizontal = 1;
place = "{578, 27}";
type = Stem;
},
{
place = "{513, 16}";
type = Stem;
}
);
layerId = "A626400C-4409-4FF6-B7A4-72C4E5A5721C";
paths = (
{
closed = 1;
nodes = (
"93 605 LINE",
"91 584 LINE",
"298 319 LINE",
"12 21 LINE",
"10 0 LINE",
"468 0 LINE",
"522 139 LINE",
"509 145 LINE",
"472 71 OFFCURVE",
"440 59 OFFCURVE",
"373 59 CURVE SMOOTH",
"98 59 LINE",
"374 342 LINE",
"193 578 LINE",
"360 578 LINE SMOOTH",
"437 578 OFFCURVE",
"465 574 OFFCURVE",
"480 558 CURVE SMOOTH",
"494 545 OFFCURVE",
"504 522 OFFCURVE",
"513 482 CURVE",
"529 485 LINE",
"529 531 OFFCURVE",
"529 593 OFFCURVE",
"529 605 CURVE"
);
}
);
width = 545;
}
);
note = summation;
unicode = 2211;
},
{
glyphname = product;
layers = (
{
hints = (
{
horizontal = 1;
place = "{240, 21}";
target = up;
type = BottomGhost;
}
);
layerId = "A626400C-4409-4FF6-B7A4-72C4E5A5721C";
paths = (
{
closed = 1;
nodes = (
"33 539 LINE",
"28 522 LINE",
"91 517 OFFCURVE",
"111 523 OFFCURVE",
"111 462 CURVE SMOOTH",
"111 81 LINE SMOOTH",
"111 20 OFFCURVE",
"88 22 OFFCURVE",
"28 17 CURVE",
"22 0 LINE",
"228 0 LINE",
"234 17 LINE",
"175 22 OFFCURVE",
"168 30 OFFCURVE",
"168 91 CURVE SMOOTH",
"168 161 OFFCURVE",
"168 231 OFFCURVE",
"168 315 CURVE SMOOTH",
"168 490 LINE SMOOTH",
"168 512 OFFCURVE",
"171 514 OFFCURVE",
"193 514 CURVE SMOOTH",
"376 514 LINE SMOOTH",
"396 514 OFFCURVE",
"401 512 OFFCURVE",
"401 493 CURVE SMOOTH",
"401 91 LINE SMOOTH",
"401 30 OFFCURVE",
"396 22 OFFCURVE",
"330 17 CURVE",
"324 0 LINE",
"540 0 LINE",
"546 17 LINE",
"485 22 OFFCURVE",
"459 20 OFFCURVE",
"459 81 CURVE SMOOTH",
"459 448 LINE SMOOTH",
"459 457 OFFCURVE",
"460 465 OFFCURVE",
"460 472 CURVE SMOOTH",
"462 511 OFFCURVE",
"474 518 OFFCURVE",
"527 522 CURVE",
"532 539 LINE"
);
}
);
width = 263;
}
);
note = product;
unicode = 220F;
},
{
glyphname = pi;
layers = (
{
hints = (
{
horizontal = 1;
place = "{295, 37}";
type = Stem;
}
);
layerId = "A626400C-4409-4FF6-B7A4-72C4E5A5721C";
paths = (
{
closed = 1;
nodes = (
"378 313 OFFCURVE",
"359 294 OFFCURVE",
"314 294 CURVE SMOOTH",
"261 294 OFFCURVE",
"225 332 OFFCURVE",
"172 332 CURVE SMOOTH",
"129 332 OFFCURVE",
"88 295 OFFCURVE",
"63 275 CURVE",
"63 258 LINE",
"80 273 OFFCURVE",
"113 296 OFFCURVE",
"156 295 CURVE SMOOTH",
"158 295 LINE",
"143 210 OFFCURVE",
"101 64 OFFCURVE",
"60 -19 CURVE",
"81 -8 LINE",
"116 53 OFFCURVE",
"172 224 OFFCURVE",
"184 293 CURVE",
"209 288 OFFCURVE",
"231 278 OFFCURVE",
"254 272 CURVE",
"237 228 OFFCURVE",
"207 143 OFFCURVE",
"198 88 CURVE SMOOTH",
"191 45 OFFCURVE",
"204 6 OFFCURVE",
"245 18 CURVE SMOOTH",
"278 29 OFFCURVE",
"335 102 OFFCURVE",
"356 132 CURVE SMOOTH",
"360 138 OFFCURVE",
"349 140 OFFCURVE",
"345 135 CURVE SMOOTH",
"324 108 OFFCURVE",
"302 81 OFFCURVE",
"275 56 CURVE SMOOTH",
"232 13 OFFCURVE",
"222 46 OFFCURVE",
"228 91 CURVE SMOOTH",
"239 155 OFFCURVE",
"260 204 OFFCURVE",
"284 267 CURVE",
"323 263 OFFCURVE",
"354 279 OFFCURVE",
"384 306 CURVE SMOOTH",
"386 308 OFFCURVE",
"385 320 OFFCURVE",
"385 320 CURVE"
);
}
);
width = 302;
}
);
note = pi;
unicode = 03C0;
},
{
glyphname = integral;
layers = (
{
hints = (
{
horizontal = 1;
place = "{-9, 10}";
type = Stem;
},
{
horizontal = 1;
place = "{150, 18}";
type = Stem;
},
{
horizontal = 1;
place = "{243, 19}";
type = Stem;
},
{
place = "{345, 33}";
type = Stem;
}
);
layerId = "A626400C-4409-4FF6-B7A4-72C4E5A5721C";
paths = (
{
closed = 1;
nodes = (
"479 581 LINE SMOOTH",
"480 601 OFFCURVE",
"461 611 OFFCURVE",
"445 611 CURVE SMOOTH",
"364 611 OFFCURVE",
"285 557 OFFCURVE",
"229 465 CURVE SMOOTH",
"136 310 OFFCURVE",
"87 101 OFFCURVE",
"13 -39 CURVE SMOOTH",
"-18 -97 OFFCURVE",
"-55 -154 OFFCURVE",
"-117 -186 CURVE SMOOTH",
"-194 -225 OFFCURVE",
"-303 -179 OFFCURVE",
"-268 -94 CURVE SMOOTH",
"-264 -84 OFFCURVE",
"-275 -80 OFFCURVE",
"-279 -90 CURVE SMOOTH",
"-292 -124 OFFCURVE",
"-306 -155 OFFCURVE",
"-299 -176 CURVE SMOOTH",
"-287 -210 OFFCURVE",
"-250 -226 OFFCURVE",
"-198 -226 CURVE SMOOTH",
"-58 -226 OFFCURVE",
"36 -87 OFFCURVE",
"87 25 CURVE SMOOTH",
"155 170 OFFCURVE",
"201 349 OFFCURVE",
"274 480 CURVE SMOOTH",
"312 546 OFFCURVE",
"336 567 OFFCURVE",
"373 579 CURVE SMOOTH",
"414 593 OFFCURVE",
"463 576 OFFCURVE",
"469 543 CURVE SMOOTH",
"469 542 OFFCURVE",
"470 542 OFFCURVE",
"471 542 CURVE SMOOTH",
"473 542 OFFCURVE",
"476 543 OFFCURVE",
"476 545 CURVE SMOOTH"
);
}
);
width = 275;
}
);
note = integral;
unicode = 222B;
},
{
glyphname = ordfeminine;
layers = (
{
hints = (
{
horizontal = 1;
place = "{560, 15}";
type = Stem;
}
);
layerId = "A626400C-4409-4FF6-B7A4-72C4E5A5721C";
paths = (
{
closed = 1;
nodes = (
"320 418 OFFCURVE",
"251 329 OFFCURVE",
"212 329 CURVE SMOOTH",
"204 329 OFFCURVE",
"198 335 OFFCURVE",
"198 343 CURVE SMOOTH",
"198 375 OFFCURVE",
"268 501 OFFCURVE",
"288 531 CURVE SMOOTH",
"295 542 OFFCURVE",
"309 564 OFFCURVE",
"323 564 CURVE SMOOTH",
"327 564 OFFCURVE",
"332 567 OFFCURVE",
"332 572 CURVE SMOOTH",
"332 575 OFFCURVE",
"330 576 OFFCURVE",
"327 576 CURVE SMOOTH",
"212 576 LINE SMOOTH",
"185 576 OFFCURVE",
"159 567 OFFCURVE",
"137 550 CURVE SMOOTH",
"76 503 OFFCURVE",
"13 408 OFFCURVE",
"4 330 CURVE",
"3 328 OFFCURVE",
"3 325 OFFCURVE",
"3 323 CURVE SMOOTH",
"3 311 OFFCURVE",
"8 301 OFFCURVE",
"21 301 CURVE SMOOTH",
"56 301 OFFCURVE",
"86 323 OFFCURVE",
"112 345 CURVE SMOOTH",
"137 367 OFFCURVE",
"162 391 OFFCURVE",
"185 415 CURVE",
"171 393 OFFCURVE",
"146 346 OFFCURVE",
"146 319 CURVE SMOOTH",
"146 304 OFFCURVE",
"156 300 OFFCURVE",
"170 300 CURVE SMOOTH",
"234 300 OFFCURVE",
"295 365 OFFCURVE",
"335 418 CURVE SMOOTH",
"341 426 OFFCURVE",
"355 443 OFFCURVE",
"347 451 CURVE"
);
},
{
closed = 1;
nodes = (
"240 502 OFFCURVE",
"102 335 OFFCURVE",
"62 335 CURVE SMOOTH",
"55 335 OFFCURVE",
"54 341 OFFCURVE",
"54 347 CURVE SMOOTH",
"54 389 OFFCURVE",
"122 500 OFFCURVE",
"153 529 CURVE SMOOTH",
"168 543 OFFCURVE",
"196 563 OFFCURVE",
"217 563 CURVE SMOOTH",
"230 563 OFFCURVE",
"240 559 OFFCURVE",
"240 544 CURVE SMOOTH"
);
}
);
width = 294;
}
);
note = ordfeminine;
unicode = 00AA;
},
{
glyphname = ordmasculine;
layers = (
{
hints = (
{
horizontal = 1;
place = "{304, 15}";
type = Stem;
},
{
horizontal = 1;
place = "{571, 15}";
type = Stem;
}
);
layerId = "A626400C-4409-4FF6-B7A4-72C4E5A5721C";
paths = (
{
closed = 1;
nodes = (
"279 575 OFFCURVE",
"260 585 OFFCURVE",
"239 585 CURVE SMOOTH",
"213 585 OFFCURVE",
"170 565 OFFCURVE",
"149 552 CURVE SMOOTH",
"115 532 OFFCURVE",
"86 504 OFFCURVE",
"64 473 CURVE SMOOTH",
"38 437 OFFCURVE",
"9 386 OFFCURVE",
"9 340 CURVE SMOOTH",
"9 311 OFFCURVE",
"28 305 OFFCURVE",
"50 305 CURVE SMOOTH",
"95 305 OFFCURVE",
"138 322 OFFCURVE",
"176 357 CURVE",
"233 349 OFFCURVE",
"280 385 OFFCURVE",
"310 427 CURVE SMOOTH",
"315 434 OFFCURVE",
"315 451 OFFCURVE",
"309 444 CURVE SMOOTH",
"278 403 OFFCURVE",
"236 370 OFFCURVE",
"187 370 CURVE",
"202 384 OFFCURVE",
"213 398 OFFCURVE",
"225 414 CURVE SMOOTH",
"250 450 OFFCURVE",
"279 500 OFFCURVE",
"279 546 CURVE SMOOTH"
);
},
{
closed = 1;
nodes = (
"235 514 OFFCURVE",
"210 462 OFFCURVE",
"189 427 CURVE SMOOTH",
"173 400 OFFCURVE",
"154 374 OFFCURVE",
"132 351 CURVE SMOOTH",
"115 334 OFFCURVE",
"66 304 OFFCURVE",
"58 336 CURVE SMOOTH",
"49 372 OFFCURVE",
"78 427 OFFCURVE",
"99 462 CURVE SMOOTH",
"115 490 OFFCURVE",
"134 515 OFFCURVE",
"156 538 CURVE SMOOTH",
"173 556 OFFCURVE",
"227 588 OFFCURVE",
"231 555 CURVE SMOOTH"
);
}
);
width = 265;
}
);
note = ordmasculine;
unicode = 00BA;
},
{
glyphname = Omega;
layers = (
{
hints = (
{
horizontal = 1;
place = "{0, 46}";
type = Stem;
},
{
horizontal = 1;
place = "{566, 29}";
type = Stem;
},
{
place = "{98, 86}";
type = Stem;
},
{
place = "{546, 86}";
type = Stem;
}
);
layerId = "A626400C-4409-4FF6-B7A4-72C4E5A5721C";
paths = (
{
closed = 1;
nodes = (
"274 0 LINE",
"281 11 LINE",
"259 55 OFFCURVE",
"174 181 OFFCURVE",
"184 321 CURVE SMOOTH",
"195 472 OFFCURVE",
"268 566 OFFCURVE",
"383 566 CURVE SMOOTH",
"497 566 OFFCURVE",
"557 466 OFFCURVE",
"546 324 CURVE SMOOTH",
"535 173 OFFCURVE",
"434 54 OFFCURVE",
"403 12 CURVE",
"407 0 LINE",
"612 0 LINE",
"638 112 LINE",
"622 114 LINE",
"595 51 OFFCURVE",
"587 46 OFFCURVE",
"546 46 CURVE SMOOTH",
"463 46 LINE",
"503 95 OFFCURVE",
"623 201 OFFCURVE",
"632 325 CURVE SMOOTH",
"645 489 OFFCURVE",
"538 595 OFFCURVE",
"385 595 CURVE SMOOTH",
"236 595 OFFCURVE",
"110 484 OFFCURVE",
"98 321 CURVE SMOOTH",
"89 198 OFFCURVE",
"191 94 OFFCURVE",
"229 46 CURVE",
"139 46 LINE SMOOTH",
"105 46 OFFCURVE",
"94 54 OFFCURVE",
"77 114 CURVE",
"64 112 LINE",
"69 0 LINE"
);
}
);
width = 665;
}
);
note = Omega;
unicode = 2126;
},
{
glyphname = questiondown;
layers = (
{
hints = (
{
horizontal = 1;
place = "{-114, 24}";
type = Stem;
},
{
place = "{8, 65}";
type = Stem;
},
{
place = "{308, 25}";
type = Stem;
}
);
layerId = "A626400C-4409-4FF6-B7A4-72C4E5A5721C";
paths = (
{
closed = 1;
nodes = (
"380 450 OFFCURVE",
"367 462 OFFCURVE",
"352 462 CURVE SMOOTH",
"341 463 OFFCURVE",
"327 449 OFFCURVE",
"315 439 CURVE SMOOTH",
"304 429 OFFCURVE",
"307 424 OFFCURVE",
"317 426 CURVE SMOOTH",
"329 428 OFFCURVE",
"340 420 OFFCURVE",
"350 414 CURVE",
"353 413 OFFCURVE",
"391 438 OFFCURVE",
"388 440 CURVE"
);
},
{
closed = 1;
nodes = (
"332 305 OFFCURVE",
"324 325 OFFCURVE",
"309 342 CURVE",
"298 326 LINE",
"318 303 OFFCURVE",
"307 264 OFFCURVE",
"279 220 CURVE SMOOTH",
"214 119 OFFCURVE",
"35 125 OFFCURVE",
"11 -8 CURVE SMOOTH",
"-4 -91 OFFCURVE",
"49 -121 OFFCURVE",
"144 -114 CURVE SMOOTH",
"172 -112 LINE SMOOTH",
"203 -110 OFFCURVE",
"249 -101 OFFCURVE",
"265 -94 CURVE SMOOTH",
"273 -90 OFFCURVE",
"287 -81 OFFCURVE",
"287 -68 CURVE SMOOTH",
"286 -52 OFFCURVE",
"298 6 OFFCURVE",
"305 36 CURVE SMOOTH",
"307 50 OFFCURVE",
"285 39 OFFCURVE",
"285 27 CURVE",
"277 -6 OFFCURVE",
"249 -54 OFFCURVE",
"230 -67 CURVE SMOOTH",
"198 -90 OFFCURVE",
"142 -96 OFFCURVE",
"111 -83 CURVE SMOOTH",
"60 -61 OFFCURVE",
"60 9 OFFCURVE",
"113 52 CURVE SMOOTH",
"279 184 LINE SMOOTH",
"307 207 OFFCURVE",
"336 243 OFFCURVE",
"334 280 CURVE SMOOTH"
);
}
);
width = 446;
}
);
note = questiondown;
unicode = 00BF;
},
{
glyphname = exclamdown;
layers = (
{
hints = (
{
horizontal = 1;
place = "{426, 36}";
type = Stem;
},
{
place = "{-39, 314}";
type = Stem;
}
);
layerId = "A626400C-4409-4FF6-B7A4-72C4E5A5721C";
paths = (
{
closed = 1;
nodes = (
"239 413 OFFCURVE",
"277 438 OFFCURVE",
"275 440 CURVE SMOOTH",
"267 450 OFFCURVE",
"253 462 OFFCURVE",
"239 462 CURVE SMOOTH",
"227 463 OFFCURVE",
"213 449 OFFCURVE",
"201 439 CURVE SMOOTH",
"191 429 OFFCURVE",
"194 424 OFFCURVE",
"203 426 CURVE SMOOTH",
"215 428 OFFCURVE",
"226 420 OFFCURVE",
"236 414 CURVE"
);
},
{
closed = 1;
nodes = (
"-41 -102 OFFCURVE",
"-34 -121 OFFCURVE",
"-30 -118 CURVE SMOOTH",
"-3 -96 OFFCURVE",
"32 -88 OFFCURVE",
"49 -84 CURVE",
"53 -75 OFFCURVE",
"62 -48 OFFCURVE",
"69 -31 CURVE SMOOTH",
"110 76 OFFCURVE",
"197 304 OFFCURVE",
"207 329 CURVE",
"209 337 OFFCURVE",
"185 327 OFFCURVE",
"181 318 CURVE SMOOTH",
"170 296 OFFCURVE",
"82 119 OFFCURVE",
"2 -36 CURVE SMOOTH",
"-1 -43 OFFCURVE",
"-29 -94 OFFCURVE",
"-38 -100 CURVE SMOOTH"
);
}
);
width = 245;
}
);
note = exclamdown;
unicode = 00A1;
},
{
glyphname = logicalnot;
layers = (
{
hints = (
{
horizontal = 1;
place = "{223, 24}";
type = Stem;
},
{
place = "{61, 314}";
type = Stem;
}
);
layerId = "A626400C-4409-4FF6-B7A4-72C4E5A5721C";
paths = (
{
closed = 1;
nodes = (
"368 248 LINE",
"323 245 OFFCURVE",
"118 247 OFFCURVE",
"73 246 CURVE",
"61 223 LINE",
"124 227 OFFCURVE",
"295 227 OFFCURVE",
"331 226 CURVE",
"316 199 OFFCURVE",
"297 168 OFFCURVE",
"290 151 CURVE",
"332 150 LINE",
"338 170 OFFCURVE",
"357 216 OFFCURVE",
"375 245 CURVE"
);
}
);
width = 414;
}
);
note = logicalnot;
unicode = 00AC;
},
{
glyphname = radical;
layers = (
{
hints = (
{
horizontal = 1;
place = "{240, 35}";
type = Stem;
},
{
place = "{212, 31}";
type = Stem;
}
);
layerId = "A626400C-4409-4FF6-B7A4-72C4E5A5721C";
paths = (
{
closed = 1;
nodes = (
"652 394 OFFCURVE",
"656 425 OFFCURVE",
"632 425 CURVE SMOOTH",
"508 425 OFFCURVE",
"278 177 OFFCURVE",
"208 88 CURVE SMOOTH",
"193 69 OFFCURVE",
"154 17 OFFCURVE",
"150 -4 CURVE SMOOTH",
"150 -5 OFFCURVE",
"150 -6 OFFCURVE",
"150 -7 CURVE",
"152 -10 OFFCURVE",
"157 -13 OFFCURVE",
"161 -13 CURVE SMOOTH",
"164 -13 OFFCURVE",
"165 -12 OFFCURVE",
"168 -12 CURVE SMOOTH",
"184 -12 OFFCURVE",
"224 62 OFFCURVE",
"231 77 CURVE",
"234 95 OFFCURVE",
"266 135 OFFCURVE",
"279 150 CURVE SMOOTH",
"337 219 OFFCURVE",
"515 399 OFFCURVE",
"610 399 CURVE SMOOTH",
"638 399 OFFCURVE",
"642 378 OFFCURVE",
"641 357 CURVE",
"645 360 OFFCURVE",
"647 365 OFFCURVE",
"647 370 CURVE"
);
},
{
closed = 1;
nodes = (
"245 228 OFFCURVE",
"248 275 OFFCURVE",
"205 275 CURVE SMOOTH",
"155 275 OFFCURVE",
"68 211 OFFCURVE",
"35 176 CURVE",
"31 173 OFFCURVE",
"23 165 OFFCURVE",
"23 160 CURVE",
"22 158 OFFCURVE",
"24 157 OFFCURVE",
"26 157 CURVE SMOOTH",
"31 157 OFFCURVE",
"34 158 OFFCURVE",
"38 162 CURVE SMOOTH",
"72 189 OFFCURVE",
"136 240 OFFCURVE",
"180 240 CURVE SMOOTH",
"216 240 OFFCURVE",
"214 201 OFFCURVE",
"210 176 CURVE SMOOTH",
"202 130 OFFCURVE",
"181 88 OFFCURVE",
"164 43 CURVE",
"164 43 OFFCURVE",
"164 42 OFFCURVE",
"163 42 CURVE",
"163 41 OFFCURVE",
"164 41 OFFCURVE",
"164 41 CURVE",
"169 43 OFFCURVE",
"177 52 OFFCURVE",
"181 57 CURVE SMOOTH",
"207 94 OFFCURVE",
"233 157 OFFCURVE",
"240 199 CURVE SMOOTH"
);
}
);
width = 330;
}
);
note = radical;
unicode = 221A;
},
{
glyphname = florin;
layers = (
{
hints = (
{
horizontal = 1;
place = "{-331, 31}";
type = Stem;
},
{
horizontal = 1;
place = "{247, 26}";
type = Stem;
},
{
horizontal = 1;
place = "{581, 30}";
type = Stem;
},
{
place = "{-409, 32}";
type = Stem;
}
);
layerId = "A626400C-4409-4FF6-B7A4-72C4E5A5721C";
paths = (
{
closed = 1;
nodes = (
"479 581 LINE SMOOTH",
"480 601 OFFCURVE",
"461 611 OFFCURVE",
"445 611 CURVE SMOOTH",
"364 611 OFFCURVE",
"298 564 OFFCURVE",
"242 472 CURVE SMOOTH",
"212 422 OFFCURVE",
"162 327 OFFCURVE",
"140 273 CURVE",
"128 273 LINE SMOOTH",
"115 273 OFFCURVE",
"84 259 OFFCURVE",
"81 245 CURVE",
"83 244 LINE",
"90 245 OFFCURVE",
"98 247 OFFCURVE",
"105 247 CURVE SMOOTH",
"128 247 LINE",
"89 151 OFFCURVE",
"38 4 OFFCURVE",
"-14 -102 CURVE SMOOTH",
"-49 -174 OFFCURVE",
"-106 -244 OFFCURVE",
"-183 -282 CURVE SMOOTH",
"-277 -329 OFFCURVE",
"-412 -273 OFFCURVE",
"-369 -172 CURVE SMOOTH",
"-363 -160 OFFCURVE",
"-376 -155 OFFCURVE",
"-381 -167 CURVE SMOOTH",
"-398 -208 OFFCURVE",
"-415 -245 OFFCURVE",
"-406 -270 CURVE SMOOTH",
"-392 -311 OFFCURVE",
"-347 -331 OFFCURVE",
"-282 -331 CURVE SMOOTH",
"-110 -331 OFFCURVE",
"12 -146 OFFCURVE",
"73 -4 CURVE SMOOTH",
"106 73 OFFCURVE",
"146 174 OFFCURVE",
"175 247 CURVE",
"212 246 OFFCURVE",
"239 244 OFFCURVE",
"272 262 CURVE SMOOTH",
"277 264 OFFCURVE",
"287 269 OFFCURVE",
"287 275 CURVE",
"278 273 OFFCURVE",
"267 273 OFFCURVE",
"258 273 CURVE SMOOTH",
"186 273 LINE",
"213 335 OFFCURVE",
"246 419 OFFCURVE",
"274 469 CURVE SMOOTH",
"312 535 OFFCURVE",
"345 563 OFFCURVE",
"382 575 CURVE SMOOTH",
"423 589 OFFCURVE",
"463 576 OFFCURVE",
"469 543 CURVE SMOOTH",
"469 542 OFFCURVE",
"470 542 OFFCURVE",
"471 542 CURVE SMOOTH",
"473 542 OFFCURVE",
"476 543 OFFCURVE",
"476 545 CURVE SMOOTH"
);
}
);
width = 188;
}
);
note = florin;
unicode = 0192;
},
{
glyphname = approxequal;
layers = (
{
hints = (
{
horizontal = 1;
place = "{49, 19}";
type = Stem;
},
{
horizontal = 1;
place = "{76, 20}";
type = Stem;
},
{
horizontal = 1;
place = "{130, 19}";
type = Stem;
},
{
horizontal = 1;
place = "{177, -20}";
target = down;
type = TopGhost;
}
);
layerId = "A626400C-4409-4FF6-B7A4-72C4E5A5721C";
paths = (
{
closed = 1;
nodes = (
"282 170 LINE",
"265 159 OFFCURVE",
"256 149 OFFCURVE",
"235 149 CURVE SMOOTH",
"187 149 OFFCURVE",
"158 177 OFFCURVE",
"121 177 CURVE SMOOTH",
"104 177 OFFCURVE",
"78 157 OFFCURVE",
"65 146 CURVE",
"73 136 LINE",
"85 146 OFFCURVE",
"100 157 OFFCURVE",
"116 157 CURVE SMOOTH",
"155 157 OFFCURVE",
"188 130 OFFCURVE",
"233 130 CURVE SMOOTH",
"247 130 OFFCURVE",
"278 153 OFFCURVE",
"288 162 CURVE"
);
},
{
closed = 1;
nodes = (
"268 89 LINE",
"251 78 OFFCURVE",
"242 69 OFFCURVE",
"221 69 CURVE SMOOTH",
"173 69 OFFCURVE",
"144 96 OFFCURVE",
"107 96 CURVE SMOOTH",
"90 96 OFFCURVE",
"64 76 OFFCURVE",
"51 65 CURVE",
"59 55 LINE",
"71 65 OFFCURVE",
"86 76 OFFCURVE",
"102 76 CURVE SMOOTH",
"141 76 OFFCURVE",
"174 49 OFFCURVE",
"219 49 CURVE SMOOTH",
"233 49 OFFCURVE",
"264 72 OFFCURVE",
"274 82 CURVE"
);
}
);
width = 294;
}
);
note = approxequal;
unicode = 2248;
},
{
glyphname = Delta;
layers = (
{
hints = (
{
horizontal = 1;
place = "{0, 53}";
type = Stem;
},
{
horizontal = 1;
place = "{698, -20}";
target = down;
type = TopGhost;
},
{
place = "{465, 104}";
type = Stem;
}
);
layerId = "A626400C-4409-4FF6-B7A4-72C4E5A5721C";
paths = (
{
closed = 1;
nodes = (
"550 126 OFFCURVE",
"455 513 OFFCURVE",
"483 575 CURVE",
"425 575 LINE SMOOTH",
"422 575 OFFCURVE",
"419 575 OFFCURVE",
"417 574 CURVE",
"380 568 OFFCURVE",
"363 529 OFFCURVE",
"343 495 CURVE SMOOTH",
"255 346 OFFCURVE",
"86 67 OFFCURVE",
"49 0 CURVE",
"131 0 LINE",
"131 0 OFFCURVE",
"388 1 OFFCURVE",
"594 1 CURVE"
);
},
{
closed = 1;
nodes = (
"149 44 LINE",
"197 157 OFFCURVE",
"309 382 OFFCURVE",
"392 503 CURVE",
"393 448 OFFCURVE",
"439 190 OFFCURVE",
"487 44 CURVE"
);
}
);
width = 609;
}
);
note = Delta;
unicode = 2206;
},
